<svg width="13" height="15" viewBox="0 0 13 15" fill="none" xmlns="http://www.w3.org/2000/svg">
<g clip-path="url(#clip0_413_775)">
<path d="M1.36201 6.83358C1.10411 6.8343 0.851687 6.90802 0.63394 7.04622C0.416192 7.18442 0.242022 7.38145 0.131578 7.6145C0.0211351 7.84756 -0.0210676 8.10712 0.00985274 8.36316C0.0407731 8.6192 0.143553 8.86126 0.306302 9.06132L3.77572 13.3114C3.89942 13.465 4.05799 13.5868 4.23825 13.6668C4.4185 13.7468 4.61525 13.7827 4.81215 13.7714C5.23326 13.7488 5.61345 13.5235 5.85585 13.1531L13.0627 1.54649C13.0639 1.54456 13.0651 1.54263 13.0664 1.54074C13.134 1.43691 13.1121 1.23115 12.9725 1.1019C12.9342 1.0664 12.889 1.03913 12.8397 1.02176C12.7904 1.0044 12.7381 0.997302 12.686 1.00092C12.6338 1.00453 12.583 1.01878 12.5366 1.04279C12.4902 1.06679 12.4492 1.10004 12.4161 1.14049C12.4135 1.14367 12.4109 1.1468 12.4081 1.14989L5.13989 9.36188C5.11224 9.39313 5.07865 9.41858 5.04108 9.43674C5.0035 9.45489 4.9627 9.46541 4.92103 9.46766C4.87936 9.46991 4.83766 9.46387 4.79834 9.44987C4.75903 9.43587 4.72289 9.41419 4.69203 9.38611L2.27984 7.19101C2.02932 6.96135 1.70187 6.83383 1.36201 6.83358V6.83358Z" fill="#4A3AFF"/>
</g>
<defs>
<clipPath id="clip0_413_775">
<rect width="13" height="15" fill="white"/>
</clipPath>
</defs>
</svg>
