<svg width="66" height="66" viewBox="0 0 66 66" fill="none" xmlns="http://www.w3.org/2000/svg">
<path d="M33 66C51.2254 66 66 51.2254 66 33C66 14.7746 51.2254 0 33 0C14.7746 0 0 14.7746 0 33C0 51.2254 14.7746 66 33 66Z" fill="#E4E2FF"/>
<path d="M49.75 16.4777V53.8638C49.75 54.9019 48.9044 55.7501 47.875 55.7501H18.125C17.0956 55.7501 16.25 54.9019 16.25 53.8638V16.4777C16.25 15.4395 17.0956 14.5913 18.125 14.5913H47.875C48.9044 14.5913 49.75 15.4395 49.75 16.4777Z" fill="#BEC6C6" stroke="#252525" stroke-width="0.5"/>
<path d="M41.248 14.3409V17.2954H24.748V14.3409C24.748 13.3027 25.5936 12.4545 26.623 12.4545H28.748H28.998V12.2045V11.1363C28.998 10.0982 29.8436 9.25 30.873 9.25H35.123C36.1525 9.25 36.998 10.0982 36.998 11.1363V12.2045V12.4545H37.248H39.373C40.4025 12.4545 41.248 13.3027 41.248 14.3409Z" fill="#BEC6C6" stroke="#252525" stroke-width="0.5"/>
<path d="M19.4395 17.7954H46.5645V52.5452H19.4395V17.7954Z" fill="#F8F9F9" stroke="#252525" stroke-width="0.5"/>
<path d="M41.5 14.3413H47.875C49.0438 14.3413 50 15.3027 50 16.4777V53.8638C50 55.0388 49.0438 56.0001 47.875 56.0001H18.125C16.9562 56.0001 16 55.0388 16 53.8638V16.4777C16 15.3027 16.9562 14.3413 18.125 14.3413H24.5" stroke="#252525" stroke-width="0.5" stroke-miterlimit="10" stroke-linecap="round" stroke-linejoin="round"/>
<path d="M41.498 14.3409V17.5454H24.498V14.3409C24.498 13.1659 25.4543 12.2045 26.623 12.2045H28.748V11.1363C28.748 9.96136 29.7043 9 30.873 9H35.123C36.2918 9 37.248 9.96136 37.248 11.1363V12.2045H39.373C40.5418 12.2045 41.498 13.1659 41.498 14.3409Z" stroke="#252525" stroke-width="0.5" stroke-miterlimit="10" stroke-linecap="round" stroke-linejoin="round"/>
<path d="M33.8145 13.2728C33.8145 13.7234 33.447 14.0909 33.002 14.0909C32.5569 14.0909 32.1895 13.7234 32.1895 13.2728C32.1895 12.8221 32.5569 12.4546 33.002 12.4546C33.447 12.4546 33.8145 12.8221 33.8145 13.2728Z" fill="#F8F9F9" stroke="#252525" stroke-width="0.5"/>
<path d="M27.7463 24.197L27.8402 24.1735L27.8937 24.0929L29.3919 21.8391L29.3926 21.838C29.7389 21.3111 30.3292 21 30.9474 21H36.1112C36.7393 21 37.3193 21.3105 37.666 21.838L37.6667 21.8391L39.1648 24.0929L39.2124 24.1645L39.2939 24.1917L41.7569 25.0135C42.0833 25.1292 42.3105 25.4418 42.3105 25.7918V28.2272C42.3105 28.6779 41.9431 29.0454 41.4981 29.0454H24.498C24.053 29.0454 23.6855 28.6779 23.6855 28.2272V26.6891C23.6855 25.8202 24.2777 25.0661 25.1009 24.8593L27.7463 24.197Z" fill="#6457FF" stroke="#252525" stroke-width="0.5"/>
<path d="M29.5645 29.295C29.5645 30.3332 28.7189 31.1814 27.6895 31.1814C26.66 31.1814 25.8145 30.3332 25.8145 29.295C25.8145 28.2569 26.66 27.4087 27.6895 27.4087C28.7189 27.4087 29.5645 28.2569 29.5645 29.295Z" fill="#BEC6C6" stroke="#252525" stroke-width="0.5"/>
<path d="M40.1855 29.295C40.1855 30.3332 39.34 31.1814 38.3105 31.1814C37.2811 31.1814 36.4355 30.3332 36.4355 29.295C36.4355 28.2569 37.2811 27.4087 38.3105 27.4087C39.34 27.4087 40.1855 28.2569 40.1855 29.295Z" fill="#BEC6C6" stroke="#252525" stroke-width="0.5"/>
<path d="M30.877 26.0913H31.9395" stroke="#252525" stroke-miterlimit="10" stroke-linecap="round" stroke-linejoin="round"/>
<path d="M27.6875 49.3402H23.4375C22.9925 49.3402 22.625 48.9727 22.625 48.522V44.2493C22.625 43.7986 22.9925 43.4312 23.4375 43.4312H27.6875C28.1326 43.4312 28.5 43.7986 28.5 44.2493V48.522C28.5 48.9727 28.1326 49.3402 27.6875 49.3402Z" fill="#BEC6C6" stroke="#252525" stroke-width="0.5"/>
<path d="M33 35.7051H43.625" stroke="#252525" stroke-miterlimit="10" stroke-linecap="round" stroke-linejoin="round"/>
<path d="M33 39.9771H38.3125" stroke="#252525" stroke-miterlimit="10" stroke-linecap="round" stroke-linejoin="round"/>
<path d="M33 44.25H43.625" stroke="#252525" stroke-miterlimit="10" stroke-linecap="round" stroke-linejoin="round"/>
<path d="M33 48.5225H38.3125" stroke="#252525" stroke-miterlimit="10" stroke-linecap="round" stroke-linejoin="round"/>
<path d="M22.375 37.8414L24.5 39.9778L28.75 35.7051" stroke="#6457FF" stroke-miterlimit="10" stroke-linecap="round" stroke-linejoin="round"/>
</svg>
