<svg width="33" height="32" viewBox="0 0 33 32" fill="none" xmlns="http://www.w3.org/2000/svg">
<path d="M31.3063 24.4114C30.3074 23.5737 24.4491 19.864 23.4754 20.0343C23.0183 20.1154 22.6686 20.5051 21.7326 21.6217C21.2997 22.1713 20.8243 22.686 20.3109 23.1611C19.37 22.9339 18.4594 22.5963 17.5977 22.1554C14.2186 20.5103 11.4887 17.7796 9.84457 14.4C9.4037 13.5384 9.06612 12.6277 8.83886 11.6869C9.31398 11.1734 9.8287 10.698 10.3783 10.2651C11.4937 9.32914 11.8846 8.98171 11.9657 8.52229C12.136 7.54629 8.42286 1.69029 7.58857 0.691429C7.23886 0.277714 6.92114 0 6.51429 0C5.33486 0 0 6.59657 0 7.45143C0 7.52114 0.114286 14.3886 8.78743 23.2126C17.6114 31.8857 24.4789 32 24.5486 32C25.4034 32 32 26.6651 32 25.4857C32 25.0789 31.7223 24.7611 31.3063 24.4114V24.4114Z" fill="#303034"/>
<path d="M24.0017 14.8567H26.2874C26.2847 12.4327 25.3205 10.1088 23.6065 8.39475C21.8925 6.68073 19.5685 5.71659 17.1445 5.71387V7.99958C18.9626 8.0014 20.7057 8.72443 21.9913 10.01C23.2768 11.2956 23.9999 13.0387 24.0017 14.8567V14.8567Z" fill="#303034"/>
<path d="M29.716 14.8571H32.0017C31.9971 10.9182 30.4304 7.14184 27.6451 4.35657C24.8598 1.5713 21.0835 0.00453711 17.1445 0V2.28571C20.4775 2.28965 23.6728 3.6154 26.0295 5.97214C28.3863 8.32889 29.712 11.5242 29.716 14.8571Z" fill="#303034"/>
</svg>
