<svg width="416" height="196" viewBox="0 0 416 196" fill="none" xmlns="http://www.w3.org/2000/svg">
<path d="M294.4 34.69L249.4 124.56H210.47C225.64 94.33 240.57 64.56 255.68 34.47H191.3L146.08 124.78H107.19L125.65 87.78H60.2999C54.2199 99.92 48.0599 112.2 41.8999 124.53H2.8999L65.4799 0H415.09L352.8 124.54H313.9L358.9 34.69H294.4ZM152.49 34.42H86.9699C83.0699 42.22 79.1699 50.05 75.0399 58.32H140.52L152.49 34.42Z" fill="#010103"/>
<mask id="path-2-outside-1_383_707" maskUnits="userSpaceOnUse" x="-0.358398" y="140.593" width="147" height="21" fill="black">
<rect fill="white" x="-0.358398" y="140.593" width="147" height="21"/>
<path d="M2.95815 160.09H0.641602L7.34177 141.842H9.62268L16.3229 160.09H14.0063L8.55351 144.729H8.41095L2.95815 160.09ZM3.81349 152.962H13.151V154.922H3.81349V152.962Z"/>
<path d="M19.1651 141.842H21.8024L28.0036 156.989H28.2174L34.4187 141.842H37.056V160.09H34.9889V146.226H34.8107L29.1084 160.09H27.1126L21.4103 146.226H21.2322V160.09H19.1651V141.842Z"/>
<path d="M61.0166 147.545C60.8206 146.945 60.5622 146.407 60.2415 145.932C59.9267 145.451 59.5495 145.041 59.1099 144.703C58.6763 144.364 58.1833 144.106 57.6309 143.927C57.0785 143.749 56.4726 143.66 55.8133 143.66C54.7323 143.66 53.7492 143.939 52.8642 144.498C51.9791 145.056 51.2753 145.879 50.7525 146.966C50.2298 148.053 49.9685 149.386 49.9685 150.966C49.9685 152.546 50.2328 153.88 50.7615 154.967C51.2901 156.054 52.0059 156.876 52.9087 157.435C53.8116 157.993 54.8273 158.272 55.9559 158.272C57.0013 158.272 57.922 158.049 58.7179 157.604C59.5198 157.153 60.1435 156.517 60.589 155.697C61.0404 154.872 61.2661 153.9 61.2661 152.784L61.9433 152.926H56.4548V150.966H63.4045V152.926C63.4045 154.429 63.0837 155.736 62.4422 156.847C61.8066 157.957 60.9275 158.819 59.8049 159.43C58.6882 160.036 57.4052 160.339 55.9559 160.339C54.3402 160.339 52.9206 159.959 51.697 159.199C50.4793 158.438 49.5289 157.357 48.8459 155.956C48.1687 154.554 47.8301 152.891 47.8301 150.966C47.8301 149.523 48.0232 148.225 48.4093 147.073C48.8013 145.914 49.3537 144.928 50.0665 144.114C50.7793 143.301 51.6227 142.677 52.5969 142.243C53.571 141.81 54.6432 141.593 55.8133 141.593C56.7756 141.593 57.6725 141.739 58.5041 142.03C59.3416 142.315 60.0871 142.722 60.7404 143.25C61.3998 143.773 61.9492 144.4 62.3887 145.13C62.8283 145.855 63.1312 146.66 63.2975 147.545H61.0166Z"/>
<path d="M67.3738 160.09H65.0572L71.7574 141.842H74.0383L80.7385 160.09H78.4219L72.9691 144.729H72.8266L67.3738 160.09ZM68.2291 152.962H77.5666V154.922H68.2291V152.962Z"/>
<path d="M83.5807 160.09V141.842H89.7463C91.1719 141.842 92.342 142.086 93.2568 142.573C94.1715 143.054 94.8486 143.717 95.2882 144.56C95.7277 145.403 95.9475 146.363 95.9475 147.438C95.9475 148.513 95.7277 149.466 95.2882 150.298C94.8486 151.129 94.1745 151.783 93.2657 152.258C92.3569 152.727 91.1956 152.962 89.7819 152.962H84.7924V150.966H89.7107C90.6848 150.966 91.4689 150.824 92.0629 150.538C92.6628 150.253 93.0964 149.849 93.3637 149.327C93.6369 148.798 93.7735 148.168 93.7735 147.438C93.7735 146.707 93.6369 146.069 93.3637 145.522C93.0904 144.976 92.6539 144.554 92.0539 144.257C91.454 143.954 90.661 143.803 89.675 143.803H85.7903V160.09H83.5807ZM92.1698 151.893L96.6603 160.09H94.0943L89.675 151.893H92.1698Z"/>
<path d="M100.378 160.09H98.0614L104.762 141.842H107.042L113.743 160.09H111.426L105.973 144.729H105.831L100.378 160.09ZM101.233 152.962H110.571V154.922H101.233V152.962Z"/>
<path d="M128.201 147.545C128.005 146.945 127.747 146.407 127.426 145.932C127.111 145.451 126.734 145.041 126.294 144.703C125.861 144.364 125.368 144.106 124.815 143.927C124.263 143.749 123.657 143.66 122.998 143.66C121.917 143.66 120.934 143.939 120.049 144.498C119.163 145.056 118.46 145.879 117.937 146.966C117.414 148.053 117.153 149.386 117.153 150.966C117.153 152.546 117.417 153.88 117.946 154.967C118.474 156.054 119.19 156.876 120.093 157.435C120.996 157.993 122.012 158.272 123.14 158.272C124.186 158.272 125.106 158.049 125.902 157.604C126.704 157.153 127.328 156.517 127.773 155.697C128.225 154.872 128.45 153.9 128.45 152.784L129.128 152.926H123.639V150.966H130.589V152.926C130.589 154.429 130.268 155.736 129.627 156.847C128.991 157.957 128.112 158.819 126.989 159.43C125.873 160.036 124.59 160.339 123.14 160.339C121.525 160.339 120.105 159.959 118.881 159.199C117.664 158.438 116.713 157.357 116.03 155.956C115.353 154.554 115.014 152.891 115.014 150.966C115.014 149.523 115.208 148.225 115.594 147.073C115.986 145.914 116.538 144.928 117.251 144.114C117.964 143.301 118.807 142.677 119.781 142.243C120.755 141.81 121.828 141.593 122.998 141.593C123.96 141.593 124.857 141.739 125.688 142.03C126.526 142.315 127.271 142.722 127.925 143.25C128.584 143.773 129.134 144.4 129.573 145.13C130.013 145.855 130.316 146.66 130.482 147.545H128.201Z"/>
<path d="M134.373 160.09V141.842H145.386V143.803H136.583V149.968H144.816V151.928H136.583V158.13H145.528V160.09H134.373Z"/>
</mask>
<path d="M2.95815 160.09H0.641602L7.34177 141.842H9.62268L16.3229 160.09H14.0063L8.55351 144.729H8.41095L2.95815 160.09ZM3.81349 152.962H13.151V154.922H3.81349V152.962Z" fill="#010103"/>
<path d="M19.1651 141.842H21.8024L28.0036 156.989H28.2174L34.4187 141.842H37.056V160.09H34.9889V146.226H34.8107L29.1084 160.09H27.1126L21.4103 146.226H21.2322V160.09H19.1651V141.842Z" fill="#010103"/>
<path d="M61.0166 147.545C60.8206 146.945 60.5622 146.407 60.2415 145.932C59.9267 145.451 59.5495 145.041 59.1099 144.703C58.6763 144.364 58.1833 144.106 57.6309 143.927C57.0785 143.749 56.4726 143.66 55.8133 143.66C54.7323 143.66 53.7492 143.939 52.8642 144.498C51.9791 145.056 51.2753 145.879 50.7525 146.966C50.2298 148.053 49.9685 149.386 49.9685 150.966C49.9685 152.546 50.2328 153.88 50.7615 154.967C51.2901 156.054 52.0059 156.876 52.9087 157.435C53.8116 157.993 54.8273 158.272 55.9559 158.272C57.0013 158.272 57.922 158.049 58.7179 157.604C59.5198 157.153 60.1435 156.517 60.589 155.697C61.0404 154.872 61.2661 153.9 61.2661 152.784L61.9433 152.926H56.4548V150.966H63.4045V152.926C63.4045 154.429 63.0837 155.736 62.4422 156.847C61.8066 157.957 60.9275 158.819 59.8049 159.43C58.6882 160.036 57.4052 160.339 55.9559 160.339C54.3402 160.339 52.9206 159.959 51.697 159.199C50.4793 158.438 49.5289 157.357 48.8459 155.956C48.1687 154.554 47.8301 152.891 47.8301 150.966C47.8301 149.523 48.0232 148.225 48.4093 147.073C48.8013 145.914 49.3537 144.928 50.0665 144.114C50.7793 143.301 51.6227 142.677 52.5969 142.243C53.571 141.81 54.6432 141.593 55.8133 141.593C56.7756 141.593 57.6725 141.739 58.5041 142.03C59.3416 142.315 60.0871 142.722 60.7404 143.25C61.3998 143.773 61.9492 144.4 62.3887 145.13C62.8283 145.855 63.1312 146.66 63.2975 147.545H61.0166Z" fill="#010103"/>
<path d="M67.3738 160.09H65.0572L71.7574 141.842H74.0383L80.7385 160.09H78.4219L72.9691 144.729H72.8266L67.3738 160.09ZM68.2291 152.962H77.5666V154.922H68.2291V152.962Z" fill="#010103"/>
<path d="M83.5807 160.09V141.842H89.7463C91.1719 141.842 92.342 142.086 93.2568 142.573C94.1715 143.054 94.8486 143.717 95.2882 144.56C95.7277 145.403 95.9475 146.363 95.9475 147.438C95.9475 148.513 95.7277 149.466 95.2882 150.298C94.8486 151.129 94.1745 151.783 93.2657 152.258C92.3569 152.727 91.1956 152.962 89.7819 152.962H84.7924V150.966H89.7107C90.6848 150.966 91.4689 150.824 92.0629 150.538C92.6628 150.253 93.0964 149.849 93.3637 149.327C93.6369 148.798 93.7735 148.168 93.7735 147.438C93.7735 146.707 93.6369 146.069 93.3637 145.522C93.0904 144.976 92.6539 144.554 92.0539 144.257C91.454 143.954 90.661 143.803 89.675 143.803H85.7903V160.09H83.5807ZM92.1698 151.893L96.6603 160.09H94.0943L89.675 151.893H92.1698Z" fill="#010103"/>
<path d="M100.378 160.09H98.0614L104.762 141.842H107.042L113.743 160.09H111.426L105.973 144.729H105.831L100.378 160.09ZM101.233 152.962H110.571V154.922H101.233V152.962Z" fill="#010103"/>
<path d="M128.201 147.545C128.005 146.945 127.747 146.407 127.426 145.932C127.111 145.451 126.734 145.041 126.294 144.703C125.861 144.364 125.368 144.106 124.815 143.927C124.263 143.749 123.657 143.66 122.998 143.66C121.917 143.66 120.934 143.939 120.049 144.498C119.163 145.056 118.46 145.879 117.937 146.966C117.414 148.053 117.153 149.386 117.153 150.966C117.153 152.546 117.417 153.88 117.946 154.967C118.474 156.054 119.19 156.876 120.093 157.435C120.996 157.993 122.012 158.272 123.14 158.272C124.186 158.272 125.106 158.049 125.902 157.604C126.704 157.153 127.328 156.517 127.773 155.697C128.225 154.872 128.45 153.9 128.45 152.784L129.128 152.926H123.639V150.966H130.589V152.926C130.589 154.429 130.268 155.736 129.627 156.847C128.991 157.957 128.112 158.819 126.989 159.43C125.873 160.036 124.59 160.339 123.14 160.339C121.525 160.339 120.105 159.959 118.881 159.199C117.664 158.438 116.713 157.357 116.03 155.956C115.353 154.554 115.014 152.891 115.014 150.966C115.014 149.523 115.208 148.225 115.594 147.073C115.986 145.914 116.538 144.928 117.251 144.114C117.964 143.301 118.807 142.677 119.781 142.243C120.755 141.81 121.828 141.593 122.998 141.593C123.96 141.593 124.857 141.739 125.688 142.03C126.526 142.315 127.271 142.722 127.925 143.25C128.584 143.773 129.134 144.4 129.573 145.13C130.013 145.855 130.316 146.66 130.482 147.545H128.201Z" fill="#010103"/>
<path d="M134.373 160.09V141.842H145.386V143.803H136.583V149.968H144.816V151.928H136.583V158.13H145.528V160.09H134.373Z" fill="#010103"/>
<path d="M2.95815 160.09H0.641602L7.34177 141.842H9.62268L16.3229 160.09H14.0063L8.55351 144.729H8.41095L2.95815 160.09ZM3.81349 152.962H13.151V154.922H3.81349V152.962Z" stroke="#010103" stroke-width="0.8" mask="url(#path-2-outside-1_383_707)"/>
<path d="M19.1651 141.842H21.8024L28.0036 156.989H28.2174L34.4187 141.842H37.056V160.09H34.9889V146.226H34.8107L29.1084 160.09H27.1126L21.4103 146.226H21.2322V160.09H19.1651V141.842Z" stroke="#010103" stroke-width="0.8" mask="url(#path-2-outside-1_383_707)"/>
<path d="M61.0166 147.545C60.8206 146.945 60.5622 146.407 60.2415 145.932C59.9267 145.451 59.5495 145.041 59.1099 144.703C58.6763 144.364 58.1833 144.106 57.6309 143.927C57.0785 143.749 56.4726 143.66 55.8133 143.66C54.7323 143.66 53.7492 143.939 52.8642 144.498C51.9791 145.056 51.2753 145.879 50.7525 146.966C50.2298 148.053 49.9685 149.386 49.9685 150.966C49.9685 152.546 50.2328 153.88 50.7615 154.967C51.2901 156.054 52.0059 156.876 52.9087 157.435C53.8116 157.993 54.8273 158.272 55.9559 158.272C57.0013 158.272 57.922 158.049 58.7179 157.604C59.5198 157.153 60.1435 156.517 60.589 155.697C61.0404 154.872 61.2661 153.9 61.2661 152.784L61.9433 152.926H56.4548V150.966H63.4045V152.926C63.4045 154.429 63.0837 155.736 62.4422 156.847C61.8066 157.957 60.9275 158.819 59.8049 159.43C58.6882 160.036 57.4052 160.339 55.9559 160.339C54.3402 160.339 52.9206 159.959 51.697 159.199C50.4793 158.438 49.5289 157.357 48.8459 155.956C48.1687 154.554 47.8301 152.891 47.8301 150.966C47.8301 149.523 48.0232 148.225 48.4093 147.073C48.8013 145.914 49.3537 144.928 50.0665 144.114C50.7793 143.301 51.6227 142.677 52.5969 142.243C53.571 141.81 54.6432 141.593 55.8133 141.593C56.7756 141.593 57.6725 141.739 58.5041 142.03C59.3416 142.315 60.0871 142.722 60.7404 143.25C61.3998 143.773 61.9492 144.4 62.3887 145.13C62.8283 145.855 63.1312 146.66 63.2975 147.545H61.0166Z" stroke="#010103" stroke-width="0.8" mask="url(#path-2-outside-1_383_707)"/>
<path d="M67.3738 160.09H65.0572L71.7574 141.842H74.0383L80.7385 160.09H78.4219L72.9691 144.729H72.8266L67.3738 160.09ZM68.2291 152.962H77.5666V154.922H68.2291V152.962Z" stroke="#010103" stroke-width="0.8" mask="url(#path-2-outside-1_383_707)"/>
<path d="M83.5807 160.09V141.842H89.7463C91.1719 141.842 92.342 142.086 93.2568 142.573C94.1715 143.054 94.8486 143.717 95.2882 144.56C95.7277 145.403 95.9475 146.363 95.9475 147.438C95.9475 148.513 95.7277 149.466 95.2882 150.298C94.8486 151.129 94.1745 151.783 93.2657 152.258C92.3569 152.727 91.1956 152.962 89.7819 152.962H84.7924V150.966H89.7107C90.6848 150.966 91.4689 150.824 92.0629 150.538C92.6628 150.253 93.0964 149.849 93.3637 149.327C93.6369 148.798 93.7735 148.168 93.7735 147.438C93.7735 146.707 93.6369 146.069 93.3637 145.522C93.0904 144.976 92.6539 144.554 92.0539 144.257C91.454 143.954 90.661 143.803 89.675 143.803H85.7903V160.09H83.5807ZM92.1698 151.893L96.6603 160.09H94.0943L89.675 151.893H92.1698Z" stroke="#010103" stroke-width="0.8" mask="url(#path-2-outside-1_383_707)"/>
<path d="M100.378 160.09H98.0614L104.762 141.842H107.042L113.743 160.09H111.426L105.973 144.729H105.831L100.378 160.09ZM101.233 152.962H110.571V154.922H101.233V152.962Z" stroke="#010103" stroke-width="0.8" mask="url(#path-2-outside-1_383_707)"/>
<path d="M128.201 147.545C128.005 146.945 127.747 146.407 127.426 145.932C127.111 145.451 126.734 145.041 126.294 144.703C125.861 144.364 125.368 144.106 124.815 143.927C124.263 143.749 123.657 143.66 122.998 143.66C121.917 143.66 120.934 143.939 120.049 144.498C119.163 145.056 118.46 145.879 117.937 146.966C117.414 148.053 117.153 149.386 117.153 150.966C117.153 152.546 117.417 153.88 117.946 154.967C118.474 156.054 119.19 156.876 120.093 157.435C120.996 157.993 122.012 158.272 123.14 158.272C124.186 158.272 125.106 158.049 125.902 157.604C126.704 157.153 127.328 156.517 127.773 155.697C128.225 154.872 128.45 153.9 128.45 152.784L129.128 152.926H123.639V150.966H130.589V152.926C130.589 154.429 130.268 155.736 129.627 156.847C128.991 157.957 128.112 158.819 126.989 159.43C125.873 160.036 124.59 160.339 123.14 160.339C121.525 160.339 120.105 159.959 118.881 159.199C117.664 158.438 116.713 157.357 116.03 155.956C115.353 154.554 115.014 152.891 115.014 150.966C115.014 149.523 115.208 148.225 115.594 147.073C115.986 145.914 116.538 144.928 117.251 144.114C117.964 143.301 118.807 142.677 119.781 142.243C120.755 141.81 121.828 141.593 122.998 141.593C123.96 141.593 124.857 141.739 125.688 142.03C126.526 142.315 127.271 142.722 127.925 143.25C128.584 143.773 129.134 144.4 129.573 145.13C130.013 145.855 130.316 146.66 130.482 147.545H128.201Z" stroke="#010103" stroke-width="0.8" mask="url(#path-2-outside-1_383_707)"/>
<path d="M134.373 160.09V141.842H145.386V143.803H136.583V149.968H144.816V151.928H136.583V158.13H145.528V160.09H134.373Z" stroke="#010103" stroke-width="0.8" mask="url(#path-2-outside-1_383_707)"/>
<path d="M7.84047 195.51H2.20947V177.262H8.08994C9.86002 177.262 11.3747 177.628 12.6339 178.358C13.8932 179.083 14.8584 180.125 15.5296 181.486C16.2008 182.84 16.5364 184.462 16.5364 186.35C16.5364 188.251 16.1979 189.888 15.5207 191.26C14.8436 192.626 13.8576 193.677 12.5627 194.414C11.2678 195.144 9.69371 195.51 7.84047 195.51ZM4.4191 193.55H7.69791C9.20664 193.55 10.457 193.258 11.4489 192.676C12.4409 192.094 13.1804 191.266 13.6675 190.191C14.1545 189.115 14.3981 187.835 14.3981 186.35C14.3981 184.877 14.1575 183.609 13.6764 182.546C13.1953 181.477 12.4765 180.657 11.5202 180.087C10.5639 179.511 9.37295 179.223 7.94738 179.223H4.4191V193.55Z" fill="#010103"/>
<path d="M20.2429 195.51V177.262H26.4085C27.8341 177.262 29.0042 177.506 29.919 177.993C30.8337 178.474 31.5108 179.136 31.9504 179.98C32.3899 180.823 32.6097 181.783 32.6097 182.858C32.6097 183.933 32.3899 184.886 31.9504 185.718C31.5108 186.549 30.8367 187.203 29.9279 187.678C29.0191 188.147 27.8578 188.382 26.4441 188.382H21.4546V186.386H26.3729C27.347 186.386 28.1311 186.243 28.725 185.958C29.325 185.673 29.7586 185.269 30.0259 184.747C30.2991 184.218 30.4357 183.588 30.4357 182.858C30.4357 182.127 30.2991 181.489 30.0259 180.942C29.7526 180.396 29.3161 179.974 28.7161 179.677C28.1162 179.374 27.3232 179.223 26.3372 179.223H22.4525V195.51H20.2429ZM28.832 187.313L33.3225 195.51H30.7565L26.3372 187.313H28.832Z" fill="#010103"/>
<path d="M38.5013 177.262V195.51H36.2917V177.262H38.5013Z" fill="#010103"/>
<path d="M43.6801 177.262L49.0973 192.623H49.3111L54.7283 177.262H57.0448L50.3447 195.51H48.0638L41.3636 177.262H43.6801Z" fill="#010103"/>
<path d="M62.0967 177.262V195.51H59.8871V177.262H62.0967Z" fill="#010103"/>
<path d="M80.9966 177.262V195.51H78.8583L68.9149 181.183H68.7367V195.51H66.5271V177.262H68.6655L78.6444 191.625H78.8226V177.262H80.9966Z" fill="#010103"/>
<path d="M97.8918 182.965C97.6958 182.365 97.4374 181.827 97.1167 181.352C96.8019 180.871 96.4247 180.461 95.9851 180.122C95.5515 179.784 95.0585 179.526 94.5061 179.347C93.9537 179.169 93.3478 179.08 92.6885 179.08C91.6074 179.08 90.6244 179.359 89.7394 179.918C88.8543 180.476 88.1504 181.299 87.6277 182.386C87.105 183.473 86.8437 184.806 86.8437 186.386C86.8437 187.966 87.108 189.3 87.6366 190.387C88.1653 191.474 88.881 192.296 89.7839 192.855C90.6868 193.413 91.7025 193.692 92.8311 193.692C93.8765 193.692 94.7972 193.469 95.5931 193.024C96.395 192.572 97.0187 191.937 97.4642 191.117C97.9156 190.292 98.1413 189.32 98.1413 188.204L98.8184 188.346H93.33V186.386H100.28V188.346C100.28 189.849 99.9589 191.156 99.3174 192.267C98.6818 193.377 97.8027 194.239 96.6801 194.85C95.5634 195.456 94.2804 195.759 92.8311 195.759C91.2154 195.759 89.7958 195.379 88.5722 194.619C87.3545 193.858 86.4041 192.777 85.721 191.376C85.0439 189.974 84.7053 188.311 84.7053 186.386C84.7053 184.943 84.8984 183.645 85.2845 182.492C85.6765 181.334 86.2289 180.348 86.9417 179.534C87.6545 178.721 88.4979 178.097 89.4721 177.663C90.4462 177.23 91.5183 177.013 92.6885 177.013C93.6508 177.013 94.5477 177.158 95.3793 177.45C96.2168 177.735 96.9622 178.142 97.6156 178.67C98.2749 179.193 98.8244 179.82 99.2639 180.55C99.7035 181.275 100.006 182.08 100.173 182.965H97.8918Z" fill="#010103"/>
<path d="M111.121 195.51V177.262H117.286C118.718 177.262 119.888 177.521 120.797 178.038C121.711 178.548 122.389 179.24 122.828 180.114C123.268 180.987 123.487 181.961 123.487 183.036C123.487 184.111 123.268 185.088 122.828 185.967C122.395 186.846 121.723 187.547 120.815 188.07C119.906 188.587 118.741 188.845 117.322 188.845H112.903V186.885H117.251C118.231 186.885 119.018 186.716 119.612 186.377C120.206 186.039 120.636 185.581 120.904 185.005C121.177 184.423 121.313 183.767 121.313 183.036C121.313 182.305 121.177 181.652 120.904 181.076C120.636 180.5 120.203 180.048 119.603 179.722C119.003 179.389 118.207 179.223 117.215 179.223H113.33V195.51H111.121Z" fill="#010103"/>
<path d="M127.047 195.51V177.262H138.059V179.223H129.257V185.388H137.489V187.348H129.257V193.55H138.202V195.51H127.047Z" fill="#010103"/>
<path d="M142.042 195.51V177.262H148.208C149.633 177.262 150.803 177.506 151.718 177.993C152.633 178.474 153.31 179.136 153.75 179.98C154.189 180.823 154.409 181.783 154.409 182.858C154.409 183.933 154.189 184.886 153.75 185.718C153.31 186.549 152.636 187.203 151.727 187.678C150.818 188.147 149.657 188.382 148.243 188.382H143.254V186.386H148.172C149.146 186.386 149.93 186.243 150.524 185.958C151.124 185.673 151.558 185.269 151.825 184.747C152.098 184.218 152.235 183.588 152.235 182.858C152.235 182.127 152.098 181.489 151.825 180.942C151.552 180.396 151.115 179.974 150.515 179.677C149.915 179.374 149.122 179.223 148.136 179.223H144.252V195.51H142.042ZM150.631 187.313L155.122 195.51H152.556L148.136 187.313H150.631Z" fill="#010103"/>
<path d="M158.091 195.51V177.262H169.032V179.223H160.301V185.388H168.212V187.348H160.301V195.51H158.091Z" fill="#010103"/>
<path d="M188.213 186.386C188.213 188.311 187.865 189.974 187.17 191.376C186.475 192.777 185.522 193.858 184.31 194.619C183.098 195.379 181.714 195.759 180.158 195.759C178.602 195.759 177.218 195.379 176.006 194.619C174.795 193.858 173.841 192.777 173.146 191.376C172.451 189.974 172.104 188.311 172.104 186.386C172.104 184.462 172.451 182.798 173.146 181.397C173.841 179.995 174.795 178.914 176.006 178.153C177.218 177.393 178.602 177.013 180.158 177.013C181.714 177.013 183.098 177.393 184.31 178.153C185.522 178.914 186.475 179.995 187.17 181.397C187.865 182.798 188.213 184.462 188.213 186.386ZM186.074 186.386C186.074 184.806 185.81 183.473 185.281 182.386C184.759 181.299 184.049 180.476 183.152 179.918C182.261 179.359 181.263 179.08 180.158 179.08C179.053 179.08 178.053 179.359 177.156 179.918C176.265 180.476 175.555 181.299 175.026 182.386C174.504 183.473 174.242 184.806 174.242 186.386C174.242 187.966 174.504 189.3 175.026 190.387C175.555 191.474 176.265 192.296 177.156 192.855C178.053 193.413 179.053 193.692 180.158 193.692C181.263 193.692 182.261 193.413 183.152 192.855C184.049 192.296 184.759 191.474 185.281 190.387C185.81 189.3 186.074 187.966 186.074 186.386Z" fill="#010103"/>
<path d="M191.928 195.51V177.262H198.094C199.519 177.262 200.689 177.506 201.604 177.993C202.519 178.474 203.196 179.136 203.636 179.98C204.075 180.823 204.295 181.783 204.295 182.858C204.295 183.933 204.075 184.886 203.636 185.718C203.196 186.549 202.522 187.203 201.613 187.678C200.704 188.147 199.543 188.382 198.129 188.382H193.14V186.386H198.058C199.032 186.386 199.816 186.243 200.41 185.958C201.01 185.673 201.444 185.269 201.711 184.747C201.984 184.218 202.121 183.588 202.121 182.858C202.121 182.127 201.984 181.489 201.711 180.942C201.438 180.396 201.001 179.974 200.401 179.677C199.801 179.374 199.008 179.223 198.022 179.223H194.138V195.51H191.928ZM200.517 187.313L205.008 195.51H202.442L198.022 187.313H200.517Z" fill="#010103"/>
<path d="M207.977 177.262H210.614L216.815 192.409H217.029L223.23 177.262H225.868V195.51H223.801V181.646H223.622L217.92 195.51H215.924L210.222 181.646H210.044V195.51H207.977V177.262Z" fill="#010103"/>
<path d="M231.047 195.51H228.73L235.43 177.262H237.711L244.411 195.51H242.095L236.642 180.149H236.499L231.047 195.51ZM231.902 188.382H241.239V190.342H231.902V188.382Z" fill="#010103"/>
<path d="M261.723 177.262V195.51H259.585L249.641 181.183H249.463V195.51H247.254V177.262H249.392L259.371 191.625H259.549V177.262H261.723Z" fill="#010103"/>
<path d="M280.828 182.965H278.618C278.488 182.329 278.259 181.771 277.932 181.29C277.611 180.809 277.219 180.405 276.756 180.078C276.299 179.745 275.791 179.496 275.233 179.329C274.674 179.163 274.092 179.08 273.486 179.08C272.381 179.08 271.381 179.359 270.484 179.918C269.593 180.476 268.883 181.299 268.354 182.386C267.831 183.473 267.57 184.806 267.57 186.386C267.57 187.966 267.831 189.3 268.354 190.387C268.883 191.474 269.593 192.296 270.484 192.855C271.381 193.413 272.381 193.692 273.486 193.692C274.092 193.692 274.674 193.609 275.233 193.443C275.791 193.276 276.299 193.03 276.756 192.703C277.219 192.37 277.611 191.964 277.932 191.482C278.259 190.995 278.488 190.437 278.618 189.807H280.828C280.662 190.74 280.359 191.575 279.919 192.311C279.48 193.048 278.933 193.674 278.28 194.191C277.626 194.702 276.893 195.091 276.079 195.358C275.271 195.626 274.407 195.759 273.486 195.759C271.93 195.759 270.546 195.379 269.334 194.619C268.122 193.858 267.169 192.777 266.474 191.376C265.779 189.974 265.432 188.311 265.432 186.386C265.432 184.462 265.779 182.798 266.474 181.397C267.169 179.995 268.122 178.914 269.334 178.153C270.546 177.393 271.93 177.013 273.486 177.013C274.407 177.013 275.271 177.147 276.079 177.414C276.893 177.681 277.626 178.073 278.28 178.59C278.933 179.101 279.48 179.724 279.919 180.461C280.359 181.192 280.662 182.026 280.828 182.965Z" fill="#010103"/>
<path d="M284.398 195.51V177.262H295.411V179.223H286.608V185.388H294.841V187.348H286.608V193.55H295.554V195.51H284.398Z" fill="#010103"/>
</svg>
