<svg width="13" height="15" viewBox="0 0 13 15" fill="none" xmlns="http://www.w3.org/2000/svg">
<g clip-path="url(#clip0_415_779)">
<path d="M5.3102 7.50143L0.247122 2.43819C-0.0823741 2.10885 -0.0823741 1.57635 0.247122 1.24701C0.576465 0.917664 1.10897 0.917664 1.43831 1.24701L6.50154 6.31024L11.5646 1.24701C11.8941 0.917664 12.4265 0.917664 12.7558 1.24701C13.0853 1.57635 13.0853 2.10885 12.7558 2.43819L7.69273 7.50143L12.7558 12.5647C13.0853 12.894 13.0853 13.4265 12.7558 13.7558C12.5917 13.9201 12.3759 14.0027 12.1602 14.0027C11.9446 14.0027 11.7289 13.9201 11.5646 13.7558L6.50154 8.69261L1.43831 13.7558C1.27402 13.9201 1.05837 14.0027 0.842715 14.0027C0.627062 14.0027 0.411408 13.9201 0.247122 13.7558C-0.0823741 13.4265 -0.0823741 12.894 0.247122 12.5647L5.3102 7.50143Z" fill="black"/>
</g>
<defs>
<clipPath id="clip0_415_779">
<rect width="13" height="15" fill="white"/>
</clipPath>
</defs>
</svg>
