<svg width="86" height="86" viewBox="0 0 86 86" fill="none" xmlns="http://www.w3.org/2000/svg">
<path opacity="0.35" d="M43 65C55.1503 65 65 55.1503 65 43C65 30.8497 55.1503 21 43 21C30.8497 21 21 30.8497 21 43C21 55.1503 30.8497 65 43 65Z" fill="#4A3AFF"/>
<rect opacity="0.1" x="0.351288" y="0.351288" width="85.2974" height="85.2974" fill="#4A3AFF" stroke="#4A3AFF" stroke-width="0.702576"/>
<path d="M51.5924 37.343L49.4907 35.2413C49.414 35.1629 49.3211 35.1021 49.2186 35.063C49.011 34.979 48.7789 34.979 48.5712 35.063C48.4718 35.1079 48.38 35.1681 48.2991 35.2413L39.5545 44.0046L37.5279 41.978C37.4515 41.8969 37.3587 41.8329 37.2558 41.7903C37.0482 41.7063 36.816 41.7063 36.6084 41.7903C36.5055 41.8329 36.4127 41.8969 36.3363 41.978L34.244 44.0703C34.0916 44.2299 34.0045 44.4408 34 44.6614C33.9991 44.7726 34.0202 44.8829 34.0621 44.986C34.104 45.089 34.1658 45.1828 34.244 45.2619L38.9353 49.9532C39.0121 50.0316 39.1049 50.0924 39.2074 50.1315C39.3076 50.1765 39.4165 50.1989 39.5264 50.1972C39.6364 50.2009 39.7458 50.1784 39.8454 50.1315C39.9507 50.0925 40.0467 50.0318 40.1269 49.9532L51.5924 38.5158C51.7433 38.3597 51.8274 38.1511 51.827 37.9341C51.8279 37.7142 51.7438 37.5024 51.5924 37.343V37.343Z" fill="#4A3AFF"/>
</svg>
