<svg width="32" height="32" viewBox="0 0 32 32" fill="none" xmlns="http://www.w3.org/2000/svg">
<path d="M21.9388 11.3546L18.8844 17.4545H16.2421C17.2717 15.4026 18.2851 13.382 19.3107 11.3396H14.9409L11.8716 17.4694H9.23198L10.4849 14.958H6.04933C5.63665 15.782 5.21854 16.6155 4.80044 17.4524H2.15332L6.40092 9H30.1306L25.9027 17.4531H23.2624L26.3167 11.3546H21.9388ZM12.3067 11.3362H7.85955C7.59484 11.8657 7.33013 12.3971 7.04981 12.9585H11.4942L12.3067 11.3362Z" fill="white"/>
<path d="M2.15724 19.8658H2L2.45477 18.6273H2.60959L3.06436 19.8658H2.90713L2.53702 18.8232H2.52734L2.15724 19.8658ZM2.21529 19.382H2.84907V19.515H2.21529V19.382Z" fill="white"/>
<path d="M3.25728 18.6273H3.43628L3.85719 19.6553H3.8717L4.29261 18.6273H4.47162V19.8658H4.33131V18.9248H4.31922L3.93218 19.8658H3.79671L3.40967 18.9248H3.39758V19.8658H3.25728V18.6273Z" fill="white"/>
<path d="M6.09794 19.0143C6.08464 18.9736 6.0671 18.9371 6.04533 18.9048C6.02396 18.8722 5.99836 18.8444 5.96853 18.8214C5.93909 18.7984 5.90563 18.7809 5.86814 18.7688C5.83064 18.7567 5.78952 18.7506 5.74477 18.7506C5.67139 18.7506 5.60467 18.7696 5.54459 18.8075C5.48452 18.8454 5.43675 18.9012 5.40127 18.975C5.36579 19.0488 5.34805 19.1393 5.34805 19.2465C5.34805 19.3538 5.36599 19.4443 5.40187 19.5181C5.43776 19.5918 5.48634 19.6477 5.54762 19.6856C5.6089 19.7235 5.67784 19.7424 5.75444 19.7424C5.8254 19.7424 5.88789 19.7273 5.94192 19.6971C5.99634 19.6664 6.03868 19.6233 6.06891 19.5677C6.09955 19.5116 6.11487 19.4457 6.11487 19.3699L6.16084 19.3796H5.78831V19.2465H6.26001V19.3796C6.26001 19.4816 6.23824 19.5703 6.1947 19.6457C6.15156 19.7211 6.09189 19.7795 6.0157 19.821C5.9399 19.8622 5.85282 19.8827 5.75444 19.8827C5.64478 19.8827 5.54842 19.8569 5.46537 19.8053C5.38272 19.7537 5.31822 19.6803 5.27185 19.5852C5.22589 19.49 5.20291 19.3772 5.20291 19.2465C5.20291 19.1486 5.21601 19.0605 5.24222 18.9823C5.26883 18.9036 5.30632 18.8367 5.3547 18.7815C5.40308 18.7262 5.46033 18.6839 5.52645 18.6545C5.59257 18.6251 5.66534 18.6103 5.74477 18.6103C5.81008 18.6103 5.87096 18.6202 5.9274 18.64C5.98425 18.6593 6.03485 18.6869 6.07919 18.7228C6.12395 18.7583 6.16124 18.8008 6.19107 18.8504C6.22091 18.8996 6.24147 18.9542 6.25276 19.0143H6.09794Z" fill="white"/>
<path d="M6.52943 19.8658H6.3722L6.82697 18.6273H6.98179L7.43656 19.8658H7.27932L6.90921 18.8232H6.89954L6.52943 19.8658ZM6.58749 19.382H7.22127V19.515H6.58749V19.382Z" fill="white"/>
<path d="M7.62947 19.8658V18.6273H8.04796C8.14472 18.6273 8.22414 18.6438 8.28623 18.6769C8.34832 18.7095 8.39428 18.7545 8.42412 18.8117C8.45395 18.869 8.46887 18.9341 8.46887 19.0071C8.46887 19.08 8.45395 19.1447 8.42412 19.2012C8.39428 19.2576 8.34852 19.302 8.28684 19.3342C8.22515 19.3661 8.14633 19.382 8.05038 19.382H7.71172V19.2465H8.04554C8.11166 19.2465 8.16488 19.2369 8.2052 19.2175C8.24592 19.1982 8.27535 19.1707 8.29349 19.1353C8.31204 19.0994 8.32131 19.0566 8.32131 19.0071C8.32131 18.9575 8.31204 18.9141 8.29349 18.877C8.27494 18.8399 8.24531 18.8113 8.20459 18.7912C8.16387 18.7706 8.11005 18.7603 8.04312 18.7603H7.77945V19.8658H7.62947ZM8.21245 19.3094L8.51725 19.8658H8.34308L8.04312 19.3094H8.21245Z" fill="white"/>
<path d="M8.76958 19.8658H8.61234L9.06712 18.6273H9.22193L9.6767 19.8658H9.51947L9.14936 18.8232H9.13969L8.76958 19.8658ZM8.82763 19.382H9.46141V19.515H8.82763V19.382Z" fill="white"/>
<path d="M10.6581 19.0143C10.6448 18.9736 10.6272 18.9371 10.6055 18.9048C10.5841 18.8722 10.5585 18.8444 10.5286 18.8214C10.4992 18.7984 10.4658 18.7809 10.4283 18.7688C10.3908 18.7567 10.3496 18.7506 10.3049 18.7506C10.2315 18.7506 10.1648 18.7696 10.1047 18.8075C10.0446 18.8454 9.99687 18.9012 9.96139 18.975C9.92591 19.0488 9.90817 19.1393 9.90817 19.2465C9.90817 19.3538 9.92611 19.4443 9.962 19.5181C9.99788 19.5918 10.0465 19.6477 10.1077 19.6856C10.169 19.7235 10.238 19.7424 10.3146 19.7424C10.3855 19.7424 10.448 19.7273 10.502 19.6971C10.5565 19.6664 10.5988 19.6233 10.629 19.5677C10.6597 19.5116 10.675 19.4457 10.675 19.3699L10.721 19.3796H10.3484V19.2465H10.8201V19.3796C10.8201 19.4816 10.7984 19.5703 10.7548 19.6457C10.7117 19.7211 10.652 19.7795 10.5758 19.821C10.5 19.8622 10.4129 19.8827 10.3146 19.8827C10.2049 19.8827 10.1085 19.8569 10.0255 19.8053C9.94285 19.7537 9.87834 19.6803 9.83198 19.5852C9.78601 19.49 9.76303 19.3772 9.76303 19.2465C9.76303 19.1486 9.77614 19.0605 9.80234 18.9823C9.82895 18.9036 9.86645 18.8367 9.91483 18.7815C9.96321 18.7262 10.0205 18.6839 10.0866 18.6545C10.1527 18.6251 10.2255 18.6103 10.3049 18.6103C10.3702 18.6103 10.4311 18.6202 10.4875 18.64C10.5444 18.6593 10.595 18.6869 10.6393 18.7228C10.6841 18.7583 10.7214 18.8008 10.7512 18.8504C10.781 18.8996 10.8016 18.9542 10.8129 19.0143H10.6581Z" fill="white"/>
<path d="M11.077 19.8658V18.6273H11.8245V18.7603H11.227V19.1788H11.7858V19.3118H11.227V19.7328H11.8342V19.8658H11.077Z" fill="white"/>
<path d="M2.15724 19.8658H2L2.45477 18.6273H2.60959L3.06436 19.8658H2.90713L2.53702 18.8232H2.52734L2.15724 19.8658ZM2.21529 19.382H2.84907V19.515H2.21529V19.382Z" stroke="white"/>
<path d="M3.25728 18.6273H3.43628L3.85719 19.6553H3.8717L4.29261 18.6273H4.47162V19.8658H4.33131V18.9248H4.31922L3.93218 19.8658H3.79671L3.40967 18.9248H3.39758V19.8658H3.25728V18.6273Z" stroke="white"/>
<path d="M6.09794 19.0143C6.08464 18.9736 6.0671 18.9371 6.04533 18.9048C6.02396 18.8722 5.99836 18.8444 5.96853 18.8214C5.93909 18.7984 5.90563 18.7809 5.86814 18.7688C5.83064 18.7567 5.78952 18.7506 5.74477 18.7506C5.67139 18.7506 5.60467 18.7696 5.54459 18.8075C5.48452 18.8454 5.43675 18.9012 5.40127 18.975C5.36579 19.0488 5.34805 19.1393 5.34805 19.2465C5.34805 19.3538 5.36599 19.4443 5.40187 19.5181C5.43776 19.5918 5.48634 19.6477 5.54762 19.6856C5.6089 19.7235 5.67784 19.7424 5.75444 19.7424C5.8254 19.7424 5.88789 19.7273 5.94192 19.6971C5.99634 19.6664 6.03868 19.6233 6.06891 19.5677C6.09955 19.5116 6.11487 19.4457 6.11487 19.3699L6.16084 19.3796H5.78831V19.2465H6.26001V19.3796C6.26001 19.4816 6.23824 19.5703 6.1947 19.6457C6.15156 19.7211 6.09189 19.7795 6.0157 19.821C5.9399 19.8622 5.85282 19.8827 5.75444 19.8827C5.64478 19.8827 5.54842 19.8569 5.46537 19.8053C5.38272 19.7537 5.31822 19.6803 5.27185 19.5852C5.22589 19.49 5.20291 19.3772 5.20291 19.2465C5.20291 19.1486 5.21601 19.0605 5.24222 18.9823C5.26883 18.9036 5.30632 18.8367 5.3547 18.7815C5.40308 18.7262 5.46033 18.6839 5.52645 18.6545C5.59257 18.6251 5.66534 18.6103 5.74477 18.6103C5.81008 18.6103 5.87096 18.6202 5.9274 18.64C5.98425 18.6593 6.03485 18.6869 6.07919 18.7228C6.12395 18.7583 6.16124 18.8008 6.19107 18.8504C6.22091 18.8996 6.24147 18.9542 6.25276 19.0143H6.09794Z" stroke="white"/>
<path d="M6.52943 19.8658H6.3722L6.82697 18.6273H6.98179L7.43656 19.8658H7.27932L6.90921 18.8232H6.89954L6.52943 19.8658ZM6.58749 19.382H7.22127V19.515H6.58749V19.382Z" stroke="white"/>
<path d="M7.62947 19.8658V18.6273H8.04796C8.14472 18.6273 8.22414 18.6438 8.28623 18.6769C8.34832 18.7095 8.39428 18.7545 8.42412 18.8117C8.45395 18.869 8.46887 18.9341 8.46887 19.0071C8.46887 19.08 8.45395 19.1447 8.42412 19.2012C8.39428 19.2576 8.34852 19.302 8.28684 19.3342C8.22515 19.3661 8.14633 19.382 8.05038 19.382H7.71172V19.2465H8.04554C8.11166 19.2465 8.16488 19.2369 8.2052 19.2175C8.24592 19.1982 8.27535 19.1707 8.29349 19.1353C8.31204 19.0994 8.32131 19.0566 8.32131 19.0071C8.32131 18.9575 8.31204 18.9141 8.29349 18.877C8.27494 18.8399 8.24531 18.8113 8.20459 18.7912C8.16387 18.7706 8.11005 18.7603 8.04312 18.7603H7.77945V19.8658H7.62947ZM8.21245 19.3094L8.51725 19.8658H8.34308L8.04312 19.3094H8.21245Z" stroke="white"/>
<path d="M8.76958 19.8658H8.61234L9.06712 18.6273H9.22193L9.6767 19.8658H9.51947L9.14936 18.8232H9.13969L8.76958 19.8658ZM8.82763 19.382H9.46141V19.515H8.82763V19.382Z" stroke="white"/>
<path d="M10.6581 19.0143C10.6448 18.9736 10.6272 18.9371 10.6055 18.9048C10.5841 18.8722 10.5585 18.8444 10.5286 18.8214C10.4992 18.7984 10.4658 18.7809 10.4283 18.7688C10.3908 18.7567 10.3496 18.7506 10.3049 18.7506C10.2315 18.7506 10.1648 18.7696 10.1047 18.8075C10.0446 18.8454 9.99687 18.9012 9.96139 18.975C9.92591 19.0488 9.90817 19.1393 9.90817 19.2465C9.90817 19.3538 9.92611 19.4443 9.962 19.5181C9.99788 19.5918 10.0465 19.6477 10.1077 19.6856C10.169 19.7235 10.238 19.7424 10.3146 19.7424C10.3855 19.7424 10.448 19.7273 10.502 19.6971C10.5565 19.6664 10.5988 19.6233 10.629 19.5677C10.6597 19.5116 10.675 19.4457 10.675 19.3699L10.721 19.3796H10.3484V19.2465H10.8201V19.3796C10.8201 19.4816 10.7984 19.5703 10.7548 19.6457C10.7117 19.7211 10.652 19.7795 10.5758 19.821C10.5 19.8622 10.4129 19.8827 10.3146 19.8827C10.2049 19.8827 10.1085 19.8569 10.0255 19.8053C9.94285 19.7537 9.87834 19.6803 9.83198 19.5852C9.78601 19.49 9.76303 19.3772 9.76303 19.2465C9.76303 19.1486 9.77614 19.0605 9.80234 18.9823C9.82895 18.9036 9.86645 18.8367 9.91483 18.7815C9.96321 18.7262 10.0205 18.6839 10.0866 18.6545C10.1527 18.6251 10.2255 18.6103 10.3049 18.6103C10.3702 18.6103 10.4311 18.6202 10.4875 18.64C10.5444 18.6593 10.595 18.6869 10.6393 18.7228C10.6841 18.7583 10.7214 18.8008 10.7512 18.8504C10.781 18.8996 10.8016 18.9542 10.8129 19.0143H10.6581Z" stroke="white"/>
<path d="M11.077 19.8658V18.6273H11.8245V18.7603H11.227V19.1788H11.7858V19.3118H11.227V19.7328H11.8342V19.8658H11.077Z" stroke="white"/>
<path d="M2.48865 22.2703H2.10645V21.0318H2.50558C2.62572 21.0318 2.72853 21.0566 2.814 21.1062C2.89948 21.1554 2.96499 21.2261 3.01055 21.3184C3.05611 21.4104 3.07888 21.5204 3.07888 21.6486C3.07888 21.7776 3.0559 21.8887 3.00994 21.9818C2.96398 22.0746 2.89706 22.1459 2.80917 22.1959C2.72128 22.2455 2.61444 22.2703 2.48865 22.2703ZM2.25642 22.1373H2.47897C2.58138 22.1373 2.66624 22.1175 2.73357 22.078C2.8009 22.0385 2.85109 21.9822 2.88415 21.9093C2.91721 21.8363 2.93374 21.7494 2.93374 21.6486C2.93374 21.5486 2.91742 21.4626 2.88476 21.3904C2.8521 21.3178 2.80332 21.2622 2.73841 21.2235C2.6735 21.1844 2.59266 21.1648 2.4959 21.1648H2.25642V22.1373Z" fill="white"/>
<path d="M3.33046 22.2703V21.0318H3.74895C3.84571 21.0318 3.92513 21.0483 3.98722 21.0814C4.04931 21.114 4.09527 21.159 4.1251 21.2162C4.15494 21.2735 4.16985 21.3386 4.16985 21.4116C4.16985 21.4845 4.15494 21.5492 4.1251 21.6057C4.09527 21.6621 4.04951 21.7065 3.98782 21.7387C3.92614 21.7706 3.84732 21.7865 3.75137 21.7865H3.41271V21.651H3.74653C3.81265 21.651 3.86587 21.6414 3.90618 21.622C3.9469 21.6027 3.97633 21.5752 3.99448 21.5398C4.01302 21.5039 4.0223 21.4612 4.0223 21.4116C4.0223 21.362 4.01302 21.3186 3.99448 21.2815C3.97593 21.2445 3.9463 21.2158 3.90558 21.1957C3.86486 21.1751 3.81104 21.1648 3.74411 21.1648H3.48044V22.2703H3.33046ZM3.91344 21.7139L4.21823 22.2703H4.04407L3.74411 21.7139H3.91344Z" fill="white"/>
<path d="M4.56975 21.0318V22.2703H4.41977V21.0318H4.56975Z" fill="white"/>
<path d="M4.92126 21.0318L5.28895 22.0744H5.30346L5.67115 21.0318H5.82838L5.37361 22.2703H5.21879L4.76402 21.0318H4.92126Z" fill="white"/>
<path d="M6.17128 21.0318V22.2703H6.0213V21.0318H6.17128Z" fill="white"/>
<path d="M7.4541 21.0318V22.2703H7.30896L6.63406 21.2979H6.62197V22.2703H6.47199V21.0318H6.61713L7.29445 22.0066H7.30655V21.0318H7.4541Z" fill="white"/>
<path d="M8.60086 21.4188C8.58756 21.3781 8.57002 21.3416 8.54825 21.3094C8.52688 21.2767 8.50128 21.2489 8.47145 21.2259C8.44201 21.2029 8.40855 21.1854 8.37106 21.1733C8.33356 21.1612 8.29244 21.1551 8.24769 21.1551C8.17431 21.1551 8.10759 21.1741 8.04752 21.212C7.98744 21.2499 7.93967 21.3057 7.90419 21.3795C7.86871 21.4533 7.85097 21.5438 7.85097 21.651C7.85097 21.7583 7.86891 21.8488 7.90479 21.9226C7.94068 21.9964 7.98926 22.0522 8.05054 22.0901C8.11182 22.128 8.18076 22.1469 8.25736 22.1469C8.32832 22.1469 8.39081 22.1318 8.44484 22.1016C8.49926 22.0709 8.5416 22.0278 8.57183 21.9722C8.60248 21.9161 8.6178 21.8502 8.6178 21.7744L8.66376 21.7841H8.29123V21.651H8.76294V21.7841C8.76294 21.8861 8.74117 21.9748 8.69762 22.0502C8.65448 22.1256 8.59482 22.184 8.51862 22.2256C8.44282 22.2667 8.35574 22.2872 8.25736 22.2872C8.1477 22.2872 8.05135 22.2614 7.96829 22.2098C7.88564 22.1582 7.82114 22.0849 7.77477 21.9897C7.72881 21.8946 7.70583 21.7817 7.70583 21.651C7.70583 21.5531 7.71893 21.465 7.74514 21.3868C7.77175 21.3082 7.80924 21.2412 7.85762 21.186C7.906 21.1308 7.96325 21.0884 8.02937 21.059C8.09549 21.0296 8.16826 21.0148 8.24769 21.0148C8.313 21.0148 8.37388 21.0247 8.43032 21.0445C8.48717 21.0638 8.53777 21.0914 8.58212 21.1273C8.62687 21.1628 8.66416 21.2053 8.69399 21.2549C8.72383 21.3041 8.74439 21.3587 8.75568 21.4188H8.60086Z" fill="white"/>
<path d="M9.49877 22.2703V21.0318H9.91725C10.0144 21.0318 10.0938 21.0493 10.1555 21.0844C10.2176 21.1191 10.2636 21.166 10.2934 21.2253C10.3232 21.2846 10.3382 21.3507 10.3382 21.4237C10.3382 21.4966 10.3232 21.563 10.2934 21.6226C10.264 21.6823 10.2184 21.7299 10.1567 21.7653C10.0951 21.8004 10.016 21.818 9.91967 21.818H9.61972V21.6849H9.91483C9.98136 21.6849 10.0348 21.6734 10.0751 21.6504C10.1154 21.6275 10.1446 21.5964 10.1628 21.5573C10.1813 21.5178 10.1906 21.4732 10.1906 21.4237C10.1906 21.3741 10.1813 21.3297 10.1628 21.2906C10.1446 21.2515 10.1152 21.2209 10.0745 21.1987C10.0338 21.1761 9.97974 21.1648 9.91242 21.1648H9.64874V22.2703H9.49877Z" fill="white"/>
<path d="M10.5798 22.2703V21.0318H11.3272V21.1648H10.7297V21.5833H11.2885V21.7164H10.7297V22.1373H11.3369V22.2703H10.5798Z" fill="white"/>
<path d="M11.5976 22.2703V21.0318H12.016C12.1128 21.0318 12.1922 21.0483 12.2543 21.0814C12.3164 21.114 12.3624 21.159 12.3922 21.2162C12.422 21.2735 12.4369 21.3386 12.4369 21.4116C12.4369 21.4845 12.422 21.5492 12.3922 21.6057C12.3624 21.6621 12.3166 21.7065 12.2549 21.7387C12.1932 21.7706 12.1144 21.7865 12.0185 21.7865H11.6798V21.651H12.0136C12.0797 21.651 12.133 21.6414 12.1733 21.622C12.214 21.6027 12.2434 21.5752 12.2616 21.5398C12.2801 21.5039 12.2894 21.4612 12.2894 21.4116C12.2894 21.362 12.2801 21.3186 12.2616 21.2815C12.243 21.2445 12.2134 21.2158 12.1727 21.1957C12.132 21.1751 12.0781 21.1648 12.0112 21.1648H11.7475V22.2703H11.5976ZM12.1805 21.7139L12.4853 22.2703H12.3112L12.0112 21.7139H12.1805Z" fill="white"/>
<path d="M12.6869 22.2703V21.0318H13.4295V21.1648H12.8368V21.5833H13.3739V21.7164H12.8368V22.2703H12.6869Z" fill="white"/>
<path d="M14.7314 21.651C14.7314 21.7817 14.7078 21.8946 14.6606 21.9897C14.6134 22.0849 14.5487 22.1582 14.4665 22.2098C14.3842 22.2614 14.2903 22.2872 14.1847 22.2872C14.079 22.2872 13.9851 22.2614 13.9029 22.2098C13.8206 22.1582 13.7559 22.0849 13.7087 21.9897C13.6616 21.8946 13.638 21.7817 13.638 21.651C13.638 21.5204 13.6616 21.4075 13.7087 21.3124C13.7559 21.2172 13.8206 21.1439 13.9029 21.0923C13.9851 21.0406 14.079 21.0148 14.1847 21.0148C14.2903 21.0148 14.3842 21.0406 14.4665 21.0923C14.5487 21.1439 14.6134 21.2172 14.6606 21.3124C14.7078 21.4075 14.7314 21.5204 14.7314 21.651ZM14.5862 21.651C14.5862 21.5438 14.5683 21.4533 14.5324 21.3795C14.4969 21.3057 14.4488 21.2499 14.3879 21.212C14.3274 21.1741 14.2597 21.1551 14.1847 21.1551C14.1097 21.1551 14.0418 21.1741 13.9809 21.212C13.9204 21.2499 13.8722 21.3057 13.8363 21.3795C13.8009 21.4533 13.7831 21.5438 13.7831 21.651C13.7831 21.7583 13.8009 21.8488 13.8363 21.9226C13.8722 21.9964 13.9204 22.0522 13.9809 22.0901C14.0418 22.128 14.1097 22.1469 14.1847 22.1469C14.2597 22.1469 14.3274 22.128 14.3879 22.0901C14.4488 22.0522 14.4969 21.9964 14.5324 21.9226C14.5683 21.8488 14.5862 21.7583 14.5862 21.651Z" fill="white"/>
<path d="M14.9836 22.2703V21.0318H15.402C15.4988 21.0318 15.5782 21.0483 15.6403 21.0814C15.7024 21.114 15.7484 21.159 15.7782 21.2162C15.808 21.2735 15.8229 21.3386 15.8229 21.4116C15.8229 21.4845 15.808 21.5492 15.7782 21.6057C15.7484 21.6621 15.7026 21.7065 15.6409 21.7387C15.5792 21.7706 15.5004 21.7865 15.4045 21.7865H15.0658V21.651H15.3996C15.4657 21.651 15.519 21.6414 15.5593 21.622C15.6 21.6027 15.6294 21.5752 15.6476 21.5398C15.6661 21.5039 15.6754 21.4612 15.6754 21.4116C15.6754 21.362 15.6661 21.3186 15.6476 21.2815C15.629 21.2445 15.5994 21.2158 15.5587 21.1957C15.518 21.1751 15.4641 21.1648 15.3972 21.1648H15.1335V22.2703H14.9836ZM15.5665 21.7139L15.8713 22.2703H15.6972L15.3972 21.7139H15.5665Z" fill="white"/>
<path d="M16.0729 21.0318H16.2519L16.6728 22.0599H16.6873L17.1082 21.0318H17.2872V22.2703H17.1469V21.3293H17.1348L16.7478 22.2703H16.6123L16.2253 21.3293H16.2132V22.2703H16.0729V21.0318Z" fill="white"/>
<path d="M17.6387 22.2703H17.4815L17.9362 21.0318H18.0911L18.5458 22.2703H18.3886L18.0185 21.2277H18.0088L17.6387 22.2703ZM17.6968 21.7865H18.3305V21.9196H17.6968V21.7865Z" fill="white"/>
<path d="M19.7209 21.0318V22.2703H19.5757L18.9008 21.2979H18.8887V22.2703H18.7388V21.0318H18.8839L19.5612 22.0066H19.5733V21.0318H19.7209Z" fill="white"/>
<path d="M21.0176 21.4188H20.8676C20.8588 21.3757 20.8432 21.3378 20.8211 21.3051C20.7993 21.2725 20.7727 21.2451 20.7412 21.2229C20.7102 21.2003 20.6757 21.1834 20.6378 21.1721C20.5999 21.1608 20.5604 21.1551 20.5193 21.1551C20.4443 21.1551 20.3764 21.1741 20.3155 21.212C20.255 21.2499 20.2068 21.3057 20.171 21.3795C20.1355 21.4533 20.1177 21.5438 20.1177 21.651C20.1177 21.7583 20.1355 21.8488 20.171 21.9226C20.2068 21.9964 20.255 22.0522 20.3155 22.0901C20.3764 22.128 20.4443 22.1469 20.5193 22.1469C20.5604 22.1469 20.5999 22.1413 20.6378 22.13C20.6757 22.1187 20.7102 22.102 20.7412 22.0798C20.7727 22.0572 20.7993 22.0296 20.8211 21.997C20.8432 21.9639 20.8588 21.926 20.8676 21.8833H21.0176C21.0063 21.9466 20.9858 22.0032 20.9559 22.0532C20.9261 22.1032 20.889 22.1457 20.8446 22.1808C20.8003 22.2155 20.7505 22.2419 20.6953 22.26C20.6404 22.2782 20.5818 22.2872 20.5193 22.2872C20.4137 22.2872 20.3197 22.2614 20.2375 22.2098C20.1552 22.1582 20.0905 22.0849 20.0434 21.9897C19.9962 21.8946 19.9726 21.7817 19.9726 21.651C19.9726 21.5204 19.9962 21.4075 20.0434 21.3124C20.0905 21.2172 20.1552 21.1439 20.2375 21.0923C20.3197 21.0406 20.4137 21.0148 20.5193 21.0148C20.5818 21.0148 20.6404 21.0239 20.6953 21.0421C20.7505 21.0602 20.8003 21.0868 20.8446 21.1219C20.889 21.1566 20.9261 21.1989 20.9559 21.2489C20.9858 21.2985 21.0063 21.3551 21.0176 21.4188Z" fill="white"/>
<path d="M21.26 22.2703V21.0318H22.0074V21.1648H21.4099V21.5833H21.9687V21.7164H21.4099V22.1373H22.0171V22.2703H21.26Z" fill="white"/>
</svg>
