<svg width="256" height="256" viewBox="0 0 256 256" fill="none" xmlns="http://www.w3.org/2000/svg">
<path d="M173.61 94.2579L149.925 141.558H129.436C137.42 125.647 145.278 109.979 153.231 94.1421H119.346L95.5464 141.674H75.078L84.7938 122.2H50.399C47.199 128.59 43.9569 135.053 40.7148 141.542H20.1885L53.1254 76H237.131L204.347 141.547H183.873L207.557 94.2579H173.61ZM98.9201 94.1158H64.4359C62.3833 98.2211 60.3306 102.342 58.1569 106.695H92.6201L98.9201 94.1158Z" fill="white"/>
<mask id="path-3-outside-1_398_762" maskUnits="userSpaceOnUse" x="18" y="149.522" width="78" height="12" fill="black">
<rect fill="white" x="18" y="149.522" width="78" height="12"/>
<path d="M20.2192 160.257H19L22.5264 150.653H23.7269L27.2533 160.257H26.0341L23.1642 152.173H23.0891L20.2192 160.257ZM20.6694 156.506H25.5839V157.537H20.6694V156.506Z"/>
<path d="M28.7492 150.653H30.1373L33.4011 158.625H33.5136L36.7774 150.653H38.1655V160.257H37.0775V152.961H36.9837L33.9825 160.257H32.9321L29.9309 152.961H29.8371V160.257H28.7492V150.653Z"/>
<path d="M50.7764 153.655C50.6732 153.339 50.5372 153.056 50.3684 152.806C50.2027 152.553 50.0042 152.337 49.7728 152.159C49.5446 151.98 49.2851 151.844 48.9944 151.751C48.7037 151.657 48.3848 151.61 48.0378 151.61C47.4688 151.61 46.9514 151.757 46.4856 152.051C46.0198 152.345 45.6493 152.778 45.3742 153.35C45.0991 153.922 44.9615 154.624 44.9615 155.455C44.9615 156.287 45.1007 156.989 45.3789 157.561C45.6571 158.133 46.0338 158.566 46.509 158.86C46.9842 159.154 47.5188 159.301 48.1128 159.301C48.663 159.301 49.1476 159.183 49.5665 158.949C49.9886 158.711 50.3168 158.377 50.5513 157.945C50.7889 157.511 50.9077 157 50.9077 156.412L51.2641 156.487H48.3754V155.455H52.0331V156.487C52.0331 157.278 51.8643 157.966 51.5267 158.55C51.1922 159.135 50.7295 159.588 50.1386 159.91C49.5509 160.229 48.8756 160.389 48.1128 160.389C47.2625 160.389 46.5153 160.188 45.8713 159.788C45.2304 159.388 44.7302 158.819 44.3707 158.081C44.0143 157.344 43.8361 156.468 43.8361 155.455C43.8361 154.696 43.9377 154.013 44.1409 153.406C44.3472 152.796 44.638 152.277 45.0131 151.849C45.3883 151.421 45.8322 151.093 46.3449 150.864C46.8576 150.636 47.4219 150.522 48.0378 150.522C48.5442 150.522 49.0163 150.599 49.454 150.752C49.8948 150.902 50.2871 151.116 50.631 151.394C50.978 151.669 51.2672 151.999 51.4985 152.384C51.7299 152.765 51.8893 153.189 51.9768 153.655H50.7764Z"/>
<path d="M54.1222 160.257H52.903L56.4294 150.653H57.6299L61.1563 160.257H59.9371L57.0672 152.173H56.9921L54.1222 160.257ZM54.5724 156.506H59.4869V157.537H54.5724V156.506Z"/>
<path d="M62.6522 160.257V150.653H65.8973C66.6476 150.653 67.2634 150.782 67.7449 151.038C68.2263 151.291 68.5827 151.64 68.814 152.084C69.0454 152.528 69.1611 153.032 69.1611 153.598C69.1611 154.164 69.0454 154.666 68.814 155.104C68.5827 155.541 68.2279 155.885 67.7496 156.135C67.2712 156.382 66.6601 156.506 65.916 156.506H63.29V155.455H65.8785C66.3912 155.455 66.8039 155.38 67.1165 155.23C67.4322 155.08 67.6605 154.868 67.8011 154.592C67.9449 154.314 68.0168 153.983 68.0168 153.598C68.0168 153.214 67.9449 152.878 67.8011 152.59C67.6573 152.302 67.4276 152.08 67.1118 151.924C66.7961 151.765 66.3787 151.685 65.8597 151.685H63.8152V160.257H62.6522ZM67.1728 155.943L69.5362 160.257H68.1857L65.8597 155.943H67.1728Z"/>
<path d="M71.4928 160.257H70.2736L73.8 150.653H75.0005L78.5269 160.257H77.3077L74.4378 152.173H74.3627L71.4928 160.257ZM71.943 156.506H76.8575V157.537H71.943V156.506Z"/>
<path d="M86.1366 153.655C86.0334 153.339 85.8974 153.056 85.7286 152.806C85.5629 152.553 85.3644 152.337 85.1331 152.159C84.9048 151.98 84.6454 151.844 84.3546 151.751C84.0639 151.657 83.745 151.61 83.398 151.61C82.829 151.61 82.3116 151.757 81.8458 152.051C81.38 152.345 81.0095 152.778 80.7344 153.35C80.4593 153.922 80.3218 154.624 80.3218 155.455C80.3218 156.287 80.4609 156.989 80.7391 157.561C81.0174 158.133 81.3941 158.566 81.8693 158.86C82.3444 159.154 82.879 159.301 83.473 159.301C84.0232 159.301 84.5078 159.183 84.9267 158.949C85.3488 158.711 85.677 158.377 85.9115 157.945C86.1491 157.511 86.2679 157 86.2679 156.412L86.6243 156.487H83.7356V155.455H87.3933V156.487C87.3933 157.278 87.2245 157.966 86.8869 158.55C86.5524 159.135 86.0897 159.588 85.4988 159.91C84.9111 160.229 84.2358 160.389 83.473 160.389C82.6227 160.389 81.8755 160.188 81.2315 159.788C80.5906 159.388 80.0904 158.819 79.7309 158.081C79.3745 157.344 79.1963 156.468 79.1963 155.455C79.1963 154.696 79.2979 154.013 79.5011 153.406C79.7075 152.796 79.9982 152.277 80.3733 151.849C80.7485 151.421 81.1924 151.093 81.7051 150.864C82.2178 150.636 82.7821 150.522 83.398 150.522C83.9044 150.522 84.3765 150.599 84.8142 150.752C85.255 150.902 85.6473 151.116 85.9912 151.394C86.3382 151.669 86.6274 151.999 86.8587 152.384C87.0901 152.765 87.2495 153.189 87.3371 153.655H86.1366Z"/>
<path d="M89.3851 160.257V150.653H95.1812V151.685H90.5481V154.93H94.8811V155.962H90.5481V159.226H95.2562V160.257H89.3851Z"/>
</mask>
<path d="M20.2192 160.257H19L22.5264 150.653H23.7269L27.2533 160.257H26.0341L23.1642 152.173H23.0891L20.2192 160.257ZM20.6694 156.506H25.5839V157.537H20.6694V156.506Z" fill="white"/>
<path d="M28.7492 150.653H30.1373L33.4011 158.625H33.5136L36.7774 150.653H38.1655V160.257H37.0775V152.961H36.9837L33.9825 160.257H32.9321L29.9309 152.961H29.8371V160.257H28.7492V150.653Z" fill="white"/>
<path d="M50.7764 153.655C50.6732 153.339 50.5372 153.056 50.3684 152.806C50.2027 152.553 50.0042 152.337 49.7728 152.159C49.5446 151.98 49.2851 151.844 48.9944 151.751C48.7037 151.657 48.3848 151.61 48.0378 151.61C47.4688 151.61 46.9514 151.757 46.4856 152.051C46.0198 152.345 45.6493 152.778 45.3742 153.35C45.0991 153.922 44.9615 154.624 44.9615 155.455C44.9615 156.287 45.1007 156.989 45.3789 157.561C45.6571 158.133 46.0338 158.566 46.509 158.86C46.9842 159.154 47.5188 159.301 48.1128 159.301C48.663 159.301 49.1476 159.183 49.5665 158.949C49.9886 158.711 50.3168 158.377 50.5513 157.945C50.7889 157.511 50.9077 157 50.9077 156.412L51.2641 156.487H48.3754V155.455H52.0331V156.487C52.0331 157.278 51.8643 157.966 51.5267 158.55C51.1922 159.135 50.7295 159.588 50.1386 159.91C49.5509 160.229 48.8756 160.389 48.1128 160.389C47.2625 160.389 46.5153 160.188 45.8713 159.788C45.2304 159.388 44.7302 158.819 44.3707 158.081C44.0143 157.344 43.8361 156.468 43.8361 155.455C43.8361 154.696 43.9377 154.013 44.1409 153.406C44.3472 152.796 44.638 152.277 45.0131 151.849C45.3883 151.421 45.8322 151.093 46.3449 150.864C46.8576 150.636 47.4219 150.522 48.0378 150.522C48.5442 150.522 49.0163 150.599 49.454 150.752C49.8948 150.902 50.2871 151.116 50.631 151.394C50.978 151.669 51.2672 151.999 51.4985 152.384C51.7299 152.765 51.8893 153.189 51.9768 153.655H50.7764Z" fill="white"/>
<path d="M54.1222 160.257H52.903L56.4294 150.653H57.6299L61.1563 160.257H59.9371L57.0672 152.173H56.9921L54.1222 160.257ZM54.5724 156.506H59.4869V157.537H54.5724V156.506Z" fill="white"/>
<path d="M62.6522 160.257V150.653H65.8973C66.6476 150.653 67.2634 150.782 67.7449 151.038C68.2263 151.291 68.5827 151.64 68.814 152.084C69.0454 152.528 69.1611 153.032 69.1611 153.598C69.1611 154.164 69.0454 154.666 68.814 155.104C68.5827 155.541 68.2279 155.885 67.7496 156.135C67.2712 156.382 66.6601 156.506 65.916 156.506H63.29V155.455H65.8785C66.3912 155.455 66.8039 155.38 67.1165 155.23C67.4322 155.08 67.6605 154.868 67.8011 154.592C67.9449 154.314 68.0168 153.983 68.0168 153.598C68.0168 153.214 67.9449 152.878 67.8011 152.59C67.6573 152.302 67.4276 152.08 67.1118 151.924C66.7961 151.765 66.3787 151.685 65.8597 151.685H63.8152V160.257H62.6522ZM67.1728 155.943L69.5362 160.257H68.1857L65.8597 155.943H67.1728Z" fill="white"/>
<path d="M71.4928 160.257H70.2736L73.8 150.653H75.0005L78.5269 160.257H77.3077L74.4378 152.173H74.3627L71.4928 160.257ZM71.943 156.506H76.8575V157.537H71.943V156.506Z" fill="white"/>
<path d="M86.1366 153.655C86.0334 153.339 85.8974 153.056 85.7286 152.806C85.5629 152.553 85.3644 152.337 85.1331 152.159C84.9048 151.98 84.6454 151.844 84.3546 151.751C84.0639 151.657 83.745 151.61 83.398 151.61C82.829 151.61 82.3116 151.757 81.8458 152.051C81.38 152.345 81.0095 152.778 80.7344 153.35C80.4593 153.922 80.3218 154.624 80.3218 155.455C80.3218 156.287 80.4609 156.989 80.7391 157.561C81.0174 158.133 81.3941 158.566 81.8693 158.86C82.3444 159.154 82.879 159.301 83.473 159.301C84.0232 159.301 84.5078 159.183 84.9267 158.949C85.3488 158.711 85.677 158.377 85.9115 157.945C86.1491 157.511 86.2679 157 86.2679 156.412L86.6243 156.487H83.7356V155.455H87.3933V156.487C87.3933 157.278 87.2245 157.966 86.8869 158.55C86.5524 159.135 86.0897 159.588 85.4988 159.91C84.9111 160.229 84.2358 160.389 83.473 160.389C82.6227 160.389 81.8755 160.188 81.2315 159.788C80.5906 159.388 80.0904 158.819 79.7309 158.081C79.3745 157.344 79.1963 156.468 79.1963 155.455C79.1963 154.696 79.2979 154.013 79.5011 153.406C79.7075 152.796 79.9982 152.277 80.3733 151.849C80.7485 151.421 81.1924 151.093 81.7051 150.864C82.2178 150.636 82.7821 150.522 83.398 150.522C83.9044 150.522 84.3765 150.599 84.8142 150.752C85.255 150.902 85.6473 151.116 85.9912 151.394C86.3382 151.669 86.6274 151.999 86.8587 152.384C87.0901 152.765 87.2495 153.189 87.3371 153.655H86.1366Z" fill="white"/>
<path d="M89.3851 160.257V150.653H95.1812V151.685H90.5481V154.93H94.8811V155.962H90.5481V159.226H95.2562V160.257H89.3851Z" fill="white"/>
<path d="M20.2192 160.257H19L22.5264 150.653H23.7269L27.2533 160.257H26.0341L23.1642 152.173H23.0891L20.2192 160.257ZM20.6694 156.506H25.5839V157.537H20.6694V156.506Z" stroke="white" stroke-width="0.8" mask="url(#path-3-outside-1_398_762)"/>
<path d="M28.7492 150.653H30.1373L33.4011 158.625H33.5136L36.7774 150.653H38.1655V160.257H37.0775V152.961H36.9837L33.9825 160.257H32.9321L29.9309 152.961H29.8371V160.257H28.7492V150.653Z" stroke="white" stroke-width="0.8" mask="url(#path-3-outside-1_398_762)"/>
<path d="M50.7764 153.655C50.6732 153.339 50.5372 153.056 50.3684 152.806C50.2027 152.553 50.0042 152.337 49.7728 152.159C49.5446 151.98 49.2851 151.844 48.9944 151.751C48.7037 151.657 48.3848 151.61 48.0378 151.61C47.4688 151.61 46.9514 151.757 46.4856 152.051C46.0198 152.345 45.6493 152.778 45.3742 153.35C45.0991 153.922 44.9615 154.624 44.9615 155.455C44.9615 156.287 45.1007 156.989 45.3789 157.561C45.6571 158.133 46.0338 158.566 46.509 158.86C46.9842 159.154 47.5188 159.301 48.1128 159.301C48.663 159.301 49.1476 159.183 49.5665 158.949C49.9886 158.711 50.3168 158.377 50.5513 157.945C50.7889 157.511 50.9077 157 50.9077 156.412L51.2641 156.487H48.3754V155.455H52.0331V156.487C52.0331 157.278 51.8643 157.966 51.5267 158.55C51.1922 159.135 50.7295 159.588 50.1386 159.91C49.5509 160.229 48.8756 160.389 48.1128 160.389C47.2625 160.389 46.5153 160.188 45.8713 159.788C45.2304 159.388 44.7302 158.819 44.3707 158.081C44.0143 157.344 43.8361 156.468 43.8361 155.455C43.8361 154.696 43.9377 154.013 44.1409 153.406C44.3472 152.796 44.638 152.277 45.0131 151.849C45.3883 151.421 45.8322 151.093 46.3449 150.864C46.8576 150.636 47.4219 150.522 48.0378 150.522C48.5442 150.522 49.0163 150.599 49.454 150.752C49.8948 150.902 50.2871 151.116 50.631 151.394C50.978 151.669 51.2672 151.999 51.4985 152.384C51.7299 152.765 51.8893 153.189 51.9768 153.655H50.7764Z" stroke="white" stroke-width="0.8" mask="url(#path-3-outside-1_398_762)"/>
<path d="M54.1222 160.257H52.903L56.4294 150.653H57.6299L61.1563 160.257H59.9371L57.0672 152.173H56.9921L54.1222 160.257ZM54.5724 156.506H59.4869V157.537H54.5724V156.506Z" stroke="white" stroke-width="0.8" mask="url(#path-3-outside-1_398_762)"/>
<path d="M62.6522 160.257V150.653H65.8973C66.6476 150.653 67.2634 150.782 67.7449 151.038C68.2263 151.291 68.5827 151.64 68.814 152.084C69.0454 152.528 69.1611 153.032 69.1611 153.598C69.1611 154.164 69.0454 154.666 68.814 155.104C68.5827 155.541 68.2279 155.885 67.7496 156.135C67.2712 156.382 66.6601 156.506 65.916 156.506H63.29V155.455H65.8785C66.3912 155.455 66.8039 155.38 67.1165 155.23C67.4322 155.08 67.6605 154.868 67.8011 154.592C67.9449 154.314 68.0168 153.983 68.0168 153.598C68.0168 153.214 67.9449 152.878 67.8011 152.59C67.6573 152.302 67.4276 152.08 67.1118 151.924C66.7961 151.765 66.3787 151.685 65.8597 151.685H63.8152V160.257H62.6522ZM67.1728 155.943L69.5362 160.257H68.1857L65.8597 155.943H67.1728Z" stroke="white" stroke-width="0.8" mask="url(#path-3-outside-1_398_762)"/>
<path d="M71.4928 160.257H70.2736L73.8 150.653H75.0005L78.5269 160.257H77.3077L74.4378 152.173H74.3627L71.4928 160.257ZM71.943 156.506H76.8575V157.537H71.943V156.506Z" stroke="white" stroke-width="0.8" mask="url(#path-3-outside-1_398_762)"/>
<path d="M86.1366 153.655C86.0334 153.339 85.8974 153.056 85.7286 152.806C85.5629 152.553 85.3644 152.337 85.1331 152.159C84.9048 151.98 84.6454 151.844 84.3546 151.751C84.0639 151.657 83.745 151.61 83.398 151.61C82.829 151.61 82.3116 151.757 81.8458 152.051C81.38 152.345 81.0095 152.778 80.7344 153.35C80.4593 153.922 80.3218 154.624 80.3218 155.455C80.3218 156.287 80.4609 156.989 80.7391 157.561C81.0174 158.133 81.3941 158.566 81.8693 158.86C82.3444 159.154 82.879 159.301 83.473 159.301C84.0232 159.301 84.5078 159.183 84.9267 158.949C85.3488 158.711 85.677 158.377 85.9115 157.945C86.1491 157.511 86.2679 157 86.2679 156.412L86.6243 156.487H83.7356V155.455H87.3933V156.487C87.3933 157.278 87.2245 157.966 86.8869 158.55C86.5524 159.135 86.0897 159.588 85.4988 159.91C84.9111 160.229 84.2358 160.389 83.473 160.389C82.6227 160.389 81.8755 160.188 81.2315 159.788C80.5906 159.388 80.0904 158.819 79.7309 158.081C79.3745 157.344 79.1963 156.468 79.1963 155.455C79.1963 154.696 79.2979 154.013 79.5011 153.406C79.7075 152.796 79.9982 152.277 80.3733 151.849C80.7485 151.421 81.1924 151.093 81.7051 150.864C82.2178 150.636 82.7821 150.522 83.398 150.522C83.9044 150.522 84.3765 150.599 84.8142 150.752C85.255 150.902 85.6473 151.116 85.9912 151.394C86.3382 151.669 86.6274 151.999 86.8587 152.384C87.0901 152.765 87.2495 153.189 87.3371 153.655H86.1366Z" stroke="white" stroke-width="0.8" mask="url(#path-3-outside-1_398_762)"/>
<path d="M89.3851 160.257V150.653H95.1812V151.685H90.5481V154.93H94.8811V155.962H90.5481V159.226H95.2562V160.257H89.3851Z" stroke="white" stroke-width="0.8" mask="url(#path-3-outside-1_398_762)"/>
<path d="M22.7889 178.9H19.8252V169.296H22.9202C23.8518 169.296 24.649 169.488 25.3118 169.872C25.9745 170.254 26.4825 170.803 26.8358 171.518C27.1891 172.231 27.3657 173.085 27.3657 174.079C27.3657 175.079 27.1875 175.941 26.8311 176.663C26.4747 177.382 25.9558 177.935 25.2742 178.323C24.5927 178.707 23.7643 178.9 22.7889 178.9ZM20.9882 177.868H22.7138C23.5079 177.868 24.166 177.715 24.6881 177.408C25.2102 177.102 25.5994 176.666 25.8557 176.1C26.1121 175.534 26.2403 174.86 26.2403 174.079C26.2403 173.304 26.1136 172.636 25.8604 172.076C25.6072 171.514 25.2289 171.082 24.7256 170.782C24.2223 170.479 23.5955 170.327 22.8452 170.327H20.9882V177.868Z" fill="white"/>
<path d="M29.3165 178.9V169.296H32.5615C33.3118 169.296 33.9277 169.424 34.4091 169.68C34.8906 169.933 35.247 170.282 35.4783 170.726C35.7097 171.17 35.8253 171.675 35.8253 172.241C35.8253 172.806 35.7097 173.308 35.4783 173.746C35.247 174.184 34.8922 174.527 34.4138 174.778C33.9355 175.025 33.3243 175.148 32.5803 175.148H29.9542V174.098H32.5428C33.0555 174.098 33.4681 174.023 33.7808 173.873C34.0965 173.722 34.3247 173.51 34.4654 173.235C34.6092 172.957 34.6811 172.625 34.6811 172.241C34.6811 171.856 34.6092 171.52 34.4654 171.232C34.3216 170.945 34.0918 170.723 33.7761 170.567C33.4603 170.407 33.043 170.327 32.524 170.327H30.4795V178.9H29.3165ZM33.837 174.585L36.2005 178.9H34.8499L32.524 174.585H33.837Z" fill="white"/>
<path d="M38.9262 169.296V178.9H37.7632V169.296H38.9262Z" fill="white"/>
<path d="M41.6519 169.296L44.503 177.38H44.6156L47.4667 169.296H48.6859L45.1595 178.9H43.9591L40.4326 169.296H41.6519Z" fill="white"/>
<path d="M51.3448 169.296V178.9H50.1819V169.296H51.3448Z" fill="white"/>
<path d="M61.2921 169.296V178.9H60.1667L54.9334 171.359H54.8396V178.9H53.6766V169.296H54.8021L60.0542 176.855H60.1479V169.296H61.2921Z" fill="white"/>
<path d="M70.1844 172.297C70.0812 171.981 69.9452 171.698 69.7764 171.448C69.6107 171.195 69.4122 170.979 69.1809 170.801C68.9526 170.623 68.6932 170.487 68.4024 170.393C68.1117 170.299 67.7928 170.252 67.4458 170.252C66.8768 170.252 66.3594 170.399 65.8936 170.693C65.4278 170.987 65.0573 171.42 64.7822 171.992C64.5071 172.564 64.3696 173.266 64.3696 174.098C64.3696 174.929 64.5087 175.631 64.7869 176.203C65.0651 176.775 65.4419 177.208 65.917 177.502C66.3922 177.796 66.9268 177.943 67.5208 177.943C68.071 177.943 68.5556 177.826 68.9745 177.591C69.3966 177.354 69.7248 177.019 69.9593 176.588C70.1969 176.153 70.3157 175.642 70.3157 175.054L70.6721 175.129H67.7834V174.098H71.4411V175.129C71.4411 175.92 71.2723 176.608 70.9347 177.193C70.6002 177.777 70.1375 178.231 69.5466 178.553C68.9589 178.871 68.2836 179.031 67.5208 179.031C66.6705 179.031 65.9233 178.831 65.2793 178.431C64.6384 178.03 64.1382 177.461 63.7787 176.724C63.4223 175.986 63.2441 175.111 63.2441 174.098C63.2441 173.338 63.3457 172.655 63.5489 172.048C63.7552 171.439 64.046 170.92 64.4211 170.491C64.7963 170.063 65.2402 169.735 65.7529 169.507C66.2656 169.278 66.8299 169.164 67.4458 169.164C67.9522 169.164 68.4243 169.241 68.862 169.394C69.3028 169.544 69.6951 169.758 70.039 170.037C70.386 170.312 70.6752 170.642 70.9065 171.026C71.1379 171.407 71.2973 171.831 71.3849 172.297H70.1844Z" fill="white"/>
<path d="M77.1469 178.9V169.296H80.392C81.1454 169.296 81.7613 169.432 82.2396 169.704C82.721 169.973 83.0774 170.337 83.3088 170.796C83.5401 171.256 83.6558 171.769 83.6558 172.334C83.6558 172.9 83.5401 173.415 83.3088 173.877C83.0805 174.34 82.7273 174.709 82.249 174.984C81.7706 175.256 81.1579 175.392 80.4107 175.392H78.0848V174.36H80.3732C80.889 174.36 81.3033 174.271 81.6159 174.093C81.9285 173.915 82.1552 173.674 82.2959 173.371C82.4397 173.064 82.5116 172.719 82.5116 172.334C82.5116 171.95 82.4397 171.606 82.2959 171.303C82.1552 170.999 81.927 170.762 81.6112 170.59C81.2955 170.415 80.8765 170.327 80.3545 170.327H78.3099V178.9H77.1469Z" fill="white"/>
<path d="M85.5292 178.9V169.296H91.3252V170.327H86.6921V173.572H91.0251V174.604H86.6921V177.868H91.4003V178.9H85.5292Z" fill="white"/>
<path d="M93.4214 178.9V169.296H96.6664C97.4167 169.296 98.0326 169.424 98.5141 169.68C98.9955 169.933 99.3519 170.282 99.5832 170.726C99.8146 171.17 99.9302 171.675 99.9302 172.241C99.9302 172.806 99.8146 173.308 99.5832 173.746C99.3519 174.184 98.9971 174.527 98.5187 174.778C98.0404 175.025 97.4293 175.148 96.6852 175.148H94.0591V174.098H96.6477C97.1604 174.098 97.5731 174.023 97.8857 173.873C98.2014 173.722 98.4296 173.51 98.5703 173.235C98.7141 172.957 98.786 172.625 98.786 172.241C98.786 171.856 98.7141 171.52 98.5703 171.232C98.4265 170.945 98.1967 170.723 97.881 170.567C97.5652 170.407 97.1479 170.327 96.6289 170.327H94.5844V178.9H93.4214ZM97.9419 174.585L100.305 178.9H98.9548L96.6289 174.585H97.9419Z" fill="white"/>
<path d="M101.868 178.9V169.296H107.627V170.327H103.031V173.572H107.195V174.604H103.031V178.9H101.868Z" fill="white"/>
<path d="M117.722 174.098C117.722 175.111 117.539 175.986 117.173 176.724C116.807 177.461 116.306 178.03 115.668 178.431C115.03 178.831 114.302 179.031 113.483 179.031C112.663 179.031 111.935 178.831 111.297 178.431C110.66 178.03 110.158 177.461 109.792 176.724C109.426 175.986 109.243 175.111 109.243 174.098C109.243 173.085 109.426 172.209 109.792 171.472C110.158 170.734 110.66 170.165 111.297 169.765C111.935 169.364 112.663 169.164 113.483 169.164C114.302 169.164 115.03 169.364 115.668 169.765C116.306 170.165 116.807 170.734 117.173 171.472C117.539 172.209 117.722 173.085 117.722 174.098ZM116.596 174.098C116.596 173.266 116.457 172.564 116.179 171.992C115.904 171.42 115.53 170.987 115.058 170.693C114.589 170.399 114.064 170.252 113.483 170.252C112.901 170.252 112.374 170.399 111.902 170.693C111.433 170.987 111.06 171.42 110.781 171.992C110.506 172.564 110.369 173.266 110.369 174.098C110.369 174.929 110.506 175.631 110.781 176.203C111.06 176.775 111.433 177.208 111.902 177.502C112.374 177.796 112.901 177.943 113.483 177.943C114.064 177.943 114.589 177.796 115.058 177.502C115.53 177.208 115.904 176.775 116.179 176.203C116.457 175.631 116.596 174.929 116.596 174.098Z" fill="white"/>
<path d="M119.677 178.9V169.296H122.922C123.673 169.296 124.288 169.424 124.77 169.68C125.251 169.933 125.608 170.282 125.839 170.726C126.07 171.17 126.186 171.675 126.186 172.241C126.186 172.806 126.07 173.308 125.839 173.746C125.608 174.184 125.253 174.527 124.775 174.778C124.296 175.025 123.685 175.148 122.941 175.148H120.315V174.098H122.903C123.416 174.098 123.829 174.023 124.141 173.873C124.457 173.722 124.685 173.51 124.826 173.235C124.97 172.957 125.042 172.625 125.042 172.241C125.042 171.856 124.97 171.52 124.826 171.232C124.682 170.945 124.453 170.723 124.137 170.567C123.821 170.407 123.404 170.327 122.885 170.327H120.84V178.9H119.677ZM124.198 174.585L126.561 178.9H125.211L122.885 174.585H124.198Z" fill="white"/>
<path d="M128.124 169.296H129.512L132.776 177.268H132.888L136.152 169.296H137.54V178.9H136.452V171.603H136.358L133.357 178.9H132.307L129.306 171.603H129.212V178.9H128.124V169.296Z" fill="white"/>
<path d="M140.266 178.9H139.047L142.573 169.296H143.774L147.3 178.9H146.081L143.211 170.815H143.136L140.266 178.9ZM140.716 175.148H145.631V176.18H140.716V175.148Z" fill="white"/>
<path d="M156.411 169.296V178.9H155.286L150.053 171.359H149.959V178.9H148.796V169.296H149.921L155.173 176.855H155.267V169.296H156.411Z" fill="white"/>
<path d="M166.467 172.297H165.304C165.235 171.962 165.114 171.669 164.943 171.415C164.774 171.162 164.567 170.949 164.324 170.778C164.083 170.602 163.816 170.471 163.522 170.384C163.228 170.296 162.921 170.252 162.603 170.252C162.021 170.252 161.494 170.399 161.022 170.693C160.553 170.987 160.18 171.42 159.901 171.992C159.626 172.564 159.489 173.266 159.489 174.098C159.489 174.929 159.626 175.631 159.901 176.203C160.18 176.775 160.553 177.208 161.022 177.502C161.494 177.796 162.021 177.943 162.603 177.943C162.921 177.943 163.228 177.899 163.522 177.812C163.816 177.724 164.083 177.594 164.324 177.422C164.567 177.247 164.774 177.033 164.943 176.78C165.114 176.524 165.235 176.23 165.304 175.898H166.467C166.379 176.389 166.22 176.828 165.988 177.216C165.757 177.604 165.469 177.934 165.125 178.205C164.782 178.474 164.395 178.679 163.967 178.82C163.542 178.96 163.087 179.031 162.603 179.031C161.783 179.031 161.055 178.831 160.417 178.431C159.78 178.03 159.278 177.461 158.912 176.724C158.546 175.986 158.363 175.111 158.363 174.098C158.363 173.085 158.546 172.209 158.912 171.472C159.278 170.734 159.78 170.165 160.417 169.765C161.055 169.364 161.783 169.164 162.603 169.164C163.087 169.164 163.542 169.235 163.967 169.375C164.395 169.516 164.782 169.722 165.125 169.994C165.469 170.263 165.757 170.592 165.988 170.979C166.22 171.364 166.379 171.803 166.467 172.297Z" fill="white"/>
<path d="M168.346 178.9V169.296H174.142V170.327H169.509V173.572H173.842V174.604H169.509V177.868H174.217V178.9H168.346Z" fill="white"/>
</svg>
