<svg width="16" height="19" viewBox="0 0 16 19" fill="none" xmlns="http://www.w3.org/2000/svg">
<path d="M14.7215 8.28956C14.7215 13.6684 9.21233 16.9821 8.06744 17.6133C8.00402 17.6483 7.93276 17.6667 7.86033 17.6667C7.7879 17.6667 7.71665 17.6483 7.65322 17.6133C6.50748 16.9821 1 13.6684 1 8.28956C1 4.00158 3.57278 1 7.86076 1C12.1487 1 14.7215 4.00158 14.7215 8.28956Z" stroke="#170F49" stroke-width="1.4" stroke-linecap="round" stroke-linejoin="round"/>
<path d="M4.43018 7.86056C4.43018 8.77035 4.79159 9.64288 5.43491 10.2862C6.07823 10.9295 6.95076 11.2909 7.86056 11.2909C8.77035 11.2909 9.64288 10.9295 10.2862 10.2862C10.9295 9.64288 11.2909 8.77035 11.2909 7.86056C11.2909 6.95076 10.9295 6.07823 10.2862 5.43491C9.64288 4.79159 8.77035 4.43018 7.86056 4.43018C6.95076 4.43018 6.07823 4.79159 5.43491 5.43491C4.79159 6.07823 4.43018 6.95076 4.43018 7.86056V7.86056Z" stroke="#170F49" stroke-width="1.4" stroke-linecap="round" stroke-linejoin="round"/>
</svg>
