<svg width="49" height="49" viewBox="0 0 49 49" fill="none" xmlns="http://www.w3.org/2000/svg">
<g clip-path="url(#clip0_73_16)">
<path d="M37.0509 45.6152C48.6799 38.7131 52.5119 23.6907 45.6098 12.0616C38.7077 0.432573 23.6853 -3.39939 12.0562 3.50268C0.427204 10.4048 -3.40476 25.4272 3.49732 37.0562C10.3994 48.6853 25.4218 52.5173 37.0509 45.6152Z" fill="#3562AC"/>
<path d="M0.515488 25.0298C0.515488 11.4839 11.4839 0.515501 25.0298 0.515501C31.6452 0.515501 37.6593 3.15022 42.0696 7.41731C37.6306 2.8352 31.3875 -0.0286255 24.4857 -0.0286255C10.9684 1.27333e-05 0 10.9685 0 24.4857C0 31.3875 2.86382 37.602 7.44594 42.0696C3.1502 37.6593 0.515488 31.6452 0.515488 25.0298Z" fill="#127BBF"/>
<path d="M20 33.5527L32.5 47.5C40.4951 45.0794 43 40 43 40C45.5 36.5 48 31.5 48 29.5L34.2882 14L20 33.5527Z" fill="url(#paint0_linear_73_16)"/>
<path d="M21.956 34.0548C21.2392 34.0548 20.5224 33.7311 20.0368 33.1299L13.5394 24.9445C12.6839 23.8809 12.8688 22.3317 13.9325 21.4993C14.9961 20.6669 16.5453 20.8287 17.3777 21.8924L23.8752 30.0777C24.7076 31.1413 24.5457 32.6906 23.4821 33.523C23.0196 33.8929 22.4878 34.0548 21.956 34.0548V34.0548Z" fill="white"/>
<path d="M21.956 34.0548C21.4242 34.0548 20.8923 33.8698 20.4299 33.523C19.3663 32.6906 19.1813 31.1413 20.0368 30.0777L32.0605 14.9325C32.8929 13.8688 34.4421 13.6839 35.5058 14.5394C36.5694 15.3718 36.7544 16.921 35.8988 17.9847L23.8751 33.1299C23.3896 33.7311 22.6728 34.0548 21.956 34.0548V34.0548Z" fill="white"/>
</g>
<defs>
<linearGradient id="paint0_linear_73_16" x1="20.3442" y1="14.2571" x2="39.8564" y2="35.133" gradientUnits="userSpaceOnUse">
<stop stop-color="#254395"/>
<stop offset="1" stop-color="#3562AC"/>
</linearGradient>
<clipPath id="clip0_73_16">
<rect width="49" height="49" fill="white"/>
</clipPath>
</defs>
</svg>
