<svg width="36" height="36" viewBox="0 0 36 36" fill="none" xmlns="http://www.w3.org/2000/svg">
<path fill-rule="evenodd" clip-rule="evenodd" d="M8.87971 6.29074C8.87971 8.08474 7.51374 9.53658 5.37758 9.53658C3.32466 9.53658 1.95868 8.08474 2.00095 6.29074C1.95868 4.40956 3.32462 3 5.4185 3C7.5137 3 8.83876 4.40956 8.87971 6.29074ZM2.1727 32.9972V12.1007H8.66701V32.9959H2.1727V32.9972Z" fill="#3562AC"/>
<path fill-rule="evenodd" clip-rule="evenodd" d="M13.8723 18.7696C13.8723 16.1631 13.7864 13.9411 13.7005 12.1035H19.3414L19.6413 14.9663H19.7695C20.6242 13.6413 22.7603 11.6346 26.2215 11.6346C30.4938 11.6346 33.6987 14.455 33.6987 20.6059V33H27.2044V21.4196C27.2044 18.726 26.2651 16.8897 23.9149 16.8897C22.1196 16.8897 21.0522 18.1289 20.6255 19.3244C20.4538 19.7525 20.3692 20.3496 20.3692 20.9493V33H13.8749V18.7696H13.8723Z" fill="#3562AC"/>
</svg>
