<svg width="165" height="165" viewBox="0 0 165 165" fill="none" xmlns="http://www.w3.org/2000/svg">
<path d="M123 0H42C18.804 0 0 18.804 0 42V123C0 146.196 18.804 165 42 165H123C146.196 165 165 146.196 165 123V42C165 18.804 146.196 0 123 0Z" fill="#C5DBFF"/>
<path d="M116.547 111.848L116.218 112.201L116.559 112.543L123.417 119.4L123.421 119.404C124.066 120.035 124.264 121.006 123.912 121.852C123.558 122.701 122.74 123.25 121.823 123.25H88.7428C75.3739 123.25 63.7367 116.936 57.7384 107.71H72.2026C94.7171 107.71 113.237 92.1226 114.028 72.6123C120.253 77.9955 124.08 85.3551 124.08 93.4264C124.08 100.148 121.43 106.61 116.547 111.848Z" fill="#BEC6C6" stroke="#252525"/>
<path d="M44.3845 90.4889L44.7253 90.1481L44.3973 89.795C39.514 84.5387 36.8639 78.0935 36.8639 71.3726C36.8639 54.9941 52.6334 41.5488 72.201 41.5488C91.7686 41.5488 107.538 54.9941 107.538 71.3726C107.538 87.751 91.7686 101.196 72.201 101.196H39.1206C38.2043 101.196 37.3859 100.647 37.0322 99.7983L37.031 99.7955C36.6818 98.9715 36.8749 97.9985 37.5272 97.3462L44.3845 90.4889Z" fill="white" stroke="#252525"/>
<path d="M55.6571 63.6025H88.7375C89.9776 63.6025 90.9942 64.6192 90.9942 65.8592C90.9942 67.0993 89.9776 68.1159 88.7375 68.1159H55.6571C54.417 68.1159 53.4004 67.0993 53.4004 65.8592C53.4004 64.6192 54.417 63.6025 55.6571 63.6025Z" fill="#3562AC" stroke="#3562AC"/>
<path d="M55.6571 74.6294H77.7107C78.9508 74.6294 79.9674 75.6461 79.9674 76.8861C79.9674 78.1261 78.9508 79.1428 77.7107 79.1428H55.6571C54.417 79.1428 53.4004 78.1261 53.4004 76.8861C53.4004 75.6461 54.417 74.6294 55.6571 74.6294Z" fill="#3562AC" stroke="#3562AC"/>
</svg>
