<svg width="165" height="165" viewBox="0 0 165 165" fill="none" xmlns="http://www.w3.org/2000/svg">
<path d="M123 0H42C18.804 0 0 18.804 0 42V123C0 146.196 18.804 165 42 165H123C146.196 165 165 146.196 165 123V42C165 18.804 146.196 0 123 0Z" fill="#C5DBFF"/>
<path d="M66.7291 47.8531L66.6694 47.8382H66.6078C66.0781 47.8382 63.4673 47.7427 61.0052 46.2972C58.584 44.8756 56.2443 42.1151 56.2443 36.639C56.2443 36.0188 55.7255 35.5 55.1053 35.5C54.485 35.5 53.9662 36.0188 53.9662 36.639C53.9662 42.1151 51.6265 44.8759 49.211 46.2974C46.7549 47.7429 44.1562 47.8382 43.6519 47.8382C43.4259 47.8382 43.1663 47.9058 42.9604 48.0811C42.8636 48.1436 42.7978 48.2159 42.7578 48.2639C42.7383 48.2873 42.7188 48.3128 42.7086 48.326C42.7067 48.3285 42.7052 48.3305 42.704 48.332C42.7024 48.3342 42.701 48.3359 42.6999 48.3373L42.6511 48.3861L42.6148 48.4587C42.4461 48.7961 42.4461 49.2075 42.6148 49.5449C42.8053 49.926 43.2341 50.1654 43.6519 50.1654H43.652H43.6521H43.6522H43.6523H43.6524H43.6525H43.6526H43.6527H43.6528H43.6529H43.653H43.6531H43.6532H43.6533H43.6534H43.6535H43.6536H43.6537H43.6538H43.6539H43.654H43.6541H43.6542H43.6543H43.6544H43.6545H43.6546H43.6547H43.6548H43.6549H43.655H43.6551H43.6552H43.6553H43.6554H43.6555H43.6556H43.6557H43.6558H43.6559H43.656H43.6561H43.6562H43.6563H43.6564H43.6565H43.6566H43.6567H43.6568H43.6569H43.657H43.6571H43.6572H43.6573H43.6574H43.6575H43.6576H43.6577H43.6578H43.6579H43.658H43.6581H43.6582H43.6583H43.6584H43.6585H43.6586H43.6587H43.6588H43.6589H43.659H43.6591H43.6592H43.6593H43.6594H43.6595H43.6596H43.6597H43.6598H43.6599H43.66H43.6601H43.6602H43.6603H43.6604H43.6605H43.6606H43.6607H43.6608H43.6609H43.661H43.6611H43.6612H43.6613H43.6614H43.6615H43.6616H43.6617H43.6618H43.6619H43.662H43.6621H43.6622H43.6623H43.6624H43.6625H43.6626H43.6627H43.6628H43.6629H43.663H43.6631H43.6632H43.6633H43.6634H43.6636H43.6637H43.6638H43.6639H43.664H43.6641H43.6642H43.6643H43.6645H43.6646H43.6647H43.6648H43.6649H43.6651H43.6652H43.6653H43.6654H43.6655H43.6657H43.6658H43.6659H43.666H43.6662H43.6663H43.6664H43.6665H43.6667H43.6668H43.6669H43.6671H43.6672H43.6673H43.6675H43.6676H43.6677H43.6679H43.668H43.6681H43.6683H43.6684H43.6686H43.6687H43.6688H43.669H43.6691H43.6693H43.6694H43.6696H43.6697H43.6698H43.67H43.6701H43.6703H43.6704H43.6706H43.6707H43.6709H43.671H43.6712H43.6714H43.6715H43.6717H43.6718H43.672H43.6721H43.6723H43.6725H43.6726H43.6728H43.673H43.6731H43.6733H43.6734H43.6736H43.6738H43.674H43.6741H43.6743H43.6745H43.6746H43.6748H43.675H43.6752H43.6753H43.6755H43.6757H43.6759H43.676H43.6762H43.6764H43.6766H43.6768H43.6769H43.6771H43.6773H43.6775H43.6777H43.6779H43.6781H43.6783H43.6784H43.6786H43.6788H43.679H43.6792H43.6794H43.6796H43.6798H43.68H43.6802H43.6804H43.6806H43.6808H43.681H43.6812H43.6814H43.6816H43.6818H43.682H43.6822H43.6825H43.6827H43.6829H43.6831H43.6833H43.6835H43.6837H43.6839H43.6842H43.6844H43.6846H43.6848H43.685H43.6853H43.6855H43.6857H43.6859H43.6862H43.6864H43.6866H43.6868H43.6871H43.6873H43.6875H43.6878H43.688H43.6882H43.6885H43.6887H43.689H43.6892H43.6894H43.6897H43.6899H43.6902H43.6904H43.6906H43.6909H43.6911H43.6914H43.6916H43.6919H43.6921H43.6924H43.6926H43.6929H43.6932H43.6934H43.6937H43.6939H43.6942H43.6945H43.6947H43.695H43.6952H43.6955H43.6958H43.696H43.6963H43.6966H43.6969H43.6971H43.6974H43.6977H43.6979H43.6982H43.6985H43.6988H43.6991H43.6993H43.6996H43.6999H43.7002H43.7005H43.7008H43.701C44.2306 50.1654 46.8287 50.2609 49.2781 51.7059C51.6869 53.1269 54.0154 55.8873 54.0154 61.3646C54.0154 61.9848 54.5342 62.5036 55.1544 62.5036C55.7747 62.5036 56.2935 61.9848 56.2935 61.3646C56.2935 55.9127 58.6213 53.1515 61.0315 51.7239C63.4819 50.2724 66.0808 50.1654 66.6078 50.1654C67.0749 50.1654 67.4022 49.8819 67.5977 49.6213L67.6247 49.5853L67.6449 49.5449C67.8102 49.2143 67.8246 48.7794 67.5735 48.417C67.4636 48.2227 67.3 48.0978 67.1602 48.0192C67.009 47.9341 66.8518 47.8838 66.7291 47.8531Z" stroke="#3562AC"/>
<path d="M27.5899 50.5242H27.5543L27.5192 50.5292C26.9667 50.6082 26.5 51.0338 26.5 51.6632C26.5 52.2835 27.0188 52.8023 27.639 52.8023C27.925 52.8023 29.293 52.8493 30.5739 53.6054C31.8137 54.3372 33.0378 55.7695 33.0378 58.6926C33.0378 59.2996 33.5348 59.8095 34.1374 59.8309C34.4623 59.8694 34.7477 59.7258 34.9359 59.5377C35.1339 59.3396 35.2667 59.055 35.2667 58.7417C35.2667 55.8208 36.5012 54.3879 37.7482 53.655C39.0361 52.8981 40.4052 52.8514 40.6654 52.8514H40.7146C41.3587 52.8514 41.8536 52.3081 41.8536 51.6632C41.8536 51.043 41.3348 50.5242 40.7146 50.5242C40.4543 50.5242 39.0853 50.4776 37.7973 49.7206C36.5503 48.9877 35.3158 47.5548 35.3158 44.6339C35.3158 44.0137 34.797 43.4949 34.1768 43.4949C33.5566 43.4949 33.0378 44.0137 33.0378 44.6339C33.0378 47.5548 31.8033 48.9877 30.5563 49.7206C29.2683 50.4776 27.8993 50.5242 27.639 50.5242H27.6387H27.6385H27.6382H27.6379H27.6376H27.6373H27.637H27.6368H27.6365H27.6362H27.6359H27.6357H27.6354H27.6351H27.6348H27.6346H27.6343H27.634H27.6338H27.6335H27.6332H27.633H27.6327H27.6324H27.6322H27.6319H27.6317H27.6314H27.6311H27.6309H27.6306H27.6304H27.6301H27.6299H27.6296H27.6294H27.6291H27.6289H27.6286H27.6284H27.6281H27.6279H27.6277H27.6274H27.6272H27.6269H27.6267H27.6265H27.6262H27.626H27.6258H27.6255H27.6253H27.6251H27.6248H27.6246H27.6244H27.6241H27.6239H27.6237H27.6235H27.6232H27.623H27.6228H27.6226H27.6224H27.6221H27.6219H27.6217H27.6215H27.6213H27.6211H27.6209H27.6206H27.6204H27.6202H27.62H27.6198H27.6196H27.6194H27.6192H27.619H27.6188H27.6186H27.6184H27.6182H27.618H27.6178H27.6176H27.6174H27.6172H27.617H27.6168H27.6166H27.6164H27.6162H27.6161H27.6159H27.6157H27.6155H27.6153H27.6151H27.6149H27.6147H27.6146H27.6144H27.6142H27.614H27.6138H27.6137H27.6135H27.6133H27.6131H27.613H27.6128H27.6126H27.6124H27.6123H27.6121H27.6119H27.6118H27.6116H27.6114H27.6113H27.6111H27.6109H27.6108H27.6106H27.6104H27.6103H27.6101H27.61H27.6098H27.6097H27.6095H27.6093H27.6092H27.609H27.6089H27.6087H27.6086H27.6084H27.6083H27.6081H27.608H27.6078H27.6077H27.6075H27.6074H27.6072H27.6071H27.607H27.6068H27.6067H27.6065H27.6064H27.6063H27.6061H27.606H27.6058H27.6057H27.6056H27.6054H27.6053H27.6052H27.605H27.6049H27.6048H27.6047H27.6045H27.6044H27.6043H27.6041H27.604H27.6039H27.6038H27.6036H27.6035H27.6034H27.6033H27.6032H27.603H27.6029H27.6028H27.6027H27.6026H27.6024H27.6023H27.6022H27.6021H27.602H27.6019H27.6018H27.6017H27.6015H27.6014H27.6013H27.6012H27.6011H27.601H27.6009H27.6008H27.6007H27.6006H27.6005H27.6004H27.6003H27.6002H27.6001H27.6H27.5999H27.5998H27.5997H27.5996H27.5995H27.5994H27.5993H27.5992H27.5991H27.599H27.5989H27.5988H27.5987H27.5986H27.5985H27.5984H27.5983H27.5982H27.5981H27.598H27.5979H27.5978H27.5977H27.5976H27.5975H27.5974H27.5973H27.5972H27.5971H27.597H27.5969H27.5968H27.5967H27.5966H27.5965H27.5964H27.5963H27.5962H27.5961H27.596H27.5959H27.5958H27.5957H27.5956H27.5955H27.5954H27.5953H27.5952H27.5951H27.595H27.5949H27.5948H27.5947H27.5946H27.5945H27.5944H27.5943H27.5942H27.5941H27.594H27.5939H27.5938H27.5937H27.5936H27.5935H27.5934H27.5933H27.5932H27.5931H27.593H27.5929H27.5928H27.5927H27.5926H27.5925H27.5924H27.5923H27.5922H27.5921H27.592H27.5919H27.5918H27.5917H27.5916H27.5915H27.5914H27.5913H27.5912H27.5911H27.591H27.5909H27.5908H27.5907H27.5906H27.5905H27.5904H27.5903H27.5902H27.5901H27.59H27.5899Z" stroke="#3562AC"/>
<path d="M35.586 67.0144L35.5153 66.5195C34.9628 66.5984 34.4961 67.0241 34.4961 67.6535C34.4961 68.2737 35.0149 68.7925 35.6351 68.7925C35.9211 68.7925 37.2891 68.8395 38.57 69.5956C39.8098 70.3275 41.0339 71.7598 41.0339 74.6828C41.0339 75.2773 41.5105 75.7786 42.0963 75.8192C42.4275 75.896 42.7322 75.7645 42.932 75.5648C43.1441 75.3527 43.2628 75.0498 43.2628 74.7319C43.2628 71.811 44.4973 70.3781 45.7443 69.6452C47.0322 68.8883 48.4013 68.8416 48.6615 68.8416H48.7107C49.3547 68.8416 49.8497 68.2984 49.8497 67.6535C49.8497 67.0332 49.3309 66.5144 48.7107 66.5144C48.4504 66.5144 47.0814 66.4678 45.7934 65.7108C44.5464 64.978 43.3119 63.545 43.3119 60.6241C43.3119 60.0039 42.7931 59.4851 42.1729 59.4851C41.5527 59.4851 41.0339 60.0039 41.0339 60.6241C41.0339 63.545 39.7994 64.978 38.5523 65.7108C37.2644 66.4678 35.8953 66.5144 35.6351 66.5144H35.6348H35.6345H35.6343H35.634H35.6337H35.6334H35.6331H35.6329H35.6326H35.6323H35.632H35.6317H35.6315H35.6312H35.6309H35.6307H35.6304H35.6301H35.6299H35.6296H35.6293H35.6291H35.6288H35.6285H35.6283H35.628H35.6277H35.6275H35.6272H35.627H35.6267H35.6265H35.6262H35.626H35.6257H35.6255H35.6252H35.625H35.6247H35.6245H35.6242H35.624H35.6237H35.6235H35.6233H35.623H35.6228H35.6226H35.6223H35.6221H35.6218H35.6216H35.6214H35.6212H35.6209H35.6207H35.6205H35.6202H35.62H35.6198H35.6196H35.6193H35.6191H35.6189H35.6187H35.6185H35.6182H35.618H35.6178H35.6176H35.6174H35.6172H35.617H35.6167H35.6165H35.6163H35.6161H35.6159H35.6157H35.6155H35.6153H35.6151H35.6149H35.6147H35.6145H35.6143H35.6141H35.6139H35.6137H35.6135H35.6133H35.6131H35.6129H35.6127H35.6125H35.6123H35.6121H35.612H35.6118H35.6116H35.6114H35.6112H35.611H35.6108H35.6107H35.6105H35.6103H35.6101H35.6099H35.6098H35.6096H35.6094H35.6092H35.6091H35.6089H35.6087H35.6085H35.6084H35.6082H35.608H35.6079H35.6077H35.6075H35.6074H35.6072H35.607H35.6069H35.6067H35.6065H35.6064H35.6062H35.6061H35.6059H35.6057H35.6056H35.6054H35.6053H35.6051H35.605H35.6048H35.6047H35.6045H35.6044H35.6042H35.6041H35.6039H35.6038H35.6036H35.6035H35.6033H35.6032H35.6031H35.6029H35.6028H35.6026H35.6025H35.6024H35.6022H35.6021H35.6019H35.6018H35.6017H35.6015H35.6014H35.6013H35.6011H35.601H35.6009H35.6007H35.6006H35.6005H35.6004H35.6002H35.6001H35.6H35.5999H35.5997H35.5996H35.5995H35.5994H35.5992H35.5991H35.599H35.5989H35.5988H35.5987H35.5985H35.5984H35.5983H35.5982H35.5981H35.598H35.5979H35.5977H35.5976H35.5975H35.5974H35.5973H35.5972H35.5971H35.597H35.5969H35.5968H35.5967H35.5966H35.5965H35.5964H35.5963H35.5962H35.5961H35.596H35.5959H35.5958H35.5957H35.5956H35.5955H35.5954H35.5953H35.5952H35.5951H35.595H35.5949H35.5948H35.5947H35.5946H35.5945H35.5944H35.5943H35.5942H35.5941H35.594H35.5939H35.5938H35.5937H35.5936H35.5935H35.5934H35.5933H35.5932H35.5931H35.593H35.5929H35.5928H35.5927H35.5926H35.5925H35.5924H35.5923H35.5922H35.5921H35.592H35.5919H35.5918H35.5917H35.5916H35.5915H35.5914H35.5913H35.5912H35.5911H35.591H35.5909H35.5908H35.5907H35.5906H35.5905H35.5904H35.5903H35.5902H35.5901H35.59H35.5899H35.5898H35.5897H35.5896H35.5895H35.5894H35.5893H35.5892H35.5891H35.589H35.5889H35.5888H35.5887H35.5886H35.5885H35.5884H35.5883H35.5882H35.5881H35.588H35.5879H35.5878H35.5877H35.5876H35.5875H35.5874H35.5873H35.5872H35.5871H35.587H35.5869H35.5868H35.5867H35.5866H35.5865H35.5864H35.5863H35.5862H35.5861H35.586V67.0144Z" stroke="#3562AC"/>
<path d="M56.4539 111.542C56.5098 111.428 56.5625 111.314 56.6126 111.207L56.6331 111.163L56.6336 111.162C57.3978 109.51 57.8383 107.678 57.8383 105.737C57.8383 98.5902 52.0249 92.7762 44.8778 92.7762C37.7302 92.7762 31.9168 98.5902 31.9168 105.737C31.9168 108.182 32.6101 110.459 33.7881 112.411H33.7883C33.8152 112.456 33.844 112.505 33.8744 112.556C33.9093 112.616 33.9462 112.679 33.9848 112.742C29.7144 112.537 25.3534 112.074 21.7006 111.284C19.7278 110.858 17.9756 110.338 16.5611 109.72C15.1382 109.097 14.1031 108.393 13.5118 107.624H13.5119L13.5079 107.619L13.5 107.609V101.786L13.5162 101.772C13.7706 101.561 27.2088 90.4951 48.689 89.6473L48.7898 89.6434L48.8812 89.6006C49.7357 89.2007 54.7591 86.8591 60.14 84.5338C62.8308 83.371 65.6068 82.2141 67.9934 81.3066C70.3976 80.3924 72.3574 79.751 73.4411 79.5915C73.876 79.5275 74.2576 79.5 74.5936 79.5C75.7681 79.5 76.5211 79.8356 76.9575 80.3887C77.2786 80.7958 77.3866 81.2784 77.4057 81.691C77.4236 82.0766 77.362 82.3675 77.3523 82.4113C77.3519 82.4132 77.3516 82.4146 77.3513 82.4156L77.3511 82.4167L77.3472 82.4323L68.6931 86.2361L68.3053 86.4065L68.4097 86.8171C68.5384 87.3228 68.6186 88.1036 68.2384 88.8378L68.2368 88.841C68.1164 89.0777 67.9546 89.2932 67.7531 89.489L66.8069 90.4084L68.1247 90.3471C72.1528 90.1597 76.8217 89.9089 80.7312 89.6435C82.6857 89.5108 84.4532 89.3742 85.8571 89.2399C87.246 89.107 88.3171 88.9731 88.8523 88.8398L89.2315 88.7454V88.3546V82.9367L89.2379 82.9258L89.2426 82.9178L89.247 82.9097C89.2458 82.9118 89.2465 82.9109 89.249 82.9075C89.2785 82.8675 89.5648 82.4798 90.2126 82.5255L90.4792 82.5443L90.6429 82.3331C90.8526 82.0626 91.1238 81.8619 91.4946 81.8889L91.9174 81.9197L92.0169 81.5075C92.1046 81.1441 92.2578 80.7855 92.4849 80.5268C92.6992 80.2826 92.9842 80.1185 93.3977 80.1185C93.558 80.1185 93.7376 80.1449 93.9352 80.2038L94.1196 80.2587L94.2932 80.1759C94.5461 80.0553 95.088 79.903 96.1646 79.903C98.205 79.903 101.275 80.4396 105.312 81.5245L108.358 82.3463C112.42 83.446 116.047 84.424 119.1 85.1082C122.142 85.7899 124.663 86.1918 126.5 86.1151H126.501C127.432 86.0739 128.475 86.0493 129.584 86.0493C133.888 86.0493 138.122 86.3771 141.199 86.9425C142.805 87.2402 144.734 87.0409 145.997 86.8596C146.555 86.781 146.983 86.7212 147.308 86.7212C147.406 86.7212 147.544 86.723 147.68 86.763C147.808 86.801 147.893 86.8604 147.942 86.9543C147.987 87.0395 148.008 87.1608 147.945 87.3801C147.878 87.6118 147.729 87.9027 147.491 88.2774L147.315 88.554L147.498 88.8256C147.842 89.3347 148.538 90.4135 149.156 91.6539C149.782 92.9101 150.293 94.265 150.33 95.3446V95.3492C150.34 95.565 150.359 95.8392 150.388 96.1444C150.568 98.4918 150.903 103.1 147.928 106.501C146.637 107.977 144.836 109.058 142.537 109.739C142.589 109.601 142.64 109.458 142.687 109.313C143.114 107.992 143.348 106.583 143.348 105.12C143.348 97.5541 137.194 91.3994 129.629 91.3994C122.065 91.3994 115.91 97.5541 115.91 105.12C115.91 107.03 116.308 108.857 117.02 110.515L56.4539 111.542ZM56.4539 111.542C66.1342 111.133 84.1673 111.063 100.582 111.001C101.624 110.996 102.663 110.992 103.695 110.988C108.398 110.968 112.971 110.949 117.213 110.92L117.212 110.919C117.149 110.793 117.077 110.648 117.02 110.515L56.4539 111.542ZM56.4539 111.542C56.2987 111.548 56.1457 111.555 55.9948 111.561L56.4539 111.542ZM117.02 110.515L117.48 110.318L117.02 110.515ZM117.02 110.515L117.48 110.318L117.02 110.515ZM117.48 110.318C117.532 110.439 117.591 110.557 117.65 110.675C117.681 110.739 117.713 110.802 117.744 110.866L117.48 110.318ZM55.9938 111.561L56.3481 111.75C56.3483 111.749 56.3485 111.749 56.3488 111.748C56.349 111.748 56.3492 111.748 56.3494 111.747L55.9948 111.561H55.9938ZM55.9938 111.561C55.9941 111.561 55.9945 111.561 55.9948 111.561H55.9938ZM55.9938 111.561C55.9554 111.563 55.9172 111.565 55.8791 111.567L55.9938 111.561ZM55.9938 111.561L55.9066 111.515L55.9948 111.561" fill="white"/>
<path d="M55.9938 111.561L55.9066 111.515L55.9948 111.561M56.4539 111.542C56.5098 111.428 56.5625 111.314 56.6126 111.207L56.6331 111.163L56.6336 111.162C57.3978 109.51 57.8383 107.678 57.8383 105.737C57.8383 98.5902 52.0249 92.7762 44.8778 92.7762C37.7302 92.7762 31.9168 98.5902 31.9168 105.737C31.9168 108.182 32.6101 110.459 33.7881 112.411H33.7883C33.8152 112.456 33.844 112.505 33.8744 112.556C33.9093 112.616 33.9462 112.679 33.9848 112.742C29.7144 112.537 25.3534 112.074 21.7006 111.284C19.7278 110.858 17.9756 110.338 16.5611 109.72C15.1382 109.097 14.1031 108.393 13.5118 107.624H13.5119L13.5079 107.619L13.5 107.609V101.786L13.5162 101.772C13.7706 101.561 27.2088 90.4951 48.689 89.6473L48.7898 89.6434L48.8812 89.6006C49.7357 89.2007 54.7591 86.8591 60.14 84.5338C62.8308 83.371 65.6068 82.2141 67.9934 81.3066C70.3976 80.3924 72.3574 79.751 73.4411 79.5915C73.876 79.5275 74.2576 79.5 74.5936 79.5C75.7681 79.5 76.5211 79.8356 76.9575 80.3887C77.2786 80.7958 77.3866 81.2784 77.4057 81.691C77.4236 82.0766 77.362 82.3675 77.3523 82.4113C77.3519 82.4132 77.3516 82.4146 77.3513 82.4156L77.3511 82.4167L77.3472 82.4323L68.6931 86.2361L68.3053 86.4065L68.4097 86.8171C68.5384 87.3228 68.6186 88.1036 68.2384 88.8378L68.2368 88.841C68.1164 89.0777 67.9546 89.2932 67.7531 89.489L66.8069 90.4084L68.1247 90.3471C72.1528 90.1597 76.8217 89.9089 80.7312 89.6435C82.6857 89.5108 84.4532 89.3742 85.8571 89.2399C87.246 89.107 88.3171 88.9731 88.8523 88.8398L89.2315 88.7454V88.3546V82.9367L89.2379 82.9258L89.2426 82.9178L89.247 82.9097C89.2458 82.9118 89.2465 82.9109 89.249 82.9075C89.2785 82.8675 89.5648 82.4798 90.2126 82.5255L90.4792 82.5443L90.6429 82.3331C90.8526 82.0626 91.1238 81.8619 91.4946 81.8889L91.9174 81.9197L92.0169 81.5075C92.1046 81.1441 92.2578 80.7855 92.4849 80.5268C92.6992 80.2826 92.9842 80.1185 93.3977 80.1185C93.558 80.1185 93.7376 80.1449 93.9352 80.2038L94.1196 80.2587L94.2932 80.1759C94.5461 80.0553 95.088 79.903 96.1646 79.903C98.205 79.903 101.275 80.4396 105.312 81.5245L108.358 82.3463C112.42 83.446 116.047 84.424 119.1 85.1082C122.142 85.7899 124.663 86.1918 126.5 86.1151H126.501C127.432 86.0739 128.475 86.0493 129.584 86.0493C133.888 86.0493 138.122 86.3771 141.199 86.9425C142.805 87.2402 144.734 87.0409 145.997 86.8596C146.555 86.781 146.983 86.7212 147.308 86.7212C147.406 86.7212 147.544 86.723 147.68 86.763C147.808 86.801 147.893 86.8604 147.942 86.9543C147.987 87.0395 148.008 87.1608 147.945 87.3801C147.878 87.6118 147.729 87.9027 147.491 88.2774L147.315 88.554L147.498 88.8256C147.842 89.3347 148.538 90.4135 149.156 91.6539C149.782 92.9101 150.293 94.265 150.33 95.3446V95.3492C150.34 95.565 150.359 95.8392 150.388 96.1444C150.568 98.4918 150.903 103.1 147.928 106.501C146.637 107.977 144.836 109.058 142.537 109.739C142.589 109.601 142.64 109.458 142.687 109.313C143.114 107.992 143.348 106.583 143.348 105.12C143.348 97.5541 137.194 91.3994 129.629 91.3994C122.065 91.3994 115.91 97.5541 115.91 105.12C115.91 107.03 116.308 108.857 117.02 110.515L56.4539 111.542ZM56.4539 111.542C66.1342 111.133 84.1673 111.063 100.582 111.001C101.624 110.996 102.663 110.992 103.695 110.988C108.398 110.968 112.971 110.949 117.213 110.92L117.212 110.919C117.149 110.793 117.077 110.648 117.02 110.515L56.4539 111.542ZM56.4539 111.542C56.2987 111.548 56.1457 111.555 55.9948 111.561L56.4539 111.542ZM117.02 110.515L117.48 110.318L117.02 110.515ZM117.02 110.515L117.48 110.318L117.02 110.515ZM117.48 110.318C117.532 110.439 117.591 110.557 117.65 110.675C117.681 110.739 117.713 110.802 117.744 110.866L117.48 110.318ZM55.9938 111.561L56.3481 111.75C56.3483 111.749 56.3485 111.749 56.3488 111.748C56.349 111.748 56.3492 111.748 56.3494 111.747L55.9948 111.561H55.9938ZM55.9938 111.561C55.9941 111.561 55.9945 111.561 55.9948 111.561H55.9938ZM55.9938 111.561C55.9554 111.563 55.9172 111.565 55.8791 111.567L55.9938 111.561Z" stroke="black"/>
<path d="M52.3539 111.935L52.3535 111.936C50.5596 114.101 47.8924 115.501 44.8727 115.501C42.3859 115.501 40.137 114.54 38.4067 112.999C38.3628 112.96 38.3202 112.922 38.2786 112.885C38.1128 112.738 37.9643 112.606 37.8258 112.461H37.8259L37.8217 112.457C37.7274 112.36 37.6543 112.266 37.5649 112.151C37.5152 112.087 37.4605 112.017 37.3944 111.936L37.3923 111.933C35.9879 110.24 35.1152 108.103 35.1152 105.743C35.1152 100.356 39.4831 95.9854 44.8727 95.9854C50.2617 95.9854 54.6313 100.352 54.6313 105.743C54.6313 107.608 54.0776 109.343 53.1602 110.833L53.1593 110.835C53.1349 110.875 53.1115 110.914 53.0888 110.951C52.9945 111.107 52.9117 111.244 52.8165 111.376L52.8157 111.378C52.7283 111.5 52.6399 111.602 52.5361 111.722C52.4805 111.786 52.4205 111.855 52.3539 111.935Z" fill="#BEC6C6" stroke="black"/>
<path d="M120.686 110.593L120.685 110.592C120.621 110.488 120.571 110.392 120.513 110.281C120.479 110.216 120.442 110.146 120.399 110.066C119.599 108.578 119.109 106.912 119.109 105.124C119.109 99.3156 123.817 94.6067 129.625 94.6067C135.429 94.6067 140.141 99.3155 140.141 105.124C140.141 106.683 139.777 108.157 139.158 109.496V109.497C139.098 109.628 139.033 109.741 138.957 109.873C138.921 109.936 138.882 110.004 138.84 110.081L138.835 110.089C138.797 110.162 138.763 110.229 138.731 110.292C138.66 110.43 138.6 110.549 138.524 110.669V110.67C136.665 113.648 133.388 115.638 129.625 115.638C126.05 115.638 122.901 113.846 121.001 111.118C120.932 111.017 120.88 110.926 120.818 110.819C120.779 110.752 120.737 110.679 120.686 110.593Z" fill="#BEC6C6" stroke="black"/>
</svg>
