<svg width="165" height="165" viewBox="0 0 165 165" fill="none" xmlns="http://www.w3.org/2000/svg">
<path d="M123 0H42C18.804 0 0 18.804 0 42V123C0 146.196 18.804 165 42 165H123C146.196 165 165 146.196 165 123V42C165 18.804 146.196 0 123 0Z" fill="#C5DBFF"/>
<path d="M105.754 69.3102C110.545 70.5303 115.673 69.1282 119.152 65.6488C122.246 62.5547 123.728 58.1116 123.113 53.768C123.01 53.0493 122.51 52.4503 121.821 52.2202L121.819 52.2195C121.138 51.9887 120.375 52.1683 119.859 52.683L116.442 56.1025L116.441 56.1027C114.419 58.1248 110.919 58.1248 108.896 56.1027C106.811 54.0169 106.812 50.6443 108.896 48.56L112.314 45.1422C112.827 44.6293 113.007 43.8693 112.776 43.1805C112.546 42.4913 111.947 41.9915 111.228 41.8885C106.873 41.2733 102.465 42.7366 99.3502 45.8468C95.8274 49.3719 94.4367 54.5555 95.7242 59.3753L95.7987 59.6539L95.5947 59.8579L59.8587 95.5926L59.5047 95.9466L59.245 95.6862C54.479 94.4711 49.3267 95.8688 45.8477 99.3478C42.7539 102.442 41.2718 106.885 41.8868 111.228C41.9899 111.947 42.4899 112.546 43.1789 112.776L43.1801 112.777C43.8601 113.006 44.6245 112.828 45.1405 112.314L105.754 69.3102ZM105.754 69.3102L105.495 69.0505L105.141 69.4039L69.4051 105.139L69.2012 105.343L69.2756 105.621C70.5631 110.441 69.1725 115.624 65.6498 119.15C62.4859 122.311 58.1167 123.726 53.772 123.108C53.053 123.005 52.4538 122.505 52.2234 121.816C51.9932 121.127 52.1728 120.367 52.6857 119.854L56.1035 116.437C58.1881 114.352 58.1893 110.979 56.1035 108.894C54.0813 106.872 50.5806 106.872 48.5584 108.894L45.1413 112.313L105.754 69.3102Z" fill="white"/>
<path d="M105.754 69.3102C110.545 70.5303 115.673 69.1282 119.152 65.6488C122.246 62.5547 123.728 58.1116 123.113 53.768C123.01 53.0493 122.51 52.4503 121.821 52.2202L121.819 52.2195C121.138 51.9887 120.375 52.1683 119.859 52.683L116.442 56.1025L116.441 56.1027C114.419 58.1248 110.919 58.1248 108.896 56.1027C106.811 54.0169 106.812 50.6443 108.896 48.56L112.314 45.1422C112.827 44.6293 113.007 43.8693 112.776 43.1805C112.546 42.4913 111.947 41.9915 111.228 41.8885C106.873 41.2733 102.465 42.7366 99.3502 45.8468C95.8274 49.3719 94.4367 54.5555 95.7242 59.3753L95.7987 59.6539L95.5947 59.8579L59.8587 95.5926L59.5047 95.9466L59.245 95.6862C54.479 94.4711 49.3267 95.8688 45.8477 99.3478C42.7539 102.442 41.2718 106.885 41.8868 111.228C41.9899 111.947 42.4899 112.546 43.1789 112.776L43.1801 112.777C43.8601 113.006 44.6245 112.828 45.1405 112.314L105.754 69.3102ZM105.754 69.3102L105.495 69.0505L105.141 69.4039L69.4051 105.139L69.2012 105.343L69.2756 105.621C70.5631 110.441 69.1725 115.624 65.6498 119.15C62.4859 122.311 58.1167 123.726 53.772 123.108C53.053 123.005 52.4538 122.505 52.2234 121.816C51.9932 121.127 52.1728 120.367 52.6857 119.854L56.1035 116.437C58.1881 114.352 58.1893 110.979 56.1035 108.894C54.0813 106.872 50.5806 106.872 48.5584 108.894L45.1413 112.313L105.754 69.3102Z" stroke="#252525"/>
<path d="M105.189 95.6379L105.392 95.8412L105.67 95.7677C107.022 95.41 108.156 95.2461 109.248 95.2461C116.969 95.2461 123.25 101.527 123.25 109.248C123.25 116.969 116.969 123.25 109.248 123.25C101.528 123.25 95.2463 116.969 95.2463 109.248C95.2463 108.156 95.4102 107.022 95.7679 105.668L95.8413 105.39L95.638 105.187L86.6251 96.173L96.1746 86.6245L105.189 95.6379ZM116.224 114.257L116.225 114.256L117.662 108.894C117.933 107.888 117.645 106.814 116.907 106.076L112.982 102.151L112.981 102.15C112.245 101.417 111.169 101.117 110.162 101.397C110.161 101.397 110.16 101.397 110.159 101.398L104.802 102.834H104.801C103.796 103.104 103.01 103.89 102.74 104.895V104.896L101.302 110.258C101.032 111.264 101.319 112.338 102.057 113.076L105.982 117.001C106.749 117.768 107.846 118.018 108.801 117.756C108.802 117.755 108.802 117.755 108.803 117.755L114.162 116.319L114.163 116.318C115.168 116.048 115.954 115.262 116.224 114.257Z" fill="#BEC6C6" stroke="#252525"/>
<path d="M69.1972 59.5153L69.2711 59.2389C70.5586 54.4191 69.1679 49.2334 65.6453 45.7106L69.1972 59.5153ZM69.1972 59.5153L59.5008 69.6213C54.5016 70.9595 49.1223 69.4985 45.4898 65.8659C39.8367 60.2129 39.8367 51.0124 45.4898 45.357C50.9633 39.881 60.1669 40.2346 65.6453 45.7106L69.1972 59.5153ZM69.1972 59.5153L69.3981 59.719L78.3773 68.8249L68.8297 78.3715L69.1972 59.5153ZM65.6453 45.7106C60.3621 40.4298 51.1215 40.43 45.8434 45.7104C40.3855 51.1707 40.3856 60.0547 45.8433 65.5124C49.3501 69.0192 54.5455 70.4302 59.3715 69.1383L59.6525 69.0631L59.8568 69.2703L68.8297 78.3715L65.6453 45.7106ZM62.4785 60.3778C62.2079 61.3831 61.4219 62.1695 60.4167 62.44L55.057 63.8767L55.0552 63.8771C54.0999 64.1399 53.0032 63.8899 52.2362 63.1227L48.311 59.1975C47.5736 58.4601 47.2856 57.3863 47.5561 56.3801L62.4785 60.3778ZM62.4785 60.3778L63.9159 55.0156C64.1866 54.0093 63.8986 52.9353 63.1611 52.1978L59.2359 48.2726C58.4994 47.5361 57.4256 47.2443 56.4178 47.5179L56.4168 47.5182L51.0559 48.9552C50.0507 49.2257 49.2643 50.0117 48.9937 51.017L47.5561 56.3801L62.4785 60.3778Z" fill="#3562AC"/>
<path d="M69.1972 59.5153L69.2711 59.2389C70.5586 54.4191 69.1679 49.2334 65.6453 45.7106M69.1972 59.5153L65.6453 45.7106M69.1972 59.5153L59.5008 69.6213C54.5016 70.9595 49.1223 69.4985 45.4898 65.8659C39.8367 60.2129 39.8367 51.0124 45.4898 45.357C50.9633 39.881 60.1669 40.2346 65.6453 45.7106M69.1972 59.5153L69.3981 59.719L78.3773 68.8249L68.8297 78.3715M69.1972 59.5153L68.8297 78.3715M65.6453 45.7106C60.3621 40.4298 51.1215 40.43 45.8434 45.7104M65.6453 45.7106L68.8297 78.3715M68.8297 78.3715L59.8568 69.2703L59.6525 69.0631L59.3715 69.1383C54.5455 70.4302 49.3501 69.0192 45.8433 65.5124C40.3856 60.0547 40.3855 51.1707 45.8434 45.7104M45.8434 45.7104L45.5066 45.3738M62.4785 60.3778C62.2079 61.3831 61.4219 62.1695 60.4167 62.44L55.057 63.8767L55.0552 63.8771C54.0999 64.1399 53.0032 63.8899 52.2362 63.1227L48.311 59.1975C47.5736 58.4601 47.2856 57.3863 47.5561 56.3801M62.4785 60.3778L47.5561 56.3801M62.4785 60.3778L63.9159 55.0156C64.1866 54.0093 63.8986 52.9353 63.1611 52.1978L59.2359 48.2726C58.4994 47.5361 57.4256 47.2443 56.4178 47.5179L56.4168 47.5182L51.0559 48.9552C50.0507 49.2257 49.2643 50.0117 48.9937 51.017L47.5561 56.3801" stroke="#252525"/>
</svg>
