<svg width="36" height="36" viewBox="0 0 36 36" fill="none" xmlns="http://www.w3.org/2000/svg">
<path fill-rule="evenodd" clip-rule="evenodd" d="M32.2553 8.76087C32.7522 9.27083 33.1103 9.90548 33.2938 10.6016C34.3507 14.9679 34.1065 21.8636 33.3143 26.3983C33.1308 27.0945 32.7727 27.7292 32.2758 28.2391C31.7789 28.7491 31.1605 29.1166 30.4822 29.3049C27.9989 30 18.0043 30 18.0043 30C18.0043 30 8.00974 30 5.52648 29.3049C4.84816 29.1166 4.22975 28.7491 3.73285 28.2391C3.23595 27.7292 2.87789 27.0945 2.69434 26.3983C1.63126 22.0511 1.92268 15.1511 2.67382 10.6227C2.85737 9.92655 3.21542 9.29188 3.71233 8.78192C4.20922 8.27196 4.82763 7.90449 5.50596 7.71612C7.98922 7.02106 17.9838 7 17.9838 7C17.9838 7 27.9784 7 30.4617 7.69505C31.14 7.88344 31.7584 8.25091 32.2553 8.76087ZM23.094 18.5L14.8028 23.4286V13.5714L23.094 18.5Z" fill="#3562AC"/>
</svg>
