<svg width="36" height="36" viewBox="0 0 36 36" fill="none" xmlns="http://www.w3.org/2000/svg">
<mask id="mask0_75_101" style="mask-type:alpha" maskUnits="userSpaceOnUse" x="0" y="0" width="36" height="36">
<rect width="36" height="36" fill="#D9D9D9"/>
</mask>
<g mask="url(#mask0_75_101)">
<path d="M18.0001 4.88289C22.2723 4.88289 22.7783 4.89922 24.4655 4.97619C26.0255 5.04733 26.8726 5.30798 27.4364 5.5271C28.1833 5.81735 28.7163 6.16406 29.2761 6.72392C29.8361 7.28384 30.1828 7.81683 30.473 8.56367C30.6921 9.12747 30.9528 9.97466 31.0239 11.5346C31.1009 13.2218 31.1172 13.7278 31.1172 18C31.1172 22.2722 31.1009 22.7783 31.0239 24.4654C30.9528 26.0254 30.6921 26.8726 30.473 27.4364C30.1828 28.1832 29.8361 28.7162 29.2762 29.276C28.7163 29.836 28.1833 30.1827 27.4364 30.4729C26.8726 30.6921 26.0255 30.9527 24.4655 31.0238C22.7786 31.1008 22.2726 31.1171 18.0001 31.1171C13.7276 31.1171 13.2216 31.1008 11.5347 31.0238C9.97469 30.9527 9.12749 30.6921 8.5637 30.4729C7.81685 30.1827 7.28386 29.836 6.724 29.276C6.16414 28.7162 5.81736 28.1832 5.52711 27.4364C5.30799 26.8726 5.04734 26.0254 4.9762 24.4654C4.89923 22.7783 4.8829 22.2722 4.8829 18C4.8829 13.7278 4.89923 13.2218 4.9762 11.5346C5.04734 9.97466 5.30799 9.12747 5.52711 8.56367C5.81736 7.81683 6.16407 7.28384 6.724 6.72398C7.28386 6.16406 7.81685 5.81735 8.5637 5.5271C9.12749 5.30798 9.97469 5.04733 11.5347 4.97619C13.2218 4.89922 13.7279 4.88289 18.0001 4.88289ZM18.0001 2.00002C13.6547 2.00002 13.1098 2.01843 11.4033 2.0963C9.70025 2.17397 8.53715 2.44447 7.51943 2.83996C6.46728 3.24885 5.575 3.79595 4.68544 4.68543C3.79595 5.57498 3.24886 6.46727 2.84003 7.51941C2.44447 8.53713 2.17398 9.70022 2.0963 11.4032C2.01843 13.1098 2.00002 13.6547 2.00002 18C2.00002 22.3454 2.01843 22.8902 2.0963 24.5968C2.17398 26.2998 2.44447 27.4629 2.84003 28.4806C3.24886 29.5328 3.79595 30.425 4.68544 31.3146C5.575 32.2041 6.46728 32.7512 7.51943 33.16C8.53715 33.5556 9.70025 33.8261 11.4033 33.9037C13.1098 33.9816 13.6547 34 18.0001 34C22.3454 34 22.8903 33.9816 24.5969 33.9037C26.2999 33.8261 27.463 33.5556 28.4807 33.16C29.5329 32.7512 30.4251 32.2041 31.3147 31.3146C32.2042 30.425 32.7513 29.5328 33.1602 28.4806C33.5557 27.4629 33.8262 26.2998 33.9038 24.5968C33.9817 22.8902 34.0001 22.3454 34.0001 18C34.0001 13.6547 33.9817 13.1098 33.9038 11.4032C33.8262 9.70022 33.5557 8.53713 33.1602 7.51941C32.7513 6.46727 32.2042 5.57498 31.3147 4.68543C30.4251 3.79595 29.5329 3.24885 28.4807 2.83996C27.463 2.44447 26.2999 2.17397 24.5969 2.0963C22.8903 2.01843 22.3454 2.00002 18.0001 2.00002Z" fill="#3562AC"/>
<path d="M18.0075 9.79105C13.4697 9.79105 9.79121 13.4695 9.79121 18.0072C9.79121 22.545 13.4697 26.2235 18.0075 26.2235C22.5452 26.2235 26.2237 22.545 26.2237 18.0072C26.2237 13.4695 22.5452 9.79105 18.0075 9.79105ZM18.0075 23.3406C15.0619 23.3406 12.6741 20.9528 12.6741 18.0072C12.6741 15.0617 15.0619 12.6739 18.0075 12.6739C20.953 12.6739 23.3408 15.0617 23.3408 18.0072C23.3408 20.9528 20.953 23.3406 18.0075 23.3406Z" fill="#3562AC"/>
<path d="M28.4679 9.46173C28.4679 10.5221 27.6082 11.3817 26.5478 11.3817C25.4875 11.3817 24.6278 10.5221 24.6278 9.46173C24.6278 8.40133 25.4875 7.54169 26.5478 7.54169C27.6082 7.54169 28.4679 8.40133 28.4679 9.46173Z" fill="#3562AC"/>
</g>
</svg>
