<svg width="36" height="36" viewBox="0 0 36 36" fill="none" xmlns="http://www.w3.org/2000/svg">
<path fill-rule="evenodd" clip-rule="evenodd" d="M10 2C5.58172 2 2 5.58172 2 10V26C2 30.4183 5.58172 34 10 34H26C30.4183 34 34 30.4183 34 26V10C34 5.58172 30.4183 2 26 2H10ZM21.3204 10.74C21.8498 10.74 22.6917 10.8331 23.315 10.9578L23.8753 7.43633C22.6602 7.187 21.7252 7 20.4477 7C16.7708 7 15.3063 8.74533 15.3063 11.8613V14.1361H13V17.8137H15.3063V29H19.7936V17.8137H23.065L23.3774 14.1361H19.7936V12.3607C19.7936 11.3633 19.8867 10.74 21.3204 10.74Z" fill="#3562AC"/>
</svg>
