<svg width="36" height="36" viewBox="0 0 36 36" fill="none" xmlns="http://www.w3.org/2000/svg">
<mask id="mask0_75_96" style="mask-type:alpha" maskUnits="userSpaceOnUse" x="0" y="0" width="36" height="36">
<rect width="36" height="36" fill="#D9D9D9"/>
</mask>
<g mask="url(#mask0_75_96)">
<path fill-rule="evenodd" clip-rule="evenodd" d="M34.2234 7.19588C33.002 7.7385 31.6876 8.10392 30.3089 8.26892C31.7163 7.4251 32.7971 6.08961 33.3054 4.49831C31.9899 5.28012 30.5292 5.84599 28.9778 6.15274C27.7342 4.82832 25.9613 4 24.0024 4C20.2384 4 17.1865 7.05192 17.1865 10.8159C17.1865 11.3496 17.2474 11.8701 17.3637 12.3695C11.6983 12.086 6.6764 9.37187 3.31441 5.24801C2.7275 6.25461 2.39197 7.42512 2.39197 8.67424C2.39197 11.0385 3.59347 13.1248 5.42396 14.3473C4.30551 14.3119 3.25572 14.0051 2.33549 13.4946V13.5799C2.33549 16.8832 4.68645 19.6372 7.8026 20.2651C7.23119 20.4201 6.62878 20.5043 6.00755 20.5043C5.56792 20.5043 5.14047 20.4611 4.7241 20.3814C5.59117 23.0889 8.10934 25.06 11.0915 25.1154C8.75937 26.9426 5.8204 28.0333 2.62673 28.0333C2.07526 28.0333 1.53265 28.0012 1 27.937C4.01649 29.8705 7.59884 31 11.4481 31C23.9847 31 30.8404 20.6139 30.8404 11.6077C30.8404 11.312 30.8349 11.0174 30.8205 10.7262C32.1538 9.76278 33.3099 8.56238 34.2234 7.19588Z" fill="#3562AC"/>
</g>
</svg>
