<svg width="66" height="66" viewBox="0 0 66 66" fill="none" xmlns="http://www.w3.org/2000/svg">
<path d="M33 66C51.2254 66 66 51.2254 66 33C66 14.7746 51.2254 0 33 0C14.7746 0 0 14.7746 0 33C0 51.2254 14.7746 66 33 66Z" fill="#C5DBFF"/>
<path d="M51.334 25.667H18.334V53.167H51.334V25.667Z" fill="#F8F9F9"/>
<path d="M47.6667 29.3335H22V53.1668H47.6667V29.3335Z" fill="#BEC6C6"/>
<path d="M41.2513 43.0833H28.418L29.0413 39.9758C29.2155 39.1142 29.9671 38.5 30.838 38.5H38.8313C39.7021 38.5 40.4538 39.1142 40.628 39.9758L41.2513 43.0833Z" fill="#F8F9F9"/>
<path d="M43.084 45.6777V48.5835C43.084 49.0877 42.6715 49.5002 42.1673 49.5002H27.5007C26.9965 49.5002 26.584 49.0877 26.584 48.5835V45.6777C26.584 45.1918 26.7765 44.7243 27.1248 44.3852L28.4173 43.0835H41.2507L42.5432 44.376C42.8915 44.7243 43.084 45.1918 43.084 45.6777Z" fill="#F8F9F9"/>
<path d="M30.2513 53.1667C29.243 53.1667 28.418 52.3417 28.418 51.3333V49.5H32.0846V51.3333C32.0846 52.3417 31.2596 53.1667 30.2513 53.1667Z" fill="#F8F9F9"/>
<path d="M39.4173 53.1667C38.409 53.1667 37.584 52.3417 37.584 51.3333V49.5H41.2507V51.3333C41.2507 52.3417 40.4257 53.1667 39.4173 53.1667Z" fill="#F8F9F9"/>
<path d="M47.6667 29.3335H22V33.0002H47.6667V29.3335Z" fill="#F8F9F9"/>
<path d="M16.5 22.9168V25.6668H53.1667V22.9168L34.8333 12.8335L16.5 22.9168Z" fill="#BEC6C6"/>
<path d="M42.1667 22H27.5V25.6667H42.1667V22Z" fill="#F8F9F9"/>
<path d="M39.4173 22L37.584 25.6667" stroke="#3562AC" stroke-miterlimit="10" stroke-linecap="round" stroke-linejoin="round"/>
<path d="M35.7513 22L33.918 25.6667" stroke="#3562AC" stroke-miterlimit="10" stroke-linecap="round" stroke-linejoin="round"/>
<path d="M32.0833 22L30.25 25.6667" stroke="#3562AC" stroke-miterlimit="10" stroke-linecap="round" stroke-linejoin="round"/>
<path d="M12.834 53.167H53.1673" stroke="#414141" stroke-width="0.5" stroke-miterlimit="10" stroke-linecap="round" stroke-linejoin="round"/>
<path d="M51.334 25.667H18.334V53.167H51.334V25.667Z" stroke="#414141" stroke-width="0.5" stroke-miterlimit="10" stroke-linecap="round" stroke-linejoin="round"/>
<path d="M16.5 22.9168V25.6668H53.1667V22.9168L34.8333 12.8335L16.5 22.9168Z" stroke="#414141" stroke-width="0.5" stroke-miterlimit="10" stroke-linecap="round" stroke-linejoin="round"/>
<path d="M47.6667 29.3335H22V53.1668H47.6667V29.3335Z" stroke="#414141" stroke-width="0.5" stroke-miterlimit="10" stroke-linecap="round" stroke-linejoin="round"/>
<path d="M42.1667 22H27.5V25.6667H42.1667V22Z" stroke="#414141" stroke-width="0.5" stroke-miterlimit="10" stroke-linecap="round" stroke-linejoin="round"/>
<path d="M23.834 48.5833V50.4167C23.834 51.425 23.009 52.25 22.0007 52.25H14.6673C13.659 52.25 12.834 51.425 12.834 50.4167V48.5833C12.834 47.575 13.659 46.75 14.6673 46.75H22.0007C23.009 46.75 23.834 47.575 23.834 48.5833Z" fill="#BEC6C6"/>
<path d="M21.6517 46.75L20.9825 48.0792C20.8267 48.4 20.5058 48.5833 20.1667 48.5833C20.0292 48.5833 19.8917 48.5558 19.7542 48.4825C19.305 48.2625 19.1217 47.7125 19.3508 47.2542L19.6075 46.75H21.6517Z" fill="#F8F9F9"/>
<path d="M17.9857 46.75L17.3165 48.0792C17.1607 48.4 16.8398 48.5833 16.5007 48.5833C16.3632 48.5833 16.2257 48.5558 16.0882 48.4825C15.639 48.2625 15.4557 47.7125 15.6848 47.2542L15.9415 46.75H17.9857Z" fill="#F8F9F9"/>
<path d="M21.6517 52.2503L20.9825 50.9212C20.8267 50.6003 20.5058 50.417 20.1667 50.417C20.0292 50.417 19.8917 50.4445 19.7542 50.5178C19.305 50.7378 19.1217 51.2878 19.3508 51.7462L19.6075 52.2503H21.6517Z" fill="#F8F9F9"/>
<path d="M17.9857 52.2503L17.3165 50.9212C17.1607 50.6003 16.8398 50.417 16.5007 50.417C16.3632 50.417 16.2257 50.4445 16.0882 50.5178C15.639 50.7378 15.4557 51.2878 15.6848 51.7462L15.9415 52.2503H17.9857Z" fill="#F8F9F9"/>
<path d="M23.834 48.5833V50.4167C23.834 51.425 23.009 52.25 22.0007 52.25H14.6673C13.659 52.25 12.834 51.425 12.834 50.4167V48.5833C12.834 47.575 13.659 46.75 14.6673 46.75H22.0007C23.009 46.75 23.834 47.575 23.834 48.5833Z" stroke="#414141" stroke-width="0.5" stroke-miterlimit="10" stroke-linecap="round" stroke-linejoin="round"/>
<path d="M41.25 43.0837L43.0833 42.167H44" stroke="#414141" stroke-width="0.5" stroke-miterlimit="10" stroke-linecap="round" stroke-linejoin="round"/>
<path d="M41.2513 43.0833H28.418L29.0413 39.9758C29.2155 39.1142 29.9671 38.5 30.838 38.5H38.8313C39.7021 38.5 40.4538 39.1142 40.628 39.9758L41.2513 43.0833Z" stroke="#414141" stroke-width="0.5" stroke-miterlimit="10" stroke-linecap="round" stroke-linejoin="round"/>
<path d="M43.084 45.6777V48.5835C43.084 49.0877 42.6715 49.5002 42.1673 49.5002H27.5007C26.9965 49.5002 26.584 49.0877 26.584 48.5835V45.6777C26.584 45.1918 26.7765 44.7243 27.1248 44.3852L28.4173 43.0835H41.2507L42.5432 44.376C42.8915 44.7243 43.084 45.1918 43.084 45.6777Z" stroke="#414141" stroke-width="0.5" stroke-miterlimit="10" stroke-linecap="round" stroke-linejoin="round"/>
<path d="M30.2513 53.1667C29.243 53.1667 28.418 52.3417 28.418 51.3333V49.5H32.0846V51.3333C32.0846 52.3417 31.2596 53.1667 30.2513 53.1667Z" stroke="#414141" stroke-width="0.5" stroke-miterlimit="10" stroke-linecap="round" stroke-linejoin="round"/>
<path d="M39.4173 53.1667C38.409 53.1667 37.584 52.3417 37.584 51.3333V49.5H41.2507V51.3333C41.2507 52.3417 40.4257 53.1667 39.4173 53.1667Z" stroke="#414141" stroke-width="0.5" stroke-miterlimit="10" stroke-linecap="round" stroke-linejoin="round"/>
<path d="M28.418 43.0837L26.5846 42.167H25.668" stroke="#414141" stroke-width="0.5" stroke-miterlimit="10" stroke-linecap="round" stroke-linejoin="round"/>
<path d="M30.5996 47.1668H28.918V46.7502C28.918 46.5221 29.1067 46.3335 29.3346 46.3335H31.2781L30.9774 46.9391C30.9773 46.9392 30.9772 46.9394 30.9771 46.9396C30.9085 47.0764 30.7642 47.1668 30.5996 47.1668Z" fill="#6457FF" stroke="#3562AC"/>
<path d="M40.7507 46.7502V47.1668H39.069C38.9045 47.1668 38.7601 47.0764 38.6914 46.9396L38.3905 46.3335H40.334C40.562 46.3335 40.7507 46.5221 40.7507 46.7502Z" fill="#6457FF" stroke="#3562AC"/>
<path d="M37.584 48.5833H32.084L32.744 47.2542C32.8998 46.9425 33.2115 46.75 33.5598 46.75H36.0898C36.4382 46.75 36.7498 46.9425 36.9057 47.2542L37.584 48.5833Z" fill="#BEC6C6"/>
<path d="M47.6667 29.3335H22V33.0002H47.6667V29.3335Z" stroke="#414141" stroke-width="0.5" stroke-miterlimit="10" stroke-linecap="round" stroke-linejoin="round"/>
</svg>
