<svg width="37" height="37" viewBox="0 0 37 37" fill="none" xmlns="http://www.w3.org/2000/svg">
<rect width="37" height="37" fill="url(#paint0_radial_1053:38464)"/>
<path d="M14.7066 18.7139C14.7066 16.706 16.3339 15.0778 18.3418 15.0778C20.3497 15.0778 21.9778 16.706 21.9778 18.7139C21.9778 20.7217 20.3497 22.3499 18.3418 22.3499C16.3339 22.3499 14.7066 20.7217 14.7066 18.7139V18.7139ZM12.7411 18.7139C12.7411 21.8071 15.2485 24.3146 18.3418 24.3146C21.4351 24.3146 23.9425 21.8071 23.9425 18.7139C23.9425 15.6206 21.4351 13.1131 18.3418 13.1131C15.2485 13.1131 12.7411 15.6204 12.7411 18.7139H12.7411ZM22.8554 12.8911C22.8553 13.1499 22.932 13.403 23.0757 13.6183C23.2195 13.8336 23.4238 14.0015 23.663 14.1006C23.9021 14.1998 24.1652 14.2258 24.4191 14.1754C24.6731 14.125 24.9063 14.0004 25.0895 13.8175C25.2726 13.6345 25.3973 13.4013 25.4479 13.1474C25.4985 12.8936 25.4727 12.6304 25.3737 12.3912C25.2748 12.152 25.1071 11.9475 24.8919 11.8036C24.6767 11.6597 24.4237 11.5828 24.1648 11.5827H24.1643C23.8173 11.5829 23.4846 11.7208 23.2392 11.9661C22.9938 12.2114 22.8558 12.5441 22.8554 12.8911V12.8911ZM13.9353 27.5921C12.8719 27.5437 12.2939 27.3666 11.9098 27.2169C11.4005 27.0187 11.0372 26.7826 10.6552 26.4011C10.2732 26.0196 10.0367 25.6566 9.83931 25.1474C9.68957 24.7634 9.51244 24.1853 9.4641 23.1218C9.41122 21.9721 9.40066 21.6268 9.40066 18.714C9.40066 15.8013 9.41209 15.4569 9.4641 14.3062C9.51253 13.2428 9.69097 12.6658 9.83931 12.2807C10.0376 11.7715 10.2737 11.4081 10.6552 11.0261C11.0367 10.6441 11.3996 10.4076 11.9098 10.2102C12.2937 10.0605 12.8719 9.88337 13.9353 9.83503C15.085 9.78215 15.4303 9.7716 18.3418 9.7716C21.2532 9.7716 21.5989 9.78285 22.7496 9.83521C23.813 9.88364 24.3901 10.0621 24.7751 10.2104C25.2844 10.4078 25.6477 10.6448 26.0297 11.0263C26.4117 11.4078 26.6473 11.7716 26.8456 12.2809C26.9953 12.6648 27.1724 13.243 27.2208 14.3064C27.2737 15.457 27.2842 15.8015 27.2842 18.7142C27.2842 21.6269 27.2737 21.9714 27.2208 23.122C27.1723 24.1854 26.9943 24.7634 26.8456 25.1475C26.6473 25.6568 26.4112 26.0201 26.0297 26.4013C25.6482 26.7824 25.2844 27.0189 24.7751 27.2171C24.3912 27.3668 23.813 27.544 22.7496 27.5923C21.5999 27.6452 21.2545 27.6558 18.3418 27.6558C15.429 27.6558 15.0846 27.6452 13.9353 27.5923V27.5921ZM13.845 7.87269C12.6838 7.92557 11.8904 8.10969 11.1975 8.37931C10.4803 8.65775 9.87238 9.0313 9.26532 9.63739C8.65827 10.2435 8.28568 10.8515 8.00724 11.5695C7.73762 12.2629 7.5535 13.0559 7.50062 14.217C7.44687 15.38 7.43457 15.7518 7.43457 18.7139C7.43457 21.6759 7.44687 22.0477 7.50062 23.2107C7.5535 24.3719 7.73762 25.1648 8.00724 25.8582C8.28568 26.5753 8.65836 27.1845 9.26532 27.7903C9.87229 28.3961 10.4794 28.7692 11.1975 29.0484C11.8917 29.318 12.6838 29.5021 13.845 29.555C15.0085 29.6079 15.3797 29.6211 18.3418 29.6211C21.3038 29.6211 21.6756 29.6088 22.8386 29.555C23.9998 29.5021 24.7927 29.318 25.4861 29.0484C26.2033 28.7692 26.8112 28.3964 27.4182 27.7903C28.0253 27.1842 28.3971 26.5753 28.6763 25.8582C28.946 25.1648 29.1309 24.3718 29.1829 23.2107C29.2358 22.0468 29.2481 21.6759 29.2481 18.7139C29.2481 15.7518 29.2358 15.38 29.1829 14.217C29.1301 13.0558 28.946 12.2625 28.6763 11.5695C28.3971 10.8524 28.0243 10.2444 27.4182 9.63739C26.8122 9.03034 26.2033 8.65775 25.487 8.37931C24.7927 8.10969 23.9997 7.9247 22.8395 7.87269C21.6763 7.81955 21.3047 7.80664 18.3431 7.80664C15.3815 7.80664 15.009 7.81894 13.8454 7.87269" fill="white"/>
<defs>
<radialGradient id="paint0_radial_1053:38464" cx="0" cy="0" r="1" gradientUnits="userSpaceOnUse" gradientTransform="translate(2.3946 36.1894) scale(46.9763)">
<stop offset="0.09" stop-color="#FA8F21"/>
<stop offset="0.78" stop-color="#EB2482"/>
</radialGradient>
</defs>
</svg>
