<svg width="37" height="37" viewBox="0 0 37 37" fill="none" xmlns="http://www.w3.org/2000/svg">
<g clip-path="url(#clip0_1053:38465)">
<rect width="37" height="37" fill="#157EE7"/>
<rect width="37.1725" height="37.1725" rx="18.5862" fill="#157EE7"/>
<path d="M9.03223 11.6021C9.03223 10.9894 9.24741 10.4839 9.67774 10.0857C10.1081 9.68741 10.6675 9.48828 11.3561 9.48828C12.0324 9.48828 12.5795 9.68434 12.9976 10.0765C13.4279 10.4809 13.6431 11.0078 13.6431 11.6573C13.6431 12.2455 13.4341 12.7356 13.016 13.1278C12.5857 13.5322 12.0201 13.7344 11.3192 13.7344H11.3008C10.6245 13.7344 10.0774 13.5322 9.6593 13.1278C9.24125 12.7234 9.03223 12.2148 9.03223 11.6021ZM9.27199 27.6857V15.4071H13.3664V27.6857H9.27199ZM15.635 27.6857H19.7294V20.8295C19.7294 20.4006 19.7786 20.0698 19.8769 19.8369C20.0491 19.4203 20.3104 19.068 20.6608 18.78C21.0112 18.492 21.4508 18.3481 21.9795 18.3481C23.3566 18.3481 24.0451 19.2732 24.0451 21.1236V27.6857H28.1396V20.6457C28.1396 18.8321 27.7092 17.4566 26.8485 16.5191C25.9878 15.5817 24.8505 15.113 23.4365 15.113C21.8504 15.113 20.6147 15.7931 19.7294 17.1533V17.19H19.7109L19.7294 17.1533V15.4071H15.635C15.6595 15.7992 15.6718 17.0185 15.6718 19.0649C15.6718 21.1114 15.6595 23.985 15.635 27.6857Z" fill="white"/>
</g>
<defs>
<clipPath id="clip0_1053:38465">
<rect width="37" height="37" fill="white"/>
</clipPath>
</defs>
</svg>
