<svg width="37" height="37" viewBox="0 0 37 37" fill="none" xmlns="http://www.w3.org/2000/svg">
<g clip-path="url(#clip0_1053:38463)">
<rect width="37" height="37" fill="#009EFF"/>
<rect width="37.1729" height="37.1729" rx="18.5864" fill="#009EFF"/>
<path d="M21.7138 10.7828V10.7793H22.6376L22.9752 10.8467C23.2002 10.8905 23.4045 10.9478 23.5881 11.0188C23.7716 11.0898 23.9493 11.1726 24.121 11.2672C24.2927 11.3618 24.4485 11.4582 24.5883 11.5563C24.7268 11.6533 24.8512 11.7562 24.9613 11.865C25.0703 11.975 25.2402 12.0034 25.4712 11.9502C25.7021 11.897 25.9508 11.823 26.2173 11.7284C26.4838 11.6338 26.7473 11.5274 27.0079 11.4091C27.2684 11.2908 27.4271 11.2157 27.484 11.1838C27.5396 11.1507 27.5693 11.1329 27.5728 11.1306L27.5763 11.1252L27.5941 11.1164L27.6119 11.1075L27.6296 11.0986L27.6474 11.0898L27.651 11.0844L27.6563 11.0809L27.6616 11.0773L27.6652 11.072L27.6829 11.0667L27.7007 11.0631L27.6972 11.0898L27.6918 11.1164L27.6829 11.143L27.6741 11.1696L27.6652 11.1873L27.6563 11.2051L27.6474 11.2317C27.6415 11.2494 27.6356 11.2731 27.6296 11.3026C27.6237 11.3322 27.5675 11.4505 27.4609 11.6575C27.3543 11.8644 27.221 12.0744 27.0612 12.2873C26.9013 12.5001 26.758 12.661 26.6313 12.7698C26.5033 12.8798 26.4187 12.9567 26.3772 13.0004C26.3357 13.0454 26.2854 13.0868 26.2262 13.1246L26.1374 13.1832L26.1196 13.192L26.1018 13.2009L26.0983 13.2062L26.0929 13.2098L26.0876 13.2133L26.0841 13.2186L26.0663 13.2275L26.0485 13.2364L26.045 13.2417L26.0397 13.2452L26.0343 13.2488L26.0308 13.2541L26.0272 13.2594L26.0219 13.263L26.0166 13.2665L26.013 13.2719H26.1018L26.5993 13.1654C26.9309 13.0945 27.2477 13.0087 27.5497 12.9082L28.0294 12.7485L28.0827 12.7308L28.1093 12.7219L28.1271 12.713L28.1448 12.7042L28.1626 12.6953L28.1804 12.6864L28.2159 12.6811L28.2514 12.6775V12.713L28.2425 12.7166L28.2337 12.7219L28.2301 12.7272L28.2248 12.7308L28.2194 12.7343L28.2159 12.7396L28.2124 12.745L28.207 12.7485L28.2017 12.7521L28.1981 12.7574L28.1946 12.7627L28.1892 12.7663L28.1804 12.784L28.1715 12.8017L28.1661 12.8053C28.1638 12.8088 28.0886 12.9093 27.9405 13.1069C27.7925 13.3056 27.7125 13.4061 27.7007 13.4085C27.6889 13.412 27.6723 13.4298 27.651 13.4617C27.6308 13.4948 27.5053 13.6267 27.2743 13.8573C27.0434 14.0879 26.8172 14.2931 26.5957 14.4729C26.3731 14.6539 26.2605 14.8762 26.2582 15.14C26.2546 15.4025 26.241 15.6994 26.2173 16.0305C26.1936 16.3617 26.1492 16.7195 26.0841 17.1038C26.0189 17.4882 25.9183 17.9229 25.7821 18.4078C25.6459 18.8927 25.48 19.3658 25.2846 19.827C25.0892 20.2883 24.8849 20.7022 24.6717 21.0689C24.4585 21.4355 24.2631 21.746 24.0855 22.0003C23.9078 22.2545 23.7272 22.494 23.5436 22.7188C23.3601 22.9435 23.128 23.1966 22.8473 23.4781C22.5654 23.7584 22.4114 23.9121 22.3854 23.9393C22.3581 23.9653 22.2421 24.0623 22.0372 24.2303C21.8335 24.3994 21.6143 24.5685 21.3798 24.7376C21.1465 24.9056 20.9322 25.0457 20.7367 25.1581C20.5413 25.2704 20.3056 25.3988 20.0297 25.5431C19.7549 25.6885 19.4576 25.8234 19.1379 25.9476C18.8181 26.0717 18.4806 26.1871 18.1253 26.2935C17.7699 26.3999 17.4265 26.4827 17.0949 26.5419C16.7633 26.601 16.3872 26.6513 15.9668 26.6927L15.3361 26.7548V26.7636H14.1814V26.7548L14.0304 26.7459C13.9297 26.74 13.8468 26.7341 13.7817 26.7281C13.7165 26.7222 13.4708 26.6897 13.0444 26.6306C12.618 26.5714 12.2835 26.5123 12.0407 26.4532C11.7979 26.394 11.4367 26.2817 10.957 26.1161C10.4773 25.9505 10.067 25.7832 9.72586 25.614C9.38596 25.4461 9.17278 25.3396 9.08631 25.2947C9.00104 25.2509 8.90511 25.1965 8.79852 25.1315L8.63863 25.0339L8.6351 25.0286L8.62975 25.025L8.62442 25.0215L8.62087 25.0162L8.6031 25.0073L8.58534 24.9984L8.5818 24.9931L8.57645 24.9896L8.57112 24.986L8.56757 24.9807L8.56403 24.9754L8.55869 24.9718H8.5498V24.9363L8.56757 24.9399L8.58534 24.9452L8.66528 24.9541C8.71857 24.96 8.86366 24.9689 9.10053 24.9807C9.33741 24.9925 9.58907 24.9925 9.85555 24.9807C10.122 24.9689 10.3944 24.9422 10.6727 24.9009C10.9511 24.8595 11.2797 24.7885 11.6587 24.688C12.0377 24.5874 12.3859 24.468 12.7033 24.3296C13.0195 24.1901 13.2446 24.086 13.3784 24.0174C13.511 23.95 13.7136 23.8246 13.986 23.6413L14.3946 23.3663L14.3981 23.361L14.4034 23.3574L14.4088 23.3539L14.4123 23.3486L14.4159 23.3432L14.4212 23.3397L14.4266 23.3361L14.4301 23.3308L14.4479 23.3255L14.4656 23.3219L14.4692 23.3042L14.4745 23.2865L14.4798 23.2829L14.4834 23.2776L14.3413 23.2687C14.2465 23.2628 14.1547 23.2569 14.0659 23.251C13.9771 23.2451 13.8379 23.2185 13.6484 23.1711C13.4589 23.1238 13.2546 23.0529 13.0355 22.9583C12.8164 22.8636 12.6032 22.7513 12.396 22.6212C12.1887 22.4911 12.0389 22.3829 11.9465 22.2965C11.8553 22.2114 11.7369 22.0907 11.5912 21.9346C11.4467 21.7773 11.3212 21.6159 11.2146 21.4503C11.108 21.2847 11.0061 21.0937 10.909 20.8773L10.7616 20.5544L10.7527 20.5278L10.7438 20.5012L10.7385 20.4834L10.7349 20.4657L10.7616 20.4692L10.7882 20.4746L10.9836 20.5012C11.1139 20.5189 11.3182 20.5248 11.5965 20.5189C11.8749 20.513 12.0673 20.5012 12.1739 20.4834C12.2805 20.4657 12.3456 20.4539 12.3693 20.448L12.4049 20.4391L12.4493 20.4302L12.4937 20.4213L12.4972 20.416L12.5026 20.4125L12.5079 20.4089L12.5114 20.4036L12.4759 20.3947L12.4404 20.3859L12.4049 20.377L12.3693 20.3681L12.3338 20.3593C12.3101 20.3533 12.2687 20.3415 12.2094 20.3238C12.1502 20.306 11.9903 20.241 11.7298 20.1286C11.4692 20.0163 11.262 19.9069 11.108 19.8004C10.9536 19.6937 10.8065 19.5769 10.6674 19.4509C10.5288 19.3232 10.3767 19.1588 10.2109 18.9577C10.045 18.7567 9.89701 18.5231 9.76672 18.257C9.63645 17.9909 9.53874 17.7366 9.4736 17.4941C9.40871 17.2531 9.36591 17.0067 9.3457 16.7579L9.31371 16.3853L9.33147 16.3889L9.34924 16.3942L9.367 16.4031L9.38477 16.412L9.40253 16.4208L9.4203 16.4297L9.69566 16.5539C9.87925 16.6367 10.1072 16.7076 10.3796 16.7668C10.652 16.8259 10.8149 16.8584 10.8682 16.8643L10.9481 16.8732H11.108L11.1045 16.8679L11.0991 16.8643L11.0938 16.8608L11.0902 16.8555L11.0867 16.8501L11.0813 16.8466L11.076 16.8431L11.0725 16.8377L11.0547 16.8289L11.0369 16.82L11.0334 16.8147L11.0281 16.8111L11.0227 16.8076L11.0192 16.8022L11.0014 16.7934L10.9836 16.7845L10.9801 16.7792C10.9765 16.7768 10.9256 16.739 10.8273 16.6656C10.7302 16.5911 10.6283 16.4948 10.5217 16.3765C10.4152 16.2582 10.3086 16.134 10.202 16.0039C10.0952 15.8735 10.0001 15.734 9.91773 15.587C9.83483 15.4392 9.74718 15.2511 9.6548 15.0229C9.56361 14.7958 9.49433 14.5669 9.44695 14.3363C9.39959 14.1057 9.37294 13.878 9.367 13.6533C9.36109 13.4286 9.367 13.2364 9.38477 13.0767C9.40253 12.917 9.43807 12.7367 9.49136 12.5356C9.54466 12.3346 9.62165 12.1217 9.72231 11.897L9.87331 11.5599L9.8822 11.5333L9.89108 11.5067L9.89643 11.5031L9.89996 11.4978L9.90351 11.4925L9.90884 11.4889L9.91419 11.4925L9.91773 11.4978L9.92128 11.5031L9.92661 11.5067L9.93196 11.5102L9.93549 11.5155L9.93904 11.5209L9.94437 11.5244L9.95326 11.5421L9.96214 11.5599L9.96749 11.5634L9.97102 11.5688L10.2109 11.8349C10.3707 12.0123 10.5602 12.2104 10.7793 12.4292C10.9985 12.648 11.1198 12.7615 11.1435 12.7698C11.1672 12.7793 11.1968 12.8065 11.2324 12.8514C11.2679 12.8952 11.3863 12.9998 11.5877 13.1654C11.789 13.331 12.0525 13.5232 12.3782 13.742C12.7039 13.9608 13.0651 14.1766 13.4619 14.3895C13.8587 14.6024 14.285 14.7946 14.741 14.9661C15.197 15.1376 15.5167 15.2499 15.7003 15.3032C15.8839 15.3564 16.1977 15.4244 16.6419 15.5072C17.086 15.59 17.4206 15.6432 17.6456 15.6668C17.8706 15.6905 18.0246 15.7041 18.1075 15.7077L18.2318 15.7112L18.2283 15.6846L18.223 15.658L18.1874 15.4362C18.1637 15.2884 18.1519 15.0814 18.1519 14.8153C18.1519 14.5492 18.1726 14.3038 18.2141 14.0791C18.2555 13.8543 18.3177 13.6267 18.4006 13.396C18.4835 13.1654 18.5647 12.9803 18.644 12.8408C18.7245 12.7024 18.8299 12.5445 18.9602 12.3671C19.0905 12.1897 19.2593 12.0064 19.4665 11.8171C19.6738 11.6279 19.9107 11.4593 20.1771 11.3115C20.4436 11.1637 20.6894 11.0513 20.9144 10.9744C21.1394 10.8976 21.3289 10.8473 21.4829 10.8236C21.6368 10.8 21.7138 10.7864 21.7138 10.7828V10.7828Z" fill="white"/>
</g>
<defs>
<clipPath id="clip0_1053:38463">
<rect width="37" height="37" fill="white"/>
</clipPath>
</defs>
</svg>
