<svg width="24" height="24" viewBox="0 0 24 24" fill="none" xmlns="http://www.w3.org/2000/svg">
<g clip-path="url(#clip0_170_274)">
<path d="M14 15.5H10V23H14V15.5Z" fill="#F8F9F9"/>
<path d="M23 11H1V13H23V11Z" fill="#BEC6C6"/>
<path d="M15.27 15.5H8.73C8.3835 15.4998 8.04775 15.3797 7.77978 15.1601C7.5118 14.9404 7.32814 14.6347 7.26 14.295L7 13H17L16.74 14.295C16.6719 14.6347 16.4882 14.9404 16.2202 15.1601C15.9523 15.3797 15.6165 15.4998 15.27 15.5V15.5Z" fill="#BEC6C6"/>
<path d="M9.77001 1H16.63C16.894 1.00034 17.1532 1.07032 17.3814 1.20289C17.6097 1.33545 17.7989 1.5259 17.93 1.755L19.5 4.5L21.71 4.815C22.0704 4.86594 22.4 5.0462 22.6374 5.32218C22.8747 5.59816 23.0036 5.95102 23 6.315V9H1.00001V6.37C0.998489 5.9945 1.13786 5.63208 1.39059 5.35435C1.64332 5.07663 1.99103 4.90379 2.36501 4.87L6.50001 4.5L8.55001 1.63C8.68853 1.43545 8.8715 1.27679 9.0837 1.16721C9.29589 1.05763 9.53119 1.00031 9.77001 1Z" fill="#F8F9F9"/>
<path d="M2 7.5H1C0.867392 7.5 0.740215 7.44732 0.646447 7.35355C0.552678 7.25979 0.5 7.13261 0.5 7C0.5 6.86739 0.552678 6.74021 0.646447 6.64645C0.740215 6.55268 0.867392 6.5 1 6.5H2C2.13261 6.5 2.25979 6.55268 2.35355 6.64645C2.44732 6.74021 2.5 6.86739 2.5 7C2.5 7.13261 2.44732 7.25979 2.35355 7.35355C2.25979 7.44732 2.13261 7.5 2 7.5Z" fill="#BEC6C6"/>
<path d="M23 7.5H22C21.8674 7.5 21.7402 7.44732 21.6464 7.35355C21.5527 7.25979 21.5 7.13261 21.5 7C21.5 6.86739 21.5527 6.74021 21.6464 6.64645C21.7402 6.55268 21.8674 6.5 22 6.5H23C23.1326 6.5 23.2598 6.55268 23.3536 6.64645C23.4473 6.74021 23.5 6.86739 23.5 7C23.5 7.13261 23.4473 7.25979 23.3536 7.35355C23.2598 7.44732 23.1326 7.5 23 7.5Z" fill="#BEC6C6"/>
<path d="M18.0601 5H7.98511L9.77011 2.5H16.6301L18.0601 5Z" fill="#64B5F6"/>
<path d="M13.5 2.5H12.5V5H13.5V2.5Z" fill="#F8F9F9"/>
<path d="M5 11C6.10457 11 7 10.1046 7 9C7 7.89543 6.10457 7 5 7C3.89543 7 3 7.89543 3 9C3 10.1046 3.89543 11 5 11Z" fill="#BEC6C6"/>
<path d="M19 11C20.1046 11 21 10.1046 21 9C21 7.89543 20.1046 7 19 7C17.8954 7 17 7.89543 17 9C17 10.1046 17.8954 11 19 11Z" fill="#BEC6C6"/>
<path d="M5 9.5C5.27614 9.5 5.5 9.27614 5.5 9C5.5 8.72386 5.27614 8.5 5 8.5C4.72386 8.5 4.5 8.72386 4.5 9C4.5 9.27614 4.72386 9.5 5 9.5Z" fill="#F8F9F9"/>
<path d="M19 9.5C19.2761 9.5 19.5 9.27614 19.5 9C19.5 8.72386 19.2761 8.5 19 8.5C18.7239 8.5 18.5 8.72386 18.5 9C18.5 9.27614 18.7239 9.5 19 9.5Z" fill="#F8F9F9"/>
<path d="M12 7H11C10.8674 7 10.7402 6.94732 10.6464 6.85355C10.5527 6.75979 10.5 6.63261 10.5 6.5C10.5 6.36739 10.5527 6.24021 10.6464 6.14645C10.7402 6.05268 10.8674 6 11 6H12C12.1326 6 12.2598 6.05268 12.3536 6.14645C12.4473 6.24021 12.5 6.36739 12.5 6.5C12.5 6.63261 12.4473 6.75979 12.3536 6.85355C12.2598 6.94732 12.1326 7 12 7Z" fill="#BEC6C6"/>
<path d="M23.5 9V6.3C23.505 5.81544 23.3338 5.34557 23.0184 4.97771C22.7029 4.60985 22.2647 4.36903 21.785 4.3L19.815 4.02L18.365 1.5C18.1892 1.19553 17.9363 0.942776 17.6317 0.767213C17.3271 0.591651 16.9816 0.499484 16.63 0.500002H9.77002C9.4523 0.500107 9.13919 0.575902 8.8566 0.721109C8.57401 0.866315 8.33008 1.07676 8.14502 1.335L6.22502 4.025L2.32002 4.38C1.82137 4.42506 1.35776 4.6555 1.02079 5.02581C0.683815 5.39611 0.497985 5.87933 0.500016 6.38V9C0.500016 9.13261 0.552695 9.25979 0.646463 9.35356C0.740231 9.44732 0.867408 9.5 1.00002 9.5V10.5C0.867408 10.5 0.740231 10.5527 0.646463 10.6464C0.552695 10.7402 0.500016 10.8674 0.500016 11V13C0.500016 13.1326 0.552695 13.2598 0.646463 13.3536C0.740231 13.4473 0.867408 13.5 1.00002 13.5H6.59002L6.77002 14.39C6.8602 14.8436 7.10478 15.2519 7.46214 15.5455C7.8195 15.839 8.26755 15.9996 8.73002 16H9.50002V23C9.50002 23.1326 9.55269 23.2598 9.64646 23.3536C9.74023 23.4473 9.86741 23.5 10 23.5C10.1326 23.5 10.2598 23.4473 10.3536 23.3536C10.4473 23.2598 10.5 23.1326 10.5 23V16H13.5V23C13.5 23.1326 13.5527 23.2598 13.6465 23.3536C13.7402 23.4473 13.8674 23.5 14 23.5C14.1326 23.5 14.2598 23.4473 14.3536 23.3536C14.4473 23.2598 14.5 23.1326 14.5 23V16H15.27C15.7325 15.9996 16.1805 15.839 16.5379 15.5455C16.8952 15.2519 17.1398 14.8436 17.23 14.39L17.41 13.5H23C23.1326 13.5 23.2598 13.4473 23.3536 13.3536C23.4473 13.2598 23.5 13.1326 23.5 13V11C23.5 10.8674 23.4473 10.7402 23.3536 10.6464C23.2598 10.5527 23.1326 10.5 23 10.5V9.5C23.1326 9.5 23.2598 9.44732 23.3536 9.35356C23.4473 9.25979 23.5 9.13261 23.5 9ZM1.50002 6.37C1.499 6.11967 1.59192 5.87805 1.7604 5.6929C1.92889 5.50775 2.16069 5.39253 2.41002 5.37L6.54502 5C6.6166 4.99295 6.68581 4.97054 6.74794 4.9343C6.81007 4.89806 6.86365 4.84884 6.90502 4.79L8.96002 1.92C9.05203 1.79076 9.17348 1.68527 9.31432 1.61224C9.45517 1.53921 9.61137 1.50074 9.77002 1.5H16.63C16.8062 1.4993 16.9795 1.54518 17.1323 1.63298C17.285 1.72078 17.4119 1.8474 17.5 2L19.065 4.75C19.1032 4.81595 19.1559 4.87231 19.2191 4.91477C19.2824 4.95723 19.3545 4.98467 19.43 4.995L21.64 5.31C21.8803 5.34396 22.1 5.46414 22.2583 5.64812C22.4165 5.83211 22.5024 6.06735 22.5 6.31V8.5H21.45C21.3353 7.93486 21.0287 7.42676 20.5821 7.06181C20.1356 6.69686 19.5767 6.4975 19 6.4975C18.4233 6.4975 17.8644 6.69686 17.4179 7.06181C16.9714 7.42676 16.6648 7.93486 16.55 8.5H7.45002C7.33526 7.93486 7.02865 7.42676 6.58215 7.06181C6.13564 6.69686 5.57669 6.4975 5.00002 6.4975C4.42334 6.4975 3.86439 6.69686 3.41789 7.06181C2.97138 7.42676 2.66477 7.93486 2.55002 8.5H1.50002V6.37ZM20.5 9C20.5 9.29667 20.412 9.58668 20.2472 9.83336C20.0824 10.08 19.8481 10.2723 19.574 10.3858C19.3 10.4994 18.9984 10.5291 18.7074 10.4712C18.4164 10.4133 18.1491 10.2704 17.9394 10.0607C17.7296 9.85088 17.5867 9.58361 17.5288 9.29264C17.471 9.00167 17.5007 8.70007 17.6142 8.42598C17.7277 8.15189 17.92 7.91762 18.1667 7.7528C18.4133 7.58798 18.7033 7.5 19 7.5C19.3978 7.5 19.7794 7.65804 20.0607 7.93934C20.342 8.22065 20.5 8.60218 20.5 9ZM3.59002 9.5C3.47012 9.17745 3.47012 8.82255 3.59002 8.5C3.69512 8.21043 3.88683 7.96023 4.1391 7.78342C4.39137 7.60661 4.69196 7.51176 5.00002 7.51176C5.30808 7.51176 5.60867 7.60661 5.86093 7.78342C6.1132 7.96023 6.30491 8.21043 6.41002 8.5C6.52992 8.82255 6.52992 9.17745 6.41002 9.5C6.30491 9.78958 6.1132 10.0398 5.86093 10.2166C5.60867 10.3934 5.30808 10.4882 5.00002 10.4882C4.69196 10.4882 4.39137 10.3934 4.1391 10.2166C3.88683 10.0398 3.69512 9.78958 3.59002 9.5V9.5ZM7.45002 9.5H16.55C16.6229 9.86295 16.7767 10.2048 17 10.5H7.00002C7.22335 10.2048 7.37717 9.86295 7.45002 9.5ZM2.00002 9.5H2.55002C2.62287 9.86295 2.77669 10.2048 3.00002 10.5H2.00002V9.5ZM16.25 14.195C16.2043 14.4252 16.0791 14.632 15.8962 14.7792C15.7134 14.9263 15.4847 15.0045 15.25 15H8.73002C8.49536 15.0045 8.26661 14.9263 8.08379 14.7792C7.90097 14.632 7.77574 14.4252 7.73002 14.195L7.61002 13.5H16.39L16.25 14.195ZM22.5 12.5H1.50002V11.5H22.5V12.5ZM22 10.5H21C21.2233 10.2048 21.3772 9.86295 21.45 9.5H22V10.5Z" fill="#414141"/>
</g>
<defs>
<clipPath id="clip0_170_274">
<rect width="24" height="24" fill="white"/>
</clipPath>
</defs>
</svg>
