<svg width="32" height="32" viewBox="0 0 32 32" fill="none" xmlns="http://www.w3.org/2000/svg">
<path fill-rule="evenodd" clip-rule="evenodd" d="M23.7242 8.19714C21.666 6.13652 18.9288 5.00121 16.0127 5C10.0038 5 5.11339 9.89025 5.11097 15.9008C5.11017 17.8221 5.6121 19.6977 6.56614 21.351L5.01953 27L10.7987 25.484C12.3911 26.3526 14.1838 26.8104 16.0083 26.8109H16.0128C22.0211 26.8109 26.912 21.9203 26.9143 15.9095C26.9155 12.9965 25.7826 10.2576 23.7242 8.19714ZM16.0127 24.9699H16.0089C14.3831 24.9692 12.7885 24.5323 11.3972 23.7068L11.0664 23.5104L7.637 24.4101L8.55237 21.0664L8.33685 20.7236C7.42981 19.2809 6.95084 17.6135 6.95165 15.9014C6.95353 10.9057 11.0184 6.84121 16.0163 6.84121C18.4365 6.84202 20.7116 7.78572 22.4223 9.49843C24.133 11.2111 25.0745 13.4877 25.0737 15.9088C25.0716 20.905 21.007 24.9699 16.0127 24.9699V24.9699ZM20.9828 18.1836C20.7105 18.0472 19.3712 17.3884 19.1215 17.2974C18.872 17.2065 18.6902 17.1612 18.5088 17.4338C18.3271 17.7064 17.8052 18.32 17.6462 18.5017C17.4872 18.6835 17.3285 18.7064 17.056 18.5699C16.7836 18.4336 15.9059 18.1459 14.8654 17.2179C14.0557 16.4956 13.5091 15.6036 13.3501 15.331C13.1914 15.0582 13.3488 14.925 13.4696 14.7751C13.7645 14.4089 14.0598 14.025 14.1505 13.8434C14.2414 13.6616 14.1959 13.5024 14.1277 13.3662C14.0598 13.2299 13.515 11.8891 13.2881 11.3435C13.0668 10.8126 12.8424 10.8843 12.6751 10.876C12.5164 10.8681 12.3347 10.8664 12.153 10.8664C11.9715 10.8664 11.6763 10.9345 11.4266 11.2074C11.177 11.4801 10.4733 12.139 10.4733 13.4797C10.4733 14.8205 11.4494 16.1157 11.5856 16.2976C11.7217 16.4794 13.5064 19.2307 16.2388 20.4105C16.8887 20.6914 17.396 20.8588 17.7917 20.9844C18.4443 21.1917 19.038 21.1624 19.5074 21.0923C20.0308 21.0141 21.1188 20.4333 21.346 19.7971C21.573 19.1608 21.573 18.6155 21.5048 18.5017C21.4368 18.3881 21.2551 18.32 20.9828 18.1836V18.1836Z" fill="#0DBF41"/>
</svg>
