<svg width="24" height="24" viewBox="0 0 24 24" fill="none" xmlns="http://www.w3.org/2000/svg">
<g clip-path="url(#clip0_170_208)">
<path d="M20.5 4.5C20.5 4.76522 20.3946 5.01957 20.2071 5.20711C20.0196 5.39464 19.7652 5.5 19.5 5.5H19C18.7348 5.5 18.4804 5.60536 18.2929 5.79289C18.1054 5.98043 18 6.23478 18 6.5V12.54L16 12.155V6.5C16 6.23478 15.8946 5.98043 15.7071 5.79289C15.5196 5.60536 15.2652 5.5 15 5.5H12.5C12.2348 5.5 11.9804 5.39464 11.7929 5.20711C11.6054 5.01957 11.5 4.76522 11.5 4.5V4C11.5 3.86739 11.4473 3.74021 11.3536 3.64645C11.2598 3.55268 11.1326 3.5 11 3.5H8.75C8.41848 3.5 8.10054 3.3683 7.86612 3.13388C7.6317 2.89946 7.5 2.58152 7.5 2.25C7.5 1.91848 7.6317 1.60054 7.86612 1.36612C8.10054 1.1317 8.41848 1 8.75 1H15.25C15.5815 1 15.8995 1.1317 16.1339 1.36612C16.3683 1.60054 16.5 1.91848 16.5 2.25C16.5 2.58152 16.3683 2.89946 16.1339 3.13388C15.8995 3.3683 15.5815 3.5 15.25 3.5H19.5C19.7652 3.5 20.0196 3.60536 20.2071 3.79289C20.3946 3.98043 20.5 4.23478 20.5 4.5Z" fill="#BEC6C6"/>
<path d="M1 7H3.93C5.25597 7.00028 6.52754 7.52725 7.465 8.465L10 11L18.945 12.72C20.0862 12.9396 21.1152 13.5499 21.8552 14.446C22.5952 15.342 23 16.4679 23 17.63V18.5L22 19V20.5H1V7Z" fill="#F8F9F9"/>
<path d="M22.955 17H21C20.4696 17 19.9609 16.7893 19.5858 16.4142C19.2107 16.0391 19 15.5304 19 15H22.245C22.6279 15.6053 22.8705 16.2887 22.955 17V17Z" fill="#BEC6C6"/>
<path d="M14 23C15.933 23 17.5 21.433 17.5 19.5C17.5 17.567 15.933 16 14 16C12.067 16 10.5 17.567 10.5 19.5C10.5 21.433 12.067 23 14 23Z" fill="#BEC6C6"/>
<path d="M9.5 12.5H1V8.5H3.93C4.39384 8.49666 4.85372 8.58556 5.2829 8.76153C5.71208 8.93749 6.102 9.19701 6.43 9.525L9.5 12.5Z" fill="#64B5F6"/>
<path d="M14 21C14.8284 21 15.5 20.3284 15.5 19.5C15.5 18.6716 14.8284 18 14 18C13.1716 18 12.5 18.6716 12.5 19.5C12.5 20.3284 13.1716 21 14 21Z" fill="#F8F9F9"/>
<path d="M2.5 14.5H1.5C1.36739 14.5 1.24021 14.4473 1.14645 14.3536C1.05268 14.2598 1 14.1326 1 14C1 13.8674 1.05268 13.7402 1.14645 13.6464C1.24021 13.5527 1.36739 13.5 1.5 13.5H2.5C2.63261 13.5 2.75979 13.5527 2.85355 13.6464C2.94732 13.7402 3 13.8674 3 14C3 14.1326 2.94732 14.2598 2.85355 14.3536C2.75979 14.4473 2.63261 14.5 2.5 14.5Z" fill="#BEC6C6"/>
<path d="M19.04 12.23L16.5 11.73V10C16.5 9.86739 16.4473 9.74021 16.3536 9.64645C16.2598 9.55268 16.1326 9.5 16 9.5C15.8674 9.5 15.7402 9.55268 15.6464 9.64645C15.5527 9.74021 15.5 9.86739 15.5 10V11.55L12.345 10.94C17.11 8 16.89 8.075 17.5 8V9.5C17.5 9.63261 17.5527 9.75979 17.6464 9.85355C17.7402 9.94732 17.8674 10 18 10C18.1326 10 18.2598 9.94732 18.3536 9.85355C18.4473 9.75979 18.5 9.63261 18.5 9.5V8C18.7509 8.02942 18.9813 8.15267 19.145 8.345C19.2392 8.43915 19.3668 8.49205 19.5 8.49205C19.6332 8.49205 19.7608 8.43915 19.855 8.345C19.9492 8.25085 20.002 8.12315 20.002 7.99C20.002 7.85685 19.9492 7.72915 19.855 7.635C19.5007 7.25851 19.016 7.0314 18.5 7V6.5C18.5 6.36739 18.5527 6.24021 18.6464 6.14645C18.7402 6.05268 18.8674 6 19 6H19.5C19.8978 6 20.2794 5.84196 20.5607 5.56066C20.842 5.27936 21 4.89782 21 4.5C21 4.10218 20.842 3.72064 20.5607 3.43934C20.2794 3.15804 19.8978 3 19.5 3H16.825C16.9386 2.76621 16.9984 2.50993 17 2.25C17 2.11739 16.9473 1.99021 16.8536 1.89645C16.7598 1.80268 16.6326 1.75 16.5 1.75C16.3674 1.75 16.2402 1.80268 16.1464 1.89645C16.0527 1.99021 16 2.11739 16 2.25C16 2.44891 15.921 2.63968 15.7803 2.78033C15.6397 2.92098 15.4489 3 15.25 3H14C13.8674 3 13.7402 3.05268 13.6464 3.14645C13.5527 3.24021 13.5 3.36739 13.5 3.5C13.5 3.63261 13.5527 3.75979 13.6464 3.85355C13.7402 3.94732 13.8674 4 14 4H19.5C19.5665 4.00092 19.6322 4.01511 19.6931 4.04173C19.7541 4.06834 19.8091 4.10685 19.855 4.155C19.9221 4.22541 19.9673 4.31389 19.9849 4.40958C20.0025 4.50526 19.9918 4.60401 19.9541 4.69371C19.9164 4.78341 19.8534 4.86017 19.7727 4.91457C19.6921 4.96898 19.5973 4.99867 19.5 5H19C18.6022 5 18.2206 5.15804 17.9393 5.43934C17.658 5.72064 17.5 6.10218 17.5 6.5V7C17.0191 7.03039 16.5526 7.17617 16.14 7.425L10.88 10.665L10.245 10.54L7.82 8.11C7.31042 7.59755 6.70417 7.19137 6.03642 6.915C5.36866 6.63862 4.65268 6.49757 3.93 6.5H1C0.867392 6.5 0.740215 6.55268 0.646447 6.64645C0.552678 6.74021 0.5 6.86739 0.5 7C0.5 7.13261 0.552678 7.25979 0.646447 7.35355C0.740215 7.44732 0.867392 7.5 1 7.5H3.93C4.521 7.49888 5.10635 7.61496 5.65219 7.84154C6.19803 8.06811 6.69353 8.40068 7.11 8.82L9.645 11.355C9.805 11.515 9.265 11.355 18.85 13.21C19.7582 13.3861 20.5906 13.8363 21.235 14.5H19C18.8674 14.5 18.7402 14.5527 18.6464 14.6464C18.5527 14.7402 18.5 14.8674 18.5 15C18.5 15.663 18.7634 16.2989 19.2322 16.7678C19.7011 17.2366 20.337 17.5 21 17.5H22.5C22.5 17.56 22.5 17.635 22.5 18.19L21.775 18.555C21.6925 18.5966 21.6232 18.6601 21.5747 18.7387C21.5261 18.8172 21.5003 18.9077 21.5 19V20H17.97C18.0393 19.4377 17.9883 18.8671 17.8204 18.3259C17.6526 17.7848 17.3717 17.2855 16.9963 16.8611C16.621 16.4367 16.1598 16.0969 15.6432 15.8641C15.1267 15.6314 14.5666 15.511 14 15.511C13.4334 15.511 12.8733 15.6314 12.3568 15.8641C11.8402 16.0969 11.379 16.4367 11.0037 16.8611C10.6283 17.2855 10.3474 17.7848 10.1796 18.3259C10.0117 18.8671 9.96074 19.4377 10.03 20H1C0.867392 20 0.740215 20.0527 0.646447 20.1464C0.552678 20.2402 0.5 20.3674 0.5 20.5C0.5 20.6326 0.552678 20.7598 0.646447 20.8536C0.740215 20.9473 0.867392 21 1 21H10.295C10.5948 21.7367 11.1074 22.3673 11.7674 22.8113C12.4273 23.2552 13.2046 23.4924 14 23.4924C14.7954 23.4924 15.5727 23.2552 16.2326 22.8113C16.8926 22.3673 17.4052 21.7367 17.705 21H22C22.1326 21 22.2598 20.9473 22.3536 20.8536C22.4473 20.7598 22.5 20.6326 22.5 20.5V19.31L23.225 18.945C23.3075 18.9034 23.3768 18.8399 23.4253 18.7613C23.4739 18.6828 23.4997 18.5923 23.5 18.5V17.63C23.4998 16.3519 23.0545 15.1138 22.2406 14.1283C21.4267 13.1429 20.295 12.4717 19.04 12.23V12.23ZM14 22.5C13.3851 22.5006 12.7849 22.3123 12.2806 21.9605C11.7763 21.6087 11.3923 21.1105 11.1805 20.5332C10.9687 19.9559 10.9395 19.3275 11.0966 18.7331C11.2538 18.1386 11.5899 17.6068 12.0593 17.2097C12.5287 16.8126 13.1088 16.5692 13.7211 16.5127C14.3334 16.4562 14.9483 16.5891 15.4825 16.8936C16.0167 17.1981 16.4444 17.6594 16.7078 18.215C16.9712 18.7706 17.0575 19.3937 16.955 20C16.8369 20.6985 16.4755 21.3327 15.9346 21.7903C15.3938 22.2479 14.7084 22.4993 14 22.5V22.5ZM21 16.5C20.6897 16.5002 20.3869 16.4041 20.1335 16.225C19.8801 16.0459 19.6884 15.7926 19.585 15.5H21.96C22.1318 15.8161 22.2644 16.1519 22.355 16.5H21Z" fill="#414141"/>
<path d="M8.75 4H11V4.5C11 6 13 6.46 13 5.5C13 5.36739 12.9473 5.24021 12.8536 5.14645C12.7598 5.05268 12.6326 5 12.5 5C12.3674 5 12.2402 4.94732 12.1464 4.85355C12.0527 4.75979 12 4.63261 12 4.5V4C12 3.73478 11.8946 3.48043 11.7071 3.29289C11.5196 3.10536 11.2652 3 11 3H8.75C8.55109 3 8.36032 2.92098 8.21967 2.78033C8.07902 2.63968 8 2.44891 8 2.25C8 2.05109 8.07902 1.86032 8.21967 1.71967C8.36032 1.57902 8.55109 1.5 8.75 1.5C8.88261 1.5 9.00979 1.44732 9.10355 1.35355C9.19732 1.25979 9.25 1.13261 9.25 1C9.25 0.867392 9.19732 0.740215 9.10355 0.646447C9.00979 0.552678 8.88261 0.5 8.75 0.5C8.28587 0.5 7.84075 0.684374 7.51256 1.01256C7.18437 1.34075 7 1.78587 7 2.25C7 2.71413 7.18437 3.15925 7.51256 3.48744C7.84075 3.81563 8.28587 4 8.75 4Z" fill="#414141"/>
</g>
<defs>
<clipPath id="clip0_170_208">
<rect width="24" height="24" fill="white"/>
</clipPath>
</defs>
</svg>
