<svg width="842" height="392" viewBox="0 0 842 392" fill="none" xmlns="http://www.w3.org/2000/svg">
<path d="M562.07 286.63H547.74L547.73 338.63H600.63L604.67 326.89H562.07V286.63Z" fill="url(#paint0_linear_2_45)"/>
<path d="M487.17 311.67V306.38C487.17 306.38 487.3 298.3 496.09 298.22L519.34 298.21C526.66 298.21 533.17 293.56 535.54 286.63H504.38C504.02 286.63 503.73 286.68 503.41 286.71V286.65H493.86C476.31 286.65 472.8 298.37 472.8 306.34V307.16H472.79V313.44V315.93V321.34C472.79 325.91 474.53 329.9 478.06 333.4C481.68 336.92 486.37 338.64 492.24 338.64H515.41C522.79 338.64 529.33 333.91 531.63 326.9H495.9C493.36 326.86 491.29 326.15 489.61 324.76C488 323.35 487.16 321.46 487.16 319.12V314.25L487.17 311.67Z" fill="url(#paint1_linear_2_45)"/>
<path d="M645.98 286.63L614.59 338.63H630.98L636.51 329.26H641.93H644.71C651.09 329.26 656.27 324.08 656.25 317.69H643.34L653.71 300.14L676.64 338.63H693.22L661.85 286.63H645.98Z" fill="url(#paint2_linear_2_45)"/>
<path d="M753.2 307.77L720.79 307.76C718.43 307.62 716.6 305.75 716.6 303.09C716.6 299.84 719.33 298.52 720.9 298.52H747.48C755.06 298.52 761.83 293.77 764.4 286.63H718.03C710.3 286.63 702.95 293.81 702.95 302.64C702.95 315.22 713.89 319.13 718.31 319.13H750.42C753.86 319.13 754.72 322.03 754.72 323.15C754.72 325.62 752.9 327.38 750.8 327.38H707.53L703.58 338.62H752.75C763.98 338.62 767.86 328.54 767.86 323.94C767.86 315.09 761.66 307.77 753.2 307.77Z" fill="url(#paint3_linear_2_45)"/>
<path d="M827.13 307.77L794.72 307.76C792.36 307.62 790.53 305.75 790.53 303.09C790.53 299.84 793.26 298.52 794.83 298.52H821.41C828.99 298.52 835.76 293.77 838.33 286.63H791.96C784.23 286.63 776.88 293.81 776.88 302.64C776.88 315.22 787.82 319.13 792.24 319.13H824.35C827.79 319.13 828.65 322.03 828.65 323.15C828.65 325.62 826.83 327.38 824.73 327.38H781.46L777.51 338.62H826.68C837.91 338.62 841.79 328.54 841.79 323.94C841.79 315.09 835.59 307.77 827.13 307.77Z" fill="url(#paint4_linear_2_45)"/>
<path d="M38.49 325L14.72 286.63H0.01L0 338.63H13.92L13.93 308.43L31.96 337.85H44.3L62.31 308.43L62.3 338.63H76.6L76.61 286.63H62.31L38.49 325Z" fill="#191A37"/>
<path d="M338.82 317.73H363.57C370.25 317.73 376.18 313.47 378.32 307.14L324.54 307.11V307.14L324.53 338.63H379.1L383.01 327.05H338.83L338.82 317.73Z" fill="#191A37"/>
<path d="M324.53 286.64C324.53 293.02 329.7 298.2 336.09 298.2H380.39L384.3 286.64H324.53Z" fill="#191A37"/>
<path d="M117.55 286.63L86.16 338.63H102.55L108.08 329.26H113.5H116.28C122.66 329.26 127.84 324.08 127.82 317.69H114.91L125.28 300.14L148.21 338.63H164.79L133.42 286.63H117.55Z" fill="#191A37"/>
<path d="M248.9 298.21H272.28L272.27 338.64H286.61L286.62 298.21H300.43C306.83 298.21 312.03 293.03 312.06 286.63H260.54C254.13 286.63 248.93 291.8 248.9 298.21Z" fill="#191A37"/>
<path d="M226.24 307.77L193.83 307.76C191.47 307.62 189.64 305.75 189.64 303.09C189.64 299.84 192.37 298.52 193.94 298.52H220.52C228.1 298.52 234.87 293.77 237.44 286.63H191.07C183.34 286.63 175.99 293.81 175.99 302.64C175.99 315.22 186.93 319.13 191.35 319.13H223.46C226.9 319.13 227.76 322.03 227.76 323.15C227.76 325.62 225.94 327.38 223.84 327.38H180.57L176.62 338.62H225.79C237.02 338.62 240.9 328.54 240.9 323.94C240.9 315.09 234.7 307.77 226.24 307.77Z" fill="#191A37"/>
<path d="M441.64 318.63C448.54 318.63 460.38 318.48 460.38 302.26C460.38 288.72 448.95 286.64 441.64 286.64H396.3C396.29 293.03 401.47 298.21 407.86 298.21L440.49 298.2C442.25 298.2 445.84 298.31 445.84 302.7C445.84 307.13 442.45 307.09 440.27 307.09L396.28 307.07L424.51 331.1C430.22 335.96 437.48 338.63 444.98 338.63H457.44L430.91 318.63H441.64Z" fill="#191A37"/>
<path d="M569.73 70.18C575.27 65.61 581.88 62.04 589.54 59.49C597.21 56.93 605.51 55.65 614.47 55.65H721.83L764.32 0.0599976H614.47C595.93 0.0599976 578.78 2.56 563.02 7.57C554.41 10.3 546.46 13.67 539.17 17.67L558.8 82.74C561.71 77.98 565.35 73.8 569.73 70.18Z" fill="url(#paint5_linear_2_45)"/>
<path d="M285.11 163.56L317.99 213.83H77.47L112.97 163.56H285.11Z" fill="url(#paint6_linear_2_45)"/>
<path d="M764.32 158.89L721.82 213.83H614.46C602.77 213.83 591.61 212.73 581.02 210.51C578.97 210.1 576.93 209.63 574.91 209.11C570.86 208.07 566.89 206.89 563.01 205.52C547.24 199.98 533.67 192.36 522.28 182.67C510.88 172.97 501.93 161.48 495.44 148.16C493.03 143.24 491.07 138.15 489.56 132.92C489.29 131.97 489.02 131.02 488.78 130.05C488.77 130.02 488.76 129.98 488.75 129.95C486.64 122.29 484.79 115.35 483.19 109.1C480.87 100.09 478.89 91.29 477.22 82.7C473.65 90.03 469.68 98.15 465.27 107.05C460.87 115.96 455.11 127.22 447.98 140.84C443.55 149.13 439.11 157.41 434.67 165.7C429.53 175.28 425.18 185.29 419.57 194.61C415.06 202.11 409.35 208.41 400.19 212.68C392.83 216.11 386.42 216.28 378.55 216.49C369.82 216.72 360.05 216.98 349.97 211.88C348.08 210.92 340.36 208.83 330.69 193.68C325.07 184.88 319.24 176.49 313.28 167.97C299.34 148.01 285.41 128.06 271.48 108.11C264.39 97.96 257.31 87.82 250.22 77.66L202.31 145.4L201.21 146.95H124.7L209.37 27.05C213.78 20.97 219.32 15.53 226.03 10.71C232.74 5.89 241.23 3.47 251.5 3.47C261.35 3.47 269.58 5.74 276.18 10.24C282.77 14.75 288.37 20.36 293 27.05L379.73 152.58C379.74 152.57 455.6 15.21 455.6 15.21C458.39 11.68 461.57 8.66 465.13 6.14C470.9 2.06 478.07 0 486.66 0C494.84 0 502.22 2.38 508.82 7.09C515.29 11.73 520.02 18.84 522.98 28.43C523.05 28.4 546.96 111.55 546.96 111.55C554.95 139.57 580.57 158.89 609.71 158.89H764.32V158.89Z" fill="#191A37"/>
<path d="M114.6 383.12H98.64L94.14 391.43H90.77L105.62 364.09H107.64L122.49 391.43H119.11L114.6 383.12ZM100.13 380.37H113.11L106.63 368.4L100.13 380.37Z" fill="#191A37"/>
<path d="M177.46 391.81C175.24 391.81 173.3 391.53 171.66 390.97C170.02 390.41 168.66 389.6 167.59 388.54C166.52 387.48 165.71 386.18 165.19 384.63C164.67 383.08 164.4 381.32 164.4 379.34V364.09H167.49V379.34C167.49 380.89 167.68 382.27 168.07 383.47C168.46 384.67 169.06 385.69 169.87 386.52C170.68 387.35 171.72 387.98 172.97 388.42C174.22 388.85 175.72 389.07 177.46 389.07C179.19 389.07 180.68 388.85 181.94 388.42C183.2 387.99 184.23 387.36 185.05 386.52C185.86 385.69 186.46 384.67 186.85 383.47C187.24 382.27 187.43 380.89 187.43 379.34V364.09H190.52V379.34C190.52 381.32 190.26 383.09 189.73 384.63C189.2 386.17 188.4 387.48 187.32 388.54C186.24 389.6 184.88 390.41 183.25 390.97C181.62 391.53 179.69 391.81 177.46 391.81Z" fill="#191A37"/>
<path d="M261.94 364.09V366.84H249.97V391.43H246.88V366.84H234.91V364.09H261.94Z" fill="#191A37"/>
<path d="M302.71 377.76C302.71 375.8 303.05 373.97 303.74 372.26C304.43 370.55 305.45 369.06 306.81 367.8C308.17 366.54 309.87 365.54 311.92 364.81C313.97 364.08 316.34 363.71 319.05 363.71C321.76 363.71 324.13 364.08 326.18 364.81C328.23 365.54 329.93 366.54 331.29 367.8C332.65 369.06 333.67 370.55 334.36 372.26C335.05 373.97 335.39 375.8 335.39 377.76C335.39 379.72 335.05 381.55 334.36 383.26C333.67 384.97 332.65 386.46 331.29 387.72C329.93 388.98 328.23 389.98 326.18 390.71C324.13 391.44 321.76 391.81 319.05 391.81C316.34 391.81 313.97 391.44 311.92 390.71C309.87 389.98 308.17 388.98 306.81 387.72C305.45 386.46 304.43 384.97 303.74 383.26C303.05 381.55 302.71 379.72 302.71 377.76ZM332.22 377.76C332.22 376.21 331.97 374.75 331.46 373.37C330.95 372 330.16 370.8 329.09 369.78C328.02 368.76 326.65 367.95 324.99 367.35C323.33 366.75 321.35 366.45 319.05 366.45C316.75 366.45 314.77 366.75 313.11 367.35C311.45 367.95 310.09 368.76 309.01 369.78C307.94 370.8 307.14 372 306.64 373.37C306.13 374.74 305.88 376.2 305.88 377.76C305.88 379.32 306.13 380.77 306.64 382.14C307.15 383.51 307.94 384.71 309.01 385.73C310.08 386.75 311.45 387.56 313.11 388.16C314.77 388.76 316.75 389.06 319.05 389.06C321.35 389.06 323.33 388.76 324.99 388.16C326.65 387.56 328.01 386.75 329.09 385.73C330.16 384.71 330.96 383.51 331.46 382.14C331.97 380.77 332.22 379.31 332.22 377.76Z" fill="#191A37"/>
<path d="M383.24 368.5V391.44H380.15V364.1H384.36L396.01 387.34L407.66 364.1H411.87V391.44H408.78V368.5L397.28 391.44H394.72L383.24 368.5Z" fill="#191A37"/>
<path d="M456.64 377.76C456.64 375.8 456.98 373.97 457.67 372.26C458.36 370.55 459.38 369.06 460.74 367.8C462.1 366.54 463.8 365.54 465.85 364.81C467.9 364.08 470.27 363.71 472.98 363.71C475.69 363.71 478.06 364.08 480.11 364.81C482.16 365.54 483.86 366.54 485.22 367.8C486.58 369.06 487.6 370.55 488.29 372.26C488.98 373.97 489.32 375.8 489.32 377.76C489.32 379.72 488.98 381.55 488.29 383.26C487.6 384.97 486.58 386.46 485.22 387.72C483.86 388.98 482.16 389.98 480.11 390.71C478.06 391.44 475.69 391.81 472.98 391.81C470.27 391.81 467.9 391.44 465.85 390.71C463.8 389.98 462.1 388.98 460.74 387.72C459.38 386.46 458.36 384.97 457.67 383.26C456.99 381.55 456.64 379.72 456.64 377.76ZM486.16 377.76C486.16 376.21 485.91 374.75 485.4 373.37C484.89 372 484.1 370.8 483.03 369.78C481.96 368.76 480.59 367.95 478.93 367.35C477.27 366.75 475.29 366.45 472.99 366.45C470.69 366.45 468.71 366.75 467.05 367.35C465.39 367.95 464.02 368.76 462.95 369.78C461.88 370.8 461.08 372 460.58 373.37C460.07 374.74 459.82 376.2 459.82 377.76C459.82 379.32 460.07 380.77 460.58 382.14C461.09 383.51 461.88 384.71 462.95 385.73C464.02 386.75 465.39 387.56 467.05 388.16C468.71 388.76 470.69 389.06 472.99 389.06C475.29 389.06 477.27 388.76 478.93 388.16C480.59 387.56 481.96 386.75 483.03 385.73C484.1 384.71 484.9 383.51 485.4 382.14C485.9 380.77 486.16 379.31 486.16 377.76Z" fill="#191A37"/>
<path d="M559.39 364.09V366.84H547.42V391.43H544.33V366.84H532.36V364.09H559.39Z" fill="#191A37"/>
<path d="M603.96 364.09H607.05V391.43H603.96V364.09Z" fill="#191A37"/>
<path d="M678.65 364.09H682.03L667.56 391.43H665.54L651.07 364.09H654.45L666.56 387.12L678.65 364.09Z" fill="#191A37"/>
<path d="M748.41 376.08V378.83H728.92V388.69H749.68V391.44H725.83V364.1H749.49V366.85H728.92V376.1H748.41V376.08Z" fill="#191A37"/>
<defs>
<linearGradient id="paint0_linear_2_45" x1="547.726" y1="312.634" x2="604.666" y2="312.634" gradientUnits="userSpaceOnUse">
<stop stop-color="#213A8F"/>
<stop offset="1" stop-color="#284A9A"/>
</linearGradient>
<linearGradient id="paint1_linear_2_45" x1="472.779" y1="312.634" x2="535.54" y2="312.634" gradientUnits="userSpaceOnUse">
<stop stop-color="#213A8F"/>
<stop offset="1" stop-color="#284A9A"/>
</linearGradient>
<linearGradient id="paint2_linear_2_45" x1="614.592" y1="312.634" x2="693.227" y2="312.634" gradientUnits="userSpaceOnUse">
<stop stop-color="#213A8F"/>
<stop offset="1" stop-color="#284A9A"/>
</linearGradient>
<linearGradient id="paint3_linear_2_45" x1="702.951" y1="312.634" x2="767.862" y2="312.634" gradientUnits="userSpaceOnUse">
<stop stop-color="#213A8F"/>
<stop offset="1" stop-color="#284A9A"/>
</linearGradient>
<linearGradient id="paint4_linear_2_45" x1="776.88" y1="312.634" x2="841.791" y2="312.634" gradientUnits="userSpaceOnUse">
<stop stop-color="#213A8F"/>
<stop offset="1" stop-color="#284A9A"/>
</linearGradient>
<linearGradient id="paint5_linear_2_45" x1="682.799" y1="78.1761" x2="625.06" y2="-21.8311" gradientUnits="userSpaceOnUse">
<stop offset="0.1436" stop-color="#213A8F"/>
<stop offset="0.8006" stop-color="#3562AC"/>
</linearGradient>
<linearGradient id="paint6_linear_2_45" x1="77.4736" y1="188.696" x2="317.994" y2="188.696" gradientUnits="userSpaceOnUse">
<stop offset="0.1436" stop-color="#213A8F"/>
<stop offset="0.8006" stop-color="#3562AC"/>
</linearGradient>
</defs>
</svg>
