<svg width="24" height="24" viewBox="0 0 24 24" fill="none" xmlns="http://www.w3.org/2000/svg">
<g clip-path="url(#clip0_170_252)">
<path d="M21 21.5L20 23L19 21.5V10C19 9.73478 19.1054 9.48043 19.2929 9.29289C19.4804 9.10536 19.7348 9 20 9C20.2652 9 20.5196 9.10536 20.7071 9.29289C20.8946 9.48043 21 9.73478 21 10V21.5Z" fill="#F8F9F9"/>
<path d="M21 10V11.5H19V10C19 9.73478 19.1054 9.48043 19.2929 9.29289C19.4804 9.10536 19.7348 9 20 9C20.2652 9 20.5196 9.10536 20.7071 9.29289C20.8946 9.48043 21 9.73478 21 10V10Z" fill="#BEC6C6"/>
<path d="M21 17H19V20.5H21V17Z" fill="#BEC6C6"/>
<path d="M16 3.5H2C1.44772 3.5 1 3.94772 1 4.5V22C1 22.5523 1.44772 23 2 23H16C16.5523 23 17 22.5523 17 22V4.5C17 3.94772 16.5523 3.5 16 3.5Z" fill="#BEC6C6"/>
<path d="M13 3.5V5H5V3.5C5 3.23478 5.10536 2.98043 5.29289 2.79289C5.48043 2.60536 5.73478 2.5 6 2.5H7V2C7 1.73478 7.10536 1.48043 7.29289 1.29289C7.48043 1.10536 7.73478 1 8 1H10C10.2652 1 10.5196 1.10536 10.7071 1.29289C10.8946 1.48043 11 1.73478 11 2V2.5H12C12.2652 2.5 12.5196 2.60536 12.7071 2.79289C12.8946 2.98043 13 3.23478 13 3.5Z" fill="#BEC6C6"/>
<path d="M15.5 21.5L15.5 5L2.5 5L2.5 21.5H15.5Z" fill="#F8F9F9"/>
<path d="M9 3.5C9.27614 3.5 9.5 3.27614 9.5 3C9.5 2.72386 9.27614 2.5 9 2.5C8.72386 2.5 8.5 2.72386 8.5 3C8.5 3.27614 8.72386 3.5 9 3.5Z" fill="#F8F9F9"/>
<path d="M13.5 8.86V10C13.5 10.1326 13.4473 10.2598 13.3536 10.3536C13.2598 10.4473 13.1326 10.5 13 10.5H5C4.86739 10.5 4.74022 10.4473 4.64645 10.3536C4.55268 10.2598 4.5 10.1326 4.5 10V9.28C4.49989 9.05734 4.5741 8.84101 4.71087 8.6653C4.84763 8.48959 5.03912 8.36455 5.255 8.31L6.5 8L7.205 6.945C7.29616 6.80837 7.41957 6.69629 7.56434 6.61868C7.7091 6.54106 7.87075 6.5003 8.035 6.5H10.465C10.6293 6.5003 10.7909 6.54106 10.9357 6.61868C11.0804 6.69629 11.2038 6.80837 11.295 6.945L12 8L13.16 8.385C13.2593 8.41854 13.3456 8.48245 13.4066 8.56769C13.4676 8.65292 13.5003 8.75518 13.5 8.86Z" fill="#64B5F6"/>
<path d="M6.5 11.5C7.05228 11.5 7.5 11.0523 7.5 10.5C7.5 9.94772 7.05228 9.5 6.5 9.5C5.94772 9.5 5.5 9.94772 5.5 10.5C5.5 11.0523 5.94772 11.5 6.5 11.5Z" fill="#BEC6C6"/>
<path d="M11.5 11.5C12.0523 11.5 12.5 11.0523 12.5 10.5C12.5 9.94772 12.0523 9.5 11.5 9.5C10.9477 9.5 10.5 9.94772 10.5 10.5C10.5 11.0523 10.9477 11.5 11.5 11.5Z" fill="#BEC6C6"/>
<path d="M8.5 9.5H8C7.86739 9.5 7.74021 9.44732 7.64645 9.35355C7.55268 9.25979 7.5 9.13261 7.5 9C7.5 8.86739 7.55268 8.74021 7.64645 8.64645C7.74021 8.55268 7.86739 8.5 8 8.5H8.5C8.63261 8.5 8.75979 8.55268 8.85355 8.64645C8.94732 8.74021 9 8.86739 9 9C9 9.13261 8.94732 9.25979 8.85355 9.35355C8.75979 9.44732 8.63261 9.5 8.5 9.5Z" fill="#F8F9F9"/>
<path d="M6.5 17H4.5C4.22386 17 4 17.2239 4 17.5V19.5C4 19.7761 4.22386 20 4.5 20H6.5C6.77614 20 7 19.7761 7 19.5V17.5C7 17.2239 6.77614 17 6.5 17Z" fill="#BEC6C6"/>
<path d="M14 14H9C8.86739 14 8.74021 13.9473 8.64645 13.8536C8.55268 13.7598 8.5 13.6326 8.5 13.5C8.5 13.3674 8.55268 13.2402 8.64645 13.1464C8.74021 13.0527 8.86739 13 9 13H14C14.1326 13 14.2598 13.0527 14.3536 13.1464C14.4473 13.2402 14.5 13.3674 14.5 13.5C14.5 13.6326 14.4473 13.7598 14.3536 13.8536C14.2598 13.9473 14.1326 14 14 14Z" fill="#BEC6C6"/>
<path d="M11.5 16H9C8.86739 16 8.74021 15.9473 8.64645 15.8536C8.55268 15.7598 8.5 15.6326 8.5 15.5C8.5 15.3674 8.55268 15.2402 8.64645 15.1464C8.74021 15.0527 8.86739 15 9 15H11.5C11.6326 15 11.7598 15.0527 11.8536 15.1464C11.9473 15.2402 12 15.3674 12 15.5C12 15.6326 11.9473 15.7598 11.8536 15.8536C11.7598 15.9473 11.6326 16 11.5 16Z" fill="#BEC6C6"/>
<path d="M14 18H9C8.86739 18 8.74021 17.9473 8.64645 17.8536C8.55268 17.7598 8.5 17.6326 8.5 17.5C8.5 17.3674 8.55268 17.2402 8.64645 17.1464C8.74021 17.0527 8.86739 17 9 17H14C14.1326 17 14.2598 17.0527 14.3536 17.1464C14.4473 17.2402 14.5 17.3674 14.5 17.5C14.5 17.6326 14.4473 17.7598 14.3536 17.8536C14.2598 17.9473 14.1326 18 14 18Z" fill="#BEC6C6"/>
<path d="M11.5 20H9C8.86739 20 8.74021 19.9473 8.64645 19.8536C8.55268 19.7598 8.5 19.6326 8.5 19.5C8.5 19.3674 8.55268 19.2402 8.64645 19.1464C8.74021 19.0527 8.86739 19 9 19H11.5C11.6326 19 11.7598 19.0527 11.8536 19.1464C11.9473 19.2402 12 19.3674 12 19.5C12 19.6326 11.9473 19.7598 11.8536 19.8536C11.7598 19.9473 11.6326 20 11.5 20Z" fill="#BEC6C6"/>
<path d="M4.99997 16C4.72997 16 4.71497 15.925 3.64497 14.855C3.59835 14.8084 3.56137 14.753 3.53614 14.6921C3.51091 14.6312 3.49792 14.5659 3.49792 14.5C3.49792 14.4341 3.51091 14.3688 3.53614 14.3079C3.56137 14.247 3.59835 14.1916 3.64497 14.145C3.69159 14.0984 3.74694 14.0614 3.80785 14.0362C3.86876 14.0109 3.93404 13.998 3.99997 13.998C4.0659 13.998 4.13118 14.0109 4.1921 14.0362C4.25301 14.0614 4.30835 14.0984 4.35497 14.145L4.99997 14.795L6.64497 13.145C6.69159 13.0984 6.74693 13.0614 6.80785 13.0362C6.86876 13.0109 6.93404 12.998 6.99997 12.998C7.0659 12.998 7.13118 13.0109 7.1921 13.0362C7.25301 13.0614 7.30835 13.0984 7.35497 13.145C7.40159 13.1916 7.43857 13.247 7.4638 13.3079C7.48903 13.3688 7.50202 13.4341 7.50202 13.5C7.50202 13.5659 7.48903 13.6312 7.4638 13.6921C7.43857 13.753 7.40159 13.8084 7.35497 13.855L5.35497 15.855C5.30825 15.9013 5.25284 15.938 5.19192 15.9629C5.13101 15.9878 5.06577 16.0004 4.99997 16Z" fill="#BEC6C6"/>
<path d="M16 3H13.41C13.3068 2.70823 13.116 2.4555 12.8635 2.27647C12.6111 2.09744 12.3095 2.00087 12 2H11.5C11.5 1.60218 11.342 1.22064 11.0607 0.93934C10.7794 0.658035 10.3978 0.5 10 0.5H8C7.60218 0.5 7.22064 0.658035 6.93934 0.93934C6.65804 1.22064 6.5 1.60218 6.5 2H6C5.69053 2.00087 5.3889 2.09744 5.13647 2.27647C4.88404 2.4555 4.69316 2.70823 4.59 3H2C1.60218 3 1.22064 3.15804 0.93934 3.43934C0.658035 3.72064 0.5 4.10218 0.5 4.5V22C0.5 22.3978 0.658035 22.7794 0.93934 23.0607C1.22064 23.342 1.60218 23.5 2 23.5H16C16.3978 23.5 16.7794 23.342 17.0607 23.0607C17.342 22.7794 17.5 22.3978 17.5 22V4.5C17.5 4.10218 17.342 3.72064 17.0607 3.43934C16.7794 3.15804 16.3978 3 16 3ZM6 3H7C7.13261 3 7.25979 2.94732 7.35355 2.85355C7.44732 2.75979 7.5 2.63261 7.5 2.5V2C7.5 1.86739 7.55268 1.74021 7.64645 1.64645C7.74021 1.55268 7.86739 1.5 8 1.5H10C10.1326 1.5 10.2598 1.55268 10.3536 1.64645C10.4473 1.74021 10.5 1.86739 10.5 2V2.5C10.5 2.63261 10.5527 2.75979 10.6464 2.85355C10.7402 2.94732 10.8674 3 11 3H12C12.1326 3 12.2598 3.05268 12.3536 3.14645C12.4473 3.24021 12.5 3.36739 12.5 3.5V4.5H5.5V3.5C5.5 3.36739 5.55268 3.24021 5.64645 3.14645C5.74021 3.05268 5.86739 3 6 3V3ZM16.5 22C16.5 22.1326 16.4473 22.2598 16.3536 22.3536C16.2598 22.4473 16.1326 22.5 16 22.5H2C1.86739 22.5 1.74021 22.4473 1.64645 22.3536C1.55268 22.2598 1.5 22.1326 1.5 22V4.5C1.5 4.36739 1.55268 4.24021 1.64645 4.14645C1.74021 4.05268 1.86739 4 2 4H4.5V5C4.5 5.13261 4.55268 5.25979 4.64645 5.35355C4.74021 5.44732 4.86739 5.5 5 5.5H13C13.1326 5.5 13.2598 5.44732 13.3536 5.35355C13.4473 5.25979 13.5 5.13261 13.5 5V4H16C16.1326 4 16.2598 4.05268 16.3536 4.14645C16.4473 4.24021 16.5 4.36739 16.5 4.5V22Z" fill="#414141"/>
<path d="M22 11H21.5V10C21.4991 9.69053 21.4025 9.3889 21.2235 9.13647C21.0445 8.88404 20.7918 8.69316 20.5 8.59V8C20.5 7.86739 20.4473 7.74021 20.3535 7.64645C20.2598 7.55268 20.1326 7.5 20 7.5C19.8674 7.5 19.7402 7.55268 19.6464 7.64645C19.5527 7.74021 19.5 7.86739 19.5 8V8.59C19.2082 8.69316 18.9555 8.88404 18.7765 9.13647C18.5974 9.3889 18.5009 9.69053 18.5 10C18.5 22.3 18.46 21.595 18.585 21.775L19.585 23.275C19.6307 23.3431 19.6925 23.3988 19.7649 23.4374C19.8372 23.4759 19.918 23.4961 20 23.4961C20.082 23.4961 20.1627 23.4759 20.2351 23.4374C20.3075 23.3988 20.3693 23.3431 20.415 23.275L21.415 21.775C21.535 21.6 21.5 22.305 21.5 12H22C22.1326 12 22.2598 12.0527 22.3535 12.1464C22.4473 12.2402 22.5 12.3674 22.5 12.5V15.5C22.5 15.6326 22.5527 15.7598 22.6464 15.8536C22.7402 15.9473 22.8674 16 23 16C23.1326 16 23.2598 15.9473 23.3535 15.8536C23.4473 15.7598 23.5 15.6326 23.5 15.5V12.5C23.5 12.1022 23.342 11.7206 23.0606 11.4393C22.7793 11.158 22.3978 11 22 11ZM20 9.5C20.1326 9.5 20.2598 9.55268 20.3535 9.64645C20.4473 9.74021 20.5 9.86739 20.5 10V11H19.5V10C19.5 9.86739 19.5527 9.74021 19.6464 9.64645C19.7402 9.55268 19.8674 9.5 20 9.5ZM20.5 20H19.5V17.5H20.5V20ZM20 22.1L19.5 21.35V21H20.5V21.35L20 22.1ZM20.5 16.5H19.5V12H20.5V16.5Z" fill="#414141"/>
</g>
<defs>
<clipPath id="clip0_170_252">
<rect width="24" height="24" fill="white"/>
</clipPath>
</defs>
</svg>
