<svg width="24" height="24" viewBox="0 0 24 24" fill="none" xmlns="http://www.w3.org/2000/svg">
<path d="M9 5.5H7.5L7 4.5L7.5 3.5H9V5.5Z" fill="#F8F9F9"/>
<path d="M15 5.5H16.5L17 4.5L16.5 3.5H15V5.5Z" fill="#F8F9F9"/>
<path d="M4.5 1H3.5C2.94772 1 2.5 1.44772 2.5 2V7C2.5 7.55228 2.94772 8 3.5 8H4.5C5.05228 8 5.5 7.55228 5.5 7V2C5.5 1.44772 5.05228 1 4.5 1Z" fill="#BEC6C6"/>
<path d="M4.5 16H3.5C2.94772 16 2.5 16.4477 2.5 17V22C2.5 22.5523 2.94772 23 3.5 23H4.5C5.05228 23 5.5 22.5523 5.5 22V17C5.5 16.4477 5.05228 16 4.5 16Z" fill="#BEC6C6"/>
<path d="M20.5 1H19.5C18.9477 1 18.5 1.44772 18.5 2V6.5C18.5 7.05228 18.9477 7.5 19.5 7.5H20.5C21.0523 7.5 21.5 7.05228 21.5 6.5V2C21.5 1.44772 21.0523 1 20.5 1Z" fill="#BEC6C6"/>
<path d="M20.5 16H19.5C18.9477 16 18.5 16.4477 18.5 17V22C18.5 22.5523 18.9477 23 19.5 23H20.5C21.0523 23 21.5 22.5523 21.5 22V17C21.5 16.4477 21.0523 16 20.5 16Z" fill="#BEC6C6"/>
<path d="M5.5 6.31001L4.775 5.94501C4.69254 5.90346 4.6232 5.83989 4.57466 5.76135C4.52612 5.6828 4.50028 5.59235 4.5 5.50001C4.50026 5.41478 4.5223 5.33103 4.56403 5.25671C4.60576 5.1824 4.6658 5.11998 4.73844 5.07539C4.81108 5.03081 4.89391 5.00553 4.97907 5.00196C5.06423 4.9984 5.14889 5.01666 5.225 5.05501L5.5 5.19501V6.31001Z" fill="#F8F9F9"/>
<path d="M5.5 3.81001L4.775 3.44501C4.69254 3.40346 4.6232 3.33989 4.57466 3.26135C4.52612 3.1828 4.50028 3.09235 4.5 3.00001C4.50026 2.91478 4.5223 2.83103 4.56403 2.75671C4.60576 2.6824 4.6658 2.61998 4.73844 2.57539C4.81108 2.53081 4.89391 2.50553 4.97907 2.50196C5.06423 2.4984 5.14889 2.51666 5.225 2.55501L5.5 2.69501V3.81001Z" fill="#F8F9F9"/>
<path d="M2.5 6.31001L3.225 5.94501C3.30746 5.90346 3.3768 5.83989 3.42534 5.76135C3.47388 5.6828 3.49972 5.59235 3.5 5.50001C3.49974 5.41478 3.4777 5.33103 3.43597 5.25671C3.39424 5.1824 3.3342 5.11998 3.26156 5.07539C3.18892 5.03081 3.10609 5.00553 3.02093 5.00196C2.93577 4.9984 2.85111 5.01666 2.775 5.05501L2.5 5.19501V6.31001Z" fill="#F8F9F9"/>
<path d="M2.5 3.81001L3.225 3.44501C3.30746 3.40346 3.3768 3.33989 3.42534 3.26135C3.47388 3.1828 3.49972 3.09235 3.5 3.00001C3.49974 2.91478 3.4777 2.83103 3.43597 2.75671C3.39424 2.6824 3.3342 2.61998 3.26156 2.57539C3.18892 2.53081 3.10609 2.50553 3.02093 2.50196C2.93577 2.4984 2.85111 2.51666 2.775 2.55501L2.5 2.69501V3.81001Z" fill="#F8F9F9"/>
<path d="M5.5 21.31L4.775 20.945C4.69254 20.9035 4.6232 20.8399 4.57466 20.7613C4.52612 20.6828 4.50028 20.5923 4.5 20.5C4.50026 20.4148 4.5223 20.331 4.56403 20.2567C4.60576 20.1824 4.6658 20.12 4.73844 20.0754C4.81108 20.0308 4.89391 20.0055 4.97907 20.002C5.06423 19.9984 5.14889 20.0167 5.225 20.055L5.5 20.195V21.31Z" fill="#F8F9F9"/>
<path d="M5.5 18.81L4.775 18.445C4.69254 18.4035 4.6232 18.3399 4.57466 18.2613C4.52612 18.1828 4.50028 18.0923 4.5 18C4.50026 17.9148 4.5223 17.831 4.56403 17.7567C4.60576 17.6824 4.6658 17.62 4.73844 17.5754C4.81108 17.5308 4.89391 17.5055 4.97907 17.502C5.06423 17.4984 5.14889 17.5167 5.225 17.555L5.5 17.695V18.81Z" fill="#F8F9F9"/>
<path d="M2.5 21.31L3.225 20.945C3.30746 20.9035 3.3768 20.8399 3.42534 20.7613C3.47388 20.6828 3.49972 20.5923 3.5 20.5C3.49974 20.4148 3.4777 20.331 3.43597 20.2567C3.39424 20.1824 3.3342 20.12 3.26156 20.0754C3.18892 20.0308 3.10609 20.0055 3.02093 20.002C2.93577 19.9984 2.85111 20.0167 2.775 20.055L2.5 20.195V21.31Z" fill="#F8F9F9"/>
<path d="M2.5 18.81L3.225 18.445C3.30746 18.4035 3.3768 18.3399 3.42534 18.2613C3.47388 18.1828 3.49972 18.0923 3.5 18C3.49974 17.9148 3.4777 17.831 3.43597 17.7567C3.39424 17.6824 3.3342 17.62 3.26156 17.5754C3.18892 17.5308 3.10609 17.5055 3.02093 17.502C2.93577 17.4984 2.85111 17.5167 2.775 17.555L2.5 17.695V18.81Z" fill="#F8F9F9"/>
<path d="M18.5 6.31001L19.225 5.94501C19.3075 5.90346 19.3768 5.83989 19.4253 5.76135C19.4739 5.6828 19.4997 5.59235 19.5 5.50001C19.4997 5.41478 19.4777 5.33103 19.436 5.25671C19.3942 5.1824 19.3342 5.11998 19.2616 5.07539C19.1889 5.03081 19.1061 5.00553 19.0209 5.00196C18.9358 4.9984 18.8511 5.01666 18.775 5.05501L18.5 5.19501V6.31001Z" fill="#F8F9F9"/>
<path d="M18.5 3.81001L19.225 3.44501C19.3075 3.40346 19.3768 3.33989 19.4253 3.26135C19.4739 3.1828 19.4997 3.09235 19.5 3.00001C19.4997 2.91478 19.4777 2.83103 19.436 2.75671C19.3942 2.6824 19.3342 2.61998 19.2616 2.57539C19.1889 2.53081 19.1061 2.50553 19.0209 2.50196C18.9358 2.4984 18.8511 2.51666 18.775 2.55501L18.5 2.69501V3.81001Z" fill="#F8F9F9"/>
<path d="M21.5 6.31001L20.775 5.94501C20.6925 5.90346 20.6232 5.83989 20.5747 5.76135C20.5261 5.6828 20.5003 5.59235 20.5 5.50001C20.5003 5.41478 20.5223 5.33103 20.564 5.25671C20.6058 5.1824 20.6658 5.11998 20.7384 5.07539C20.8111 5.03081 20.8939 5.00553 20.9791 5.00196C21.0642 4.9984 21.1489 5.01666 21.225 5.05501L21.5 5.19501V6.31001Z" fill="#F8F9F9"/>
<path d="M21.5 3.81001L20.775 3.44501C20.6925 3.40346 20.6232 3.33989 20.5747 3.26135C20.5261 3.1828 20.5003 3.09235 20.5 3.00001C20.5003 2.91478 20.5223 2.83103 20.564 2.75671C20.6058 2.6824 20.6658 2.61998 20.7384 2.57539C20.8111 2.53081 20.8939 2.50553 20.9791 2.50196C21.0642 2.4984 21.1489 2.51666 21.225 2.55501L21.5 2.69501V3.81001Z" fill="#F8F9F9"/>
<path d="M18.5 21.31L19.225 20.945C19.3075 20.9035 19.3768 20.8399 19.4253 20.7613C19.4739 20.6828 19.4997 20.5923 19.5 20.5C19.4997 20.4148 19.4777 20.331 19.436 20.2567C19.3942 20.1824 19.3342 20.12 19.2616 20.0754C19.1889 20.0308 19.1061 20.0055 19.0209 20.002C18.9358 19.9984 18.8511 20.0167 18.775 20.055L18.5 20.195V21.31Z" fill="#F8F9F9"/>
<path d="M18.5 18.81L19.225 18.445C19.3075 18.4035 19.3768 18.3399 19.4253 18.2613C19.4739 18.1828 19.4997 18.0923 19.5 18C19.4997 17.9148 19.4777 17.831 19.436 17.7567C19.3942 17.6824 19.3342 17.62 19.2616 17.5754C19.1889 17.5308 19.1061 17.5055 19.0209 17.502C18.9358 17.4984 18.8511 17.5167 18.775 17.555L18.5 17.695V18.81Z" fill="#F8F9F9"/>
<path d="M21.5 21.31L20.775 20.945C20.6925 20.9035 20.6232 20.8399 20.5747 20.7613C20.5261 20.6828 20.5003 20.5923 20.5 20.5C20.5003 20.4148 20.5223 20.331 20.564 20.2567C20.6058 20.1824 20.6658 20.12 20.7384 20.0754C20.8111 20.0308 20.8939 20.0055 20.9791 20.002C21.0642 19.9984 21.1489 20.0167 21.225 20.055L21.5 20.195V21.31Z" fill="#F8F9F9"/>
<path d="M21.5 18.81L20.775 18.445C20.6925 18.4035 20.6232 18.3399 20.5747 18.2613C20.5261 18.1828 20.5003 18.0923 20.5 18C20.5003 17.9148 20.5223 17.831 20.564 17.7567C20.6058 17.6824 20.6658 17.62 20.7384 17.5754C20.8111 17.5308 20.8939 17.5055 20.9791 17.502C21.0642 17.4984 21.1489 17.5167 21.225 17.555L21.5 17.695V18.81Z" fill="#F8F9F9"/>
<path d="M16.5 10.415V22C16.5 22.2652 16.3946 22.5196 16.2071 22.7071C16.0196 22.8946 15.7652 23 15.5 23H8.5C8.23478 23 7.98043 22.8946 7.79289 22.7071C7.60536 22.5196 7.5 22.2652 7.5 22V10.415C7.50069 10.1436 7.575 9.87749 7.715 9.645C8.835 7.775 9 7.645 9 7.085V2C9 1.73478 9.10536 1.48043 9.29289 1.29289C9.48043 1.10536 9.73478 1 10 1H14C14.2652 1 14.5196 1.10536 14.7071 1.29289C14.8946 1.48043 15 1.73478 15 2V7.085C15.0007 7.35639 15.075 7.62251 15.215 7.855C16.335 9.725 16.5 9.865 16.5 10.415Z" fill="#BEC6C6"/>
<path d="M9 21.5V10.415C10.07 8.635 10.5 8.145 10.5 7.085V2.5H13.5V7.085C13.5 8.14 13.925 8.625 15 10.415V21.5H9Z" fill="#F8F9F9"/>
<path d="M13 8C10.85 8 10.925 8 10.775 7.945L8.775 6.945C8.69254 6.90345 8.6232 6.83988 8.57466 6.76133C8.52612 6.68279 8.50028 6.59233 8.5 6.5V4C8.5 3.86739 8.55268 3.74021 8.64645 3.64645C8.74021 3.55268 8.86739 3.5 9 3.5H15C15.1326 3.5 15.2598 3.55268 15.3536 3.64645C15.4473 3.74021 15.5 3.86739 15.5 4V6.5C15.4997 6.59233 15.4739 6.68279 15.4253 6.76133C15.3768 6.83988 15.3075 6.90345 15.225 6.945C13.065 8.025 13.165 8 13 8ZM11.12 7H12.88L14.5 6.19V4.5H9.5V6.19L11.12 7Z" fill="#BEC6C6"/>
<path d="M12 22.5C11.8674 22.5 11.7402 22.4473 11.6464 22.3536C11.5527 22.2598 11.5 22.1326 11.5 22V7.5C11.5 7.36739 11.5527 7.24021 11.6464 7.14645C11.7402 7.05268 11.8674 7 12 7C12.1326 7 12.2598 7.05268 12.3536 7.14645C12.4473 7.24021 12.5 7.36739 12.5 7.5V22C12.5 22.1326 12.4473 22.2598 12.3536 22.3536C12.2598 22.4473 12.1326 22.5 12 22.5Z" fill="#BEC6C6"/>
<path d="M16.5 17.5H7.5C7.36739 17.5 7.24021 17.4473 7.14645 17.3536C7.05268 17.2598 7 17.1326 7 17C7 16.8674 7.05268 16.7402 7.14645 16.6464C7.24021 16.5527 7.36739 16.5 7.5 16.5H16.5C16.6326 16.5 16.7598 16.5527 16.8536 16.6464C16.9473 16.7402 17 16.8674 17 17C17 17.1326 16.9473 17.2598 16.8536 17.3536C16.7598 17.4473 16.6326 17.5 16.5 17.5Z" fill="#BEC6C6"/>
<path d="M19.5 8H20.5C20.8978 8 21.2794 7.84196 21.5607 7.56066C21.842 7.27936 22 6.89782 22 6.5V2C22 1.60218 21.842 1.22064 21.5607 0.93934C21.2794 0.658035 20.8978 0.5 20.5 0.5H19.5C19.1022 0.5 18.7206 0.658035 18.4393 0.93934C18.158 1.22064 18 1.60218 18 2V4H17.31L16.945 3.275C16.9034 3.19254 16.8399 3.1232 16.7613 3.07466C16.6828 3.02612 16.5923 3.00028 16.5 3H15.5V2C15.5 1.60218 15.342 1.22064 15.0607 0.93934C14.7794 0.658035 14.3978 0.5 14 0.5H10C9.60218 0.5 9.22064 0.658035 8.93934 0.93934C8.65804 1.22064 8.5 1.60218 8.5 2V3H7.5C7.40767 3.00028 7.31721 3.02612 7.23867 3.07466C7.16012 3.1232 7.09655 3.19254 7.055 3.275L6.69 4H6V2C6 1.60218 5.84196 1.22064 5.56066 0.93934C5.27936 0.658035 4.89782 0.5 4.5 0.5H3.5C3.10218 0.5 2.72064 0.658035 2.43934 0.93934C2.15804 1.22064 2 1.60218 2 2V7C2 7.39782 2.15804 7.77936 2.43934 8.06066C2.72064 8.34196 3.10218 8.5 3.5 8.5H4.5C4.89782 8.5 5.27936 8.34196 5.56066 8.06066C5.84196 7.77936 6 7.39782 6 7V5H6.69L7.055 5.725C7.09655 5.80746 7.16012 5.8768 7.23867 5.92534C7.31721 5.97388 7.40767 5.99972 7.5 6H8.5V7.085C8.5 7.455 8.44 7.46 7.285 9.385C7.02422 9.88055 6.92459 10.4451 7 11H6.5C6.36739 11 6.24021 11.0527 6.14645 11.1464C6.05268 11.2402 6 11.3674 6 11.5C6 11.6326 6.05268 11.7598 6.14645 11.8536C6.24021 11.9473 6.36739 12 6.5 12H7V14H6.5C6.36739 14 6.24021 14.0527 6.14645 14.1464C6.05268 14.2402 6 14.3674 6 14.5C6 14.6326 6.05268 14.7598 6.14645 14.8536C6.24021 14.9473 6.36739 15 6.5 15H7V19H6V17C6 16.6022 5.84196 16.2206 5.56066 15.9393C5.27936 15.658 4.89782 15.5 4.5 15.5H3.5C3.10218 15.5 2.72064 15.658 2.43934 15.9393C2.15804 16.2206 2 16.6022 2 17V22C2 22.3978 2.15804 22.7794 2.43934 23.0607C2.72064 23.342 3.10218 23.5 3.5 23.5H4.5C4.89782 23.5 5.27936 23.342 5.56066 23.0607C5.84196 22.7794 6 22.3978 6 22V20H7V22C7 22.3978 7.15804 22.7794 7.43934 23.0607C7.72064 23.342 8.10218 23.5 8.5 23.5H15.5C15.8978 23.5 16.2794 23.342 16.5607 23.0607C16.842 22.7794 17 22.3978 17 22V20H18V22C18 22.3978 18.158 22.7794 18.4393 23.0607C18.7206 23.342 19.1022 23.5 19.5 23.5H20.5C20.8978 23.5 21.2794 23.342 21.5607 23.0607C21.842 22.7794 22 22.3978 22 22V17C22 16.6022 21.842 16.2206 21.5607 15.9393C21.2794 15.658 20.8978 15.5 20.5 15.5H19.5C19.1022 15.5 18.7206 15.658 18.4393 15.9393C18.158 16.2206 18 16.6022 18 17V19H17V15H17.5C17.6326 15 17.7598 14.9473 17.8536 14.8536C17.9473 14.7598 18 14.6326 18 14.5C18 14.3674 17.9473 14.2402 17.8536 14.1464C17.7598 14.0527 17.6326 14 17.5 14H17V12H17.5C17.6326 12 17.7598 11.9473 17.8536 11.8536C17.9473 11.7598 18 11.6326 18 11.5C18 11.3674 17.9473 11.2402 17.8536 11.1464C17.7598 11.0527 17.6326 11 17.5 11H17C17 9.63 17.075 10 15.645 7.6C15.5534 7.44906 15.5033 7.27655 15.5 7.1V6H16.5C16.5923 5.99972 16.6828 5.97388 16.7613 5.92534C16.8399 5.8768 16.9034 5.80746 16.945 5.725L17.31 5H18V6.5C18 6.89782 18.158 7.27936 18.4393 7.56066C18.7206 7.84196 19.1022 8 19.5 8ZM5 7C5 7.13261 4.94732 7.25979 4.85355 7.35355C4.75979 7.44732 4.63261 7.5 4.5 7.5H3.5C3.36739 7.5 3.24021 7.44732 3.14645 7.35355C3.05268 7.25979 3 7.13261 3 7V2C3 1.86739 3.05268 1.74021 3.14645 1.64645C3.24021 1.55268 3.36739 1.5 3.5 1.5H4.5C4.63261 1.5 4.75979 1.55268 4.85355 1.64645C4.94732 1.74021 5 1.86739 5 2V7ZM5 22C5 22.1326 4.94732 22.2598 4.85355 22.3536C4.75979 22.4473 4.63261 22.5 4.5 22.5H3.5C3.36739 22.5 3.24021 22.4473 3.14645 22.3536C3.05268 22.2598 3 22.1326 3 22V17C3 16.8674 3.05268 16.7402 3.14645 16.6464C3.24021 16.5527 3.36739 16.5 3.5 16.5H4.5C4.63261 16.5 4.75979 16.5527 4.85355 16.6464C4.94732 16.7402 5 16.8674 5 17V22ZM19 17C19 16.8674 19.0527 16.7402 19.1464 16.6464C19.2402 16.5527 19.3674 16.5 19.5 16.5H20.5C20.6326 16.5 20.7598 16.5527 20.8536 16.6464C20.9473 16.7402 21 16.8674 21 17V22C21 22.1326 20.9473 22.2598 20.8536 22.3536C20.7598 22.4473 20.6326 22.5 20.5 22.5H19.5C19.3674 22.5 19.2402 22.4473 19.1464 22.3536C19.0527 22.2598 19 22.1326 19 22V17ZM7.81 5L7.56 4.5L7.81 4H8.5V5H7.81ZM15.855 9.9C16.06 10.24 16 9.345 16 22C16 22.1326 15.9473 22.2598 15.8536 22.3536C15.7598 22.4473 15.6326 22.5 15.5 22.5H8.5C8.36739 22.5 8.24021 22.4473 8.14645 22.3536C8.05268 22.2598 8 22.1326 8 22V10.415C8 10.045 8.06 10.04 9.215 8.115C9.59 7.5 9.5 7.59 9.5 2C9.5 1.86739 9.55268 1.74021 9.64645 1.64645C9.74021 1.55268 9.86739 1.5 10 1.5H14C14.1326 1.5 14.2598 1.55268 14.3536 1.64645C14.4473 1.74021 14.5 1.86739 14.5 2V7.085C14.5015 7.44759 14.5999 7.80319 14.785 8.115L15.855 9.9ZM16.19 5H15.5V4H16.19L16.44 4.5L16.19 5ZM19 2C19 1.86739 19.0527 1.74021 19.1464 1.64645C19.2402 1.55268 19.3674 1.5 19.5 1.5H20.5C20.6326 1.5 20.7598 1.55268 20.8536 1.64645C20.9473 1.74021 21 1.86739 21 2V6.5C21 6.63261 20.9473 6.75979 20.8536 6.85355C20.7598 6.94732 20.6326 7 20.5 7H19.5C19.3674 7 19.2402 6.94732 19.1464 6.85355C19.0527 6.75979 19 6.63261 19 6.5V2Z" fill="#414141"/>
<path d="M12.5 11.5H11.5C11.2239 11.5 11 11.7239 11 12V15C11 15.2761 11.2239 15.5 11.5 15.5H12.5C12.7761 15.5 13 15.2761 13 15V12C13 11.7239 12.7761 11.5 12.5 11.5Z" fill="#64B5F6"/>
</svg>
