<svg width="24" height="24" viewBox="0 0 24 24" fill="none" xmlns="http://www.w3.org/2000/svg">
<g clip-path="url(#clip0_170_325)">
<path d="M22.5 11H20.5V10C20.5 9.73478 20.6054 9.48043 20.7929 9.29289C20.9804 9.10536 21.2348 9 21.5 9C21.7652 9 22.0196 9.10536 22.2071 9.29289C22.3946 9.48043 22.5 9.73478 22.5 10V11Z" fill="#F8F9F9"/>
<path d="M18 12.5H16V11.5C16 11.2348 16.1054 10.9804 16.2929 10.7929C16.4804 10.6054 16.7348 10.5 17 10.5C17.2652 10.5 17.5196 10.6054 17.7071 10.7929C17.8946 10.9804 18 11.2348 18 11.5V12.5Z" fill="#BEC6C6"/>
<path d="M20.5 11H22.5V16.5C22.5 16.6326 22.4473 16.7598 22.3536 16.8536C22.2598 16.9473 22.1326 17 22 17H21C20.8674 17 20.7402 16.9473 20.6464 16.8536C20.5527 16.7598 20.5 16.6326 20.5 16.5V11Z" fill="#F8F9F9"/>
<path d="M16 12.5H18V18C18 18.1326 17.9473 18.2598 17.8536 18.3536C17.7598 18.4473 17.6326 18.5 17.5 18.5H16.5C16.3674 18.5 16.2402 18.4473 16.1464 18.3536C16.0527 18.2598 16 18.1326 16 18V12.5Z" fill="#BEC6C6"/>
<path d="M11.5 1H2.5C1.67157 1 1 1.67157 1 2.5V17.5C1 18.3284 1.67157 19 2.5 19H11.5C12.3284 19 13 18.3284 13 17.5V2.5C13 1.67157 12.3284 1 11.5 1Z" fill="#F8F9F9"/>
<path d="M11 3H3C2.72386 3 2.5 3.22386 2.5 3.5V5.5C2.5 5.77614 2.72386 6 3 6H11C11.2761 6 11.5 5.77614 11.5 5.5V3.5C11.5 3.22386 11.2761 3 11 3Z" fill="#BEC6C6"/>
<path d="M4 8H3C2.86739 8 2.74021 7.94732 2.64645 7.85355C2.55268 7.75979 2.5 7.63261 2.5 7.5C2.5 7.36739 2.55268 7.24021 2.64645 7.14645C2.74021 7.05268 2.86739 7 3 7H4C4.13261 7 4.25979 7.05268 4.35355 7.14645C4.44732 7.24021 4.5 7.36739 4.5 7.5C4.5 7.63261 4.44732 7.75979 4.35355 7.85355C4.25979 7.94732 4.13261 8 4 8V8Z" fill="#BEC6C6"/>
<path d="M11 8H10C9.86739 8 9.74021 7.94732 9.64645 7.85355C9.55268 7.75979 9.5 7.63261 9.5 7.5C9.5 7.36739 9.55268 7.24021 9.64645 7.14645C9.74021 7.05268 9.86739 7 10 7H11C11.1326 7 11.2598 7.05268 11.3536 7.14645C11.4473 7.24021 11.5 7.36739 11.5 7.5C11.5 7.63261 11.4473 7.75979 11.3536 7.85355C11.2598 7.94732 11.1326 8 11 8Z" fill="#BEC6C6"/>
<path d="M7 17C8.933 17 10.5 15.433 10.5 13.5C10.5 11.567 8.933 10 7 10C5.067 10 3.5 11.567 3.5 13.5C3.5 15.433 5.067 17 7 17Z" fill="#64B5F6"/>
<path d="M7.5 10.04V16.96C7.16894 17.015 6.83106 17.015 6.5 16.96V10.04C6.83106 9.98496 7.16894 9.98496 7.5 10.04V10.04Z" fill="#BEC6C6"/>
<path d="M7 9.5C7.27614 9.5 7.5 9.27614 7.5 9C7.5 8.72386 7.27614 8.5 7 8.5C6.72386 8.5 6.5 8.72386 6.5 9C6.5 9.27614 6.72386 9.5 7 9.5Z" fill="#BEC6C6"/>
<path d="M4.5 10C4.77614 10 5 9.77614 5 9.5C5 9.22386 4.77614 9 4.5 9C4.22386 9 4 9.22386 4 9.5C4 9.77614 4.22386 10 4.5 10Z" fill="#BEC6C6"/>
<path d="M3 12C3.27614 12 3.5 11.7761 3.5 11.5C3.5 11.2239 3.27614 11 3 11C2.72386 11 2.5 11.2239 2.5 11.5C2.5 11.7761 2.72386 12 3 12Z" fill="#BEC6C6"/>
<path d="M9.5 10C9.77614 10 10 9.77614 10 9.5C10 9.22386 9.77614 9 9.5 9C9.22386 9 9 9.22386 9 9.5C9 9.77614 9.22386 10 9.5 10Z" fill="#BEC6C6"/>
<path d="M11 12C11.2761 12 11.5 11.7761 11.5 11.5C11.5 11.2239 11.2761 11 11 11C10.7239 11 10.5 11.2239 10.5 11.5C10.5 11.7761 10.7239 12 11 12Z" fill="#BEC6C6"/>
<path d="M23 10.5V10C22.9991 9.69053 22.9026 9.3889 22.7235 9.13647C22.5445 8.88404 22.2918 8.69316 22 8.59V6C22 5.86739 21.9473 5.74021 21.8536 5.64645C21.7598 5.55268 21.6326 5.5 21.5 5.5C21.3674 5.5 21.2402 5.55268 21.1464 5.64645C21.0527 5.74021 21 5.86739 21 6V8.59C20.7082 8.69316 20.4555 8.88404 20.2765 9.13647C20.0974 9.3889 20.0009 9.69053 20 10V10.5C19.8674 10.5 19.7402 10.5527 19.6464 10.6464C19.5527 10.7402 19.5 10.8674 19.5 11C19.5 11.1326 19.5527 11.2598 19.6464 11.3536C19.7402 11.4473 19.8674 11.5 20 11.5V16.5C20 16.7652 20.1054 17.0196 20.2929 17.2071C20.4804 17.3946 20.7348 17.5 21 17.5V21C21 21.3978 20.842 21.7794 20.5607 22.0607C20.2794 22.342 19.8978 22.5 19.5 22.5H10.5C10.1022 22.5 9.72064 22.342 9.43934 22.0607C9.15804 21.7794 9 21.3978 9 21V19.5H10V20C10 20.3978 10.158 20.7794 10.4393 21.0607C10.7206 21.342 11.1022 21.5 11.5 21.5H16C16.3978 21.5 16.7794 21.342 17.0607 21.0607C17.342 20.7794 17.5 20.3978 17.5 20V19C17.7652 19 18.0196 18.8946 18.2071 18.7071C18.3946 18.5196 18.5 18.2652 18.5 18V13C18.6326 13 18.7598 12.9473 18.8536 12.8536C18.9473 12.7598 19 12.6326 19 12.5C19 12.3674 18.9473 12.2402 18.8536 12.1464C18.7598 12.0527 18.6326 12 18.5 12V11.5C18.4991 11.1905 18.4026 10.8889 18.2235 10.6365C18.0445 10.384 17.7918 10.1932 17.5 10.09V7.5C17.5 7.36739 17.4473 7.24021 17.3536 7.14645C17.2598 7.05268 17.1326 7 17 7C16.8674 7 16.7402 7.05268 16.6464 7.14645C16.5527 7.24021 16.5 7.36739 16.5 7.5V10.09C16.2082 10.1932 15.9555 10.384 15.7765 10.6365C15.5974 10.8889 15.5009 11.1905 15.5 11.5V12C15.3674 12 15.2402 12.0527 15.1464 12.1464C15.0527 12.2402 15 12.3674 15 12.5C15 12.6326 15.0527 12.7598 15.1464 12.8536C15.2402 12.9473 15.3674 13 15.5 13V18C15.5 18.2652 15.6054 18.5196 15.7929 18.7071C15.9804 18.8946 16.2348 19 16.5 19V20C16.5 20.1326 16.4473 20.2598 16.3536 20.3536C16.2598 20.4473 16.1326 20.5 16 20.5H11.5C11.3674 20.5 11.2402 20.4473 11.1464 20.3536C11.0527 20.2598 11 20.1326 11 20V19.5H11.5C12.0304 19.5 12.5391 19.2893 12.9142 18.9142C13.2893 18.5391 13.5 18.0304 13.5 17.5V2.5C13.5 1.96957 13.2893 1.46086 12.9142 1.08579C12.5391 0.710714 12.0304 0.5 11.5 0.5H2.5C1.96957 0.5 1.46086 0.710714 1.08579 1.08579C0.710714 1.46086 0.5 1.96957 0.5 2.5V17.5C0.5 18.0304 0.710714 18.5391 1.08579 18.9142C1.46086 19.2893 1.96957 19.5 2.5 19.5H8V21C8 21.663 8.26339 22.2989 8.73223 22.7678C9.20107 23.2366 9.83696 23.5 10.5 23.5H19.5C20.163 23.5 20.7989 23.2366 21.2678 22.7678C21.7366 22.2989 22 21.663 22 21V17.5C22.2652 17.5 22.5196 17.3946 22.7071 17.2071C22.8946 17.0196 23 16.7652 23 16.5V11.5C23.1326 11.5 23.2598 11.4473 23.3536 11.3536C23.4473 11.2598 23.5 11.1326 23.5 11C23.5 10.8674 23.4473 10.7402 23.3536 10.6464C23.2598 10.5527 23.1326 10.5 23 10.5ZM16.5 18V13H17.5V18H16.5ZM16.5 11.5C16.5 11.3674 16.5527 11.2402 16.6464 11.1464C16.7402 11.0527 16.8674 11 17 11C17.1326 11 17.2598 11.0527 17.3536 11.1464C17.4473 11.2402 17.5 11.3674 17.5 11.5V12H16.5V11.5ZM2.5 18.5C2.23478 18.5 1.98043 18.3946 1.79289 18.2071C1.60536 18.0196 1.5 17.7652 1.5 17.5V2.5C1.5 2.23478 1.60536 1.98043 1.79289 1.79289C1.98043 1.60536 2.23478 1.5 2.5 1.5H11.5C11.7652 1.5 12.0196 1.60536 12.2071 1.79289C12.3946 1.98043 12.5 2.23478 12.5 2.5V17.5C12.5 17.7652 12.3946 18.0196 12.2071 18.2071C12.0196 18.3946 11.7652 18.5 11.5 18.5H11V18C11 17.8674 10.9473 17.7402 10.8536 17.6464C10.7598 17.5527 10.6326 17.5 10.5 17.5C10.3674 17.5 10.2402 17.5527 10.1464 17.6464C10.0527 17.7402 10 17.8674 10 18V18.5H9V18C9 17.8674 8.94732 17.7402 8.85355 17.6464C8.75979 17.5527 8.63261 17.5 8.5 17.5C8.36739 17.5 8.24021 17.5527 8.14645 17.6464C8.05268 17.7402 8 17.8674 8 18V18.5H2.5ZM21 10C21 9.86739 21.0527 9.74021 21.1464 9.64645C21.2402 9.55268 21.3674 9.5 21.5 9.5C21.6326 9.5 21.7598 9.55268 21.8536 9.64645C21.9473 9.74021 22 9.86739 22 10V10.5H21V10ZM21 16.5V11.5H22V16.5H21Z" fill="#414141"/>
</g>
<defs>
<clipPath id="clip0_170_325">
<rect width="24" height="24" fill="white"/>
</clipPath>
</defs>
</svg>
