<svg width="24" height="24" viewBox="0 0 24 24" fill="none" xmlns="http://www.w3.org/2000/svg">
<g clip-path="url(#clip0_170_291)">
<path d="M21.27 9.8L20.085 11C19.873 11.2123 19.616 11.3743 19.333 11.4738C19.05 11.5733 18.7482 11.6079 18.45 11.575L16.95 11.405C16.7266 11.3803 16.5006 11.4062 16.2886 11.4806C16.0765 11.555 15.8839 11.6761 15.725 11.835L5.27999 22.255C4.80849 22.7104 4.17698 22.9624 3.52149 22.9567C2.866 22.951 2.23897 22.6881 1.77545 22.2245C1.31193 21.761 1.049 21.134 1.04331 20.4785C1.03761 19.823 1.2896 19.1915 1.74499 18.72L12.18 8.285C12.3388 8.12606 12.46 7.93346 12.5344 7.72143C12.6088 7.5094 12.6347 7.28335 12.61 7.06L12.44 5.56C12.4036 5.26134 12.435 4.95832 12.532 4.6735C12.629 4.38868 12.7889 4.12941 13 3.915C14.23 2.7 14.35 2.5 14.785 2.32L17.4 1.135C17.6778 1.00896 17.9875 0.970639 18.2876 1.02513C18.5878 1.07963 18.8642 1.22435 19.08 1.44L19.405 1.765L16.225 4.945L16.805 7.195L19.055 7.775L22.235 4.595L22.56 4.92C22.7756 5.13579 22.9204 5.4122 22.9749 5.71237C23.0294 6.01253 22.991 6.32218 22.865 6.6C21.58 9.43 21.615 9.46 21.27 9.8Z" fill="#BEC6C6"/>
<path d="M2.80501 21.195C2.71203 21.1021 2.63827 20.9919 2.58795 20.8705C2.53762 20.7491 2.51172 20.6189 2.51172 20.4875C2.51172 20.3561 2.53762 20.226 2.58795 20.1046C2.63827 19.9832 2.71203 19.8729 2.80501 19.78L13.045 9.54502C13.2363 9.3812 13.4824 9.29559 13.7341 9.30531C13.9857 9.31503 14.2245 9.41937 14.4026 9.59746C14.5807 9.77555 14.685 10.0143 14.6947 10.266C14.7044 10.5176 14.6188 10.7637 14.455 10.955L4.22001 21.195C4.12713 21.288 4.01684 21.3618 3.89545 21.4121C3.77405 21.4624 3.64392 21.4883 3.51251 21.4883C3.38109 21.4883 3.25096 21.4624 3.12957 21.4121C3.00817 21.3618 2.89788 21.288 2.80501 21.195V21.195Z" fill="#F8F9F9"/>
<path d="M22.56 20.44L20.44 22.56C20.1587 22.8409 19.7775 22.9987 19.38 22.9987C18.9825 22.9987 18.6012 22.8409 18.32 22.56L13 17.255L12.66 15.5L11.6 14.43C11.96 14.07 12.83 13.21 14.43 11.6L15.5 12.66L17.265 13.015L22.56 18.32C22.8409 18.6013 22.9987 18.9825 22.9987 19.38C22.9987 19.7775 22.8409 20.1588 22.56 20.44V20.44Z" fill="#F8F9F9"/>
<path d="M13.725 12.31L12.31 13.725L3.475 4.89L2.415 4.535L1 2.415L2.415 1L4.535 2.415L4.89 3.475L13.725 12.31Z" fill="#BEC6C6"/>
<path d="M16.9999 15.57L22.2049 20.795L22.5599 20.44C22.8408 20.1587 22.9986 19.7775 22.9986 19.38C22.9986 18.9825 22.8408 18.6013 22.5599 18.32L17.2549 13L16.7549 14.535C16.6943 14.7131 16.6851 14.9047 16.7284 15.0878C16.7718 15.2709 16.8659 15.438 16.9999 15.57V15.57Z" fill="#64B5F6"/>
<path d="M13 17.255L18.32 22.56C18.6013 22.8409 18.9825 22.9987 19.38 22.9987C19.7775 22.9987 20.1587 22.8409 20.44 22.56L20.795 22.205L15.57 17C15.4407 16.8732 15.2793 16.7839 15.1032 16.7416C14.9271 16.6993 14.7428 16.7057 14.57 16.76L13 17.255Z" fill="#64B5F6"/>
<path d="M22.9149 17.965C17.1399 12.19 17.5749 12.57 17.3549 12.525L15.9999 12.25L16.0749 12.175C16.1804 12.0687 16.3084 11.9875 16.4494 11.9373C16.5905 11.8871 16.741 11.8692 16.8899 11.885L18.3899 12.055C18.7626 12.0968 19.1399 12.0543 19.4939 11.9305C19.8479 11.8068 20.1695 11.6049 20.4349 11.34C22.2699 9.505 21.7199 10.34 23.3149 6.805C23.4832 6.43474 23.5345 6.02198 23.4622 5.62176C23.3898 5.22155 23.1972 4.85291 22.9099 4.565L22.5849 4.24C22.5384 4.19314 22.4831 4.15594 22.4222 4.13056C22.3613 4.10517 22.2959 4.0921 22.2299 4.0921C22.1639 4.0921 22.0986 4.10517 22.0376 4.13056C21.9767 4.15594 21.9214 4.19314 21.8749 4.24L18.8749 7.24L17.1899 6.805L16.7549 5.12L19.7549 2.12C19.8018 2.07352 19.839 2.01822 19.8644 1.95729C19.8897 1.89636 19.9028 1.83101 19.9028 1.765C19.9028 1.699 19.8897 1.63364 19.8644 1.57271C19.839 1.51178 19.8018 1.45648 19.7549 1.41L19.4299 1.085C19.142 0.797749 18.7734 0.605097 18.3731 0.532737C17.9729 0.460378 17.5602 0.511749 17.1899 0.680002C13.6899 2.27 14.4849 1.73 12.6549 3.56C12.39 3.82542 12.1882 4.14704 12.0644 4.50103C11.9406 4.85503 11.8981 5.23233 11.9399 5.605L12.1099 7.105C12.1257 7.25389 12.1078 7.40442 12.0576 7.54548C12.0074 7.68654 11.9262 7.81453 11.8199 7.92L10.9349 8.805L5.32491 3.205C4.99991 2.19 4.99991 2.12 4.80991 2L2.69491 0.585002C2.59864 0.519497 2.48253 0.489647 2.3666 0.500601C2.25067 0.511554 2.14221 0.562625 2.05991 0.645002L0.64491 2.06C0.562533 2.1423 0.511463 2.25077 0.500509 2.36669C0.489555 2.48262 0.519406 2.59873 0.58491 2.695C2.12491 5 2.04491 4.94 2.25491 5L3.20491 5.315L8.81491 10.94L1.39491 18.365C0.86499 18.9337 0.576497 19.6859 0.59021 20.4631C0.603923 21.2403 0.918771 21.9818 1.46842 22.5315C2.01807 23.0811 2.75962 23.396 3.53682 23.4097C4.31402 23.4234 5.06621 23.1349 5.63491 22.605L12.2499 16L12.5249 17.365C12.5699 17.59 12.1699 17.13 17.9649 22.925C18.1507 23.111 18.3712 23.2585 18.614 23.3591C18.8568 23.4598 19.1171 23.5116 19.3799 23.5116C19.6427 23.5116 19.903 23.4598 20.1458 23.3591C20.3886 23.2585 20.6092 23.111 20.7949 22.925L22.9149 20.805C23.1024 20.6191 23.2512 20.3979 23.3527 20.1542C23.4542 19.9104 23.5065 19.649 23.5065 19.385C23.5065 19.121 23.4542 18.8596 23.3527 18.6158C23.2512 18.3721 23.1024 18.1509 22.9149 17.965ZM12.5349 8.64C12.7471 8.42705 12.9085 8.16901 13.0072 7.88508C13.1058 7.60115 13.1393 7.29863 13.1049 7L12.9399 5.5C12.9145 5.27584 12.9399 5.04883 13.0144 4.83587C13.0888 4.62291 13.2104 4.42949 13.3699 4.27L14.5549 3.085C14.8299 2.81 14.8249 2.855 17.6049 1.585C17.7843 1.50288 17.984 1.47568 18.1789 1.50682C18.3737 1.53796 18.555 1.62605 18.6999 1.76L15.8699 4.595C15.8048 4.65861 15.7582 4.7388 15.7353 4.82691C15.7124 4.91502 15.714 5.00772 15.7399 5.095L16.3199 7.345C16.3422 7.43175 16.3873 7.51092 16.4507 7.57425C16.514 7.63758 16.5932 7.68274 16.6799 7.705L18.9299 8.285C19.0172 8.31091 19.1099 8.31249 19.198 8.28958C19.2861 8.26667 19.3663 8.22014 19.4299 8.155L22.2599 5.325C22.3939 5.46989 22.4819 5.65117 22.5131 5.84602C22.5442 6.04087 22.517 6.24058 22.4349 6.42C21.1699 9.205 21.2049 9.21 20.9349 9.47L19.7499 10.655C19.5904 10.8146 19.397 10.9361 19.184 11.0105C18.9711 11.085 18.7441 11.1104 18.5199 11.085L17.0199 10.92C16.7221 10.8864 16.4205 10.9202 16.1375 11.0189C15.8545 11.1176 15.5973 11.2786 15.3849 11.49L15.2049 11.67L14.8099 11.27C14.7634 11.2231 14.7081 11.1859 14.6472 11.1606C14.5863 11.1352 14.5209 11.1221 14.4549 11.1221C14.3889 11.1221 14.3236 11.1352 14.2626 11.1606C14.2017 11.1859 14.1464 11.2231 14.0999 11.27L13.7499 11.62L11.6499 9.525L12.5349 8.64ZM3.82991 4.535C3.70991 4.415 3.62491 4.41 2.73491 4.115L1.64491 2.5L2.49991 1.645L4.11491 2.735L4.41491 3.635C4.47991 3.81 3.83991 3.135 13.0149 12.31L12.3099 13L3.82991 4.535ZM4.92991 21.9C4.55463 22.2753 4.04564 22.4861 3.51491 22.4861C2.98418 22.4861 2.47519 22.2753 2.09991 21.9C1.72463 21.5247 1.5138 21.0157 1.5138 20.485C1.5138 19.9543 1.72463 19.4453 2.09991 19.07L9.52491 11.65L11.5999 13.725C11.2899 14.035 11.0999 14.165 11.0999 14.43C11.0999 14.695 11.2299 14.77 11.6449 15.18L4.92991 21.9ZM22.2049 20.085L20.0849 22.205C19.8975 22.3913 19.6441 22.4958 19.3799 22.4958C19.1157 22.4958 18.8623 22.3913 18.6749 22.205L13.4999 17L13.1749 15.38C13.1299 15.17 13.0399 15.125 12.3349 14.42C12.6549 14.1 13.6349 13.135 14.4549 12.3C14.6939 12.5625 14.9477 12.8113 15.2149 13.045C15.3299 13.14 15.2599 13.11 17.0349 13.465L22.2299 18.665C22.322 18.7596 22.3945 18.8715 22.4431 18.9943C22.4918 19.117 22.5156 19.2482 22.5133 19.3802C22.5109 19.5122 22.4825 19.6425 22.4296 19.7634C22.3767 19.8844 22.3003 19.9937 22.2049 20.085V20.085Z" fill="#414141"/>
</g>
<defs>
<clipPath id="clip0_170_291">
<rect width="24" height="24" fill="white"/>
</clipPath>
</defs>
</svg>
