<svg width="24" height="24" viewBox="0 0 24 24" fill="none" xmlns="http://www.w3.org/2000/svg">
<g clip-path="url(#clip0_170_193)">
<path d="M1.5 20H22.5C22.6326 20 22.7598 20.0527 22.8536 20.1464C22.9473 20.2402 23 20.3674 23 20.5V22H1V20.5C1 20.3674 1.05268 20.2402 1.14645 20.1464C1.24021 20.0527 1.36739 20 1.5 20V20Z" fill="#BEC6C6"/>
<path d="M22 7H2V20H22V7Z" fill="#F8F9F9"/>
<path d="M23 5V6.5C23 6.63261 22.9473 6.75979 22.8536 6.85355C22.7598 6.94732 22.6326 7 22.5 7H1.5C1.36739 7 1.24021 6.94732 1.14645 6.85355C1.05268 6.75979 1 6.63261 1 6.5V5C1 4.73478 1.10536 4.48043 1.29289 4.29289C1.48043 4.10536 1.73478 4 2 4H3.5L4 5H8L8.5 4H15.5L16 5H20L20.5 4H22C22.2652 4 22.5196 4.10536 22.7071 4.29289C22.8946 4.48043 23 4.73478 23 5Z" fill="#BEC6C6"/>
<path d="M5.5 2H6.5C6.63261 2 6.75979 2.05268 6.85355 2.14645C6.94732 2.24021 7 2.36739 7 2.5V5H5V2.5C5 2.36739 5.05268 2.24021 5.14645 2.14645C5.24021 2.05268 5.36739 2 5.5 2V2Z" fill="#F8F9F9"/>
<path d="M19 5H17V2.5C17 2.36739 17.0527 2.24021 17.1464 2.14645C17.2402 2.05268 17.3674 2 17.5 2H18.5C18.6326 2 18.7598 2.05268 18.8536 2.14645C18.9473 2.24021 19 2.36739 19 2.5V5Z" fill="#F8F9F9"/>
<path d="M23.5 6.5V5C23.5 4.60218 23.342 4.22064 23.0607 3.93934C22.7794 3.65804 22.3978 3.5 22 3.5H20.5C20.4077 3.50028 20.3172 3.52612 20.2387 3.57466C20.1601 3.6232 20.0966 3.69254 20.055 3.775L19.69 4.5H19.5V2.5C19.5 2.23478 19.3946 1.98043 19.2071 1.79289C19.0196 1.60536 18.7652 1.5 18.5 1.5H17.5C17.2348 1.5 16.9804 1.60536 16.7929 1.79289C16.6054 1.98043 16.5 2.23478 16.5 2.5V4.5H16.31L15.945 3.775C15.9034 3.69254 15.8399 3.6232 15.7613 3.57466C15.6828 3.52612 15.5923 3.50028 15.5 3.5H8.5C8.40767 3.50028 8.31721 3.52612 8.23867 3.57466C8.16012 3.6232 8.09655 3.69254 8.055 3.775L7.69 4.5H7.5V2.5C7.5 2.23478 7.39464 1.98043 7.20711 1.79289C7.01957 1.60536 6.76522 1.5 6.5 1.5H5.5C5.23478 1.5 4.98043 1.60536 4.79289 1.79289C4.60536 1.98043 4.5 2.23478 4.5 2.5V4.5H4.31L3.945 3.775C3.90345 3.69254 3.83988 3.6232 3.76133 3.57466C3.68279 3.52612 3.59233 3.50028 3.5 3.5H2C1.60218 3.5 1.22064 3.65804 0.93934 3.93934C0.658035 4.22064 0.5 4.60218 0.5 5V6.5C0.5 6.76522 0.605357 7.01957 0.792893 7.20711C0.98043 7.39464 1.23478 7.5 1.5 7.5V19.5C1.23478 19.5 0.98043 19.6054 0.792893 19.7929C0.605357 19.9804 0.5 20.2348 0.5 20.5V22C0.5 22.1326 0.552678 22.2598 0.646447 22.3536C0.740215 22.4473 0.867392 22.5 1 22.5H23C23.1326 22.5 23.2598 22.4473 23.3536 22.3536C23.4473 22.2598 23.5 22.1326 23.5 22V20.5C23.5 20.2348 23.3946 19.9804 23.2071 19.7929C23.0196 19.6054 22.7652 19.5 22.5 19.5V7.5C22.7652 7.5 23.0196 7.39464 23.2071 7.20711C23.3946 7.01957 23.5 6.76522 23.5 6.5ZM17.5 2.5H18.5V4.5H17.5V2.5ZM5.5 2.5H6.5V4.5H5.5V2.5ZM1.5 5C1.5 4.86739 1.55268 4.74021 1.64645 4.64645C1.74021 4.55268 1.86739 4.5 2 4.5H3.19L3.555 5.225C3.59655 5.30746 3.66012 5.3768 3.73867 5.42534C3.81721 5.47388 3.90767 5.49972 4 5.5H8C8.09233 5.49972 8.18279 5.47388 8.26133 5.42534C8.33988 5.3768 8.40345 5.30746 8.445 5.225L8.81 4.5H15.19L15.555 5.225C15.5966 5.30746 15.6601 5.3768 15.7387 5.42534C15.8172 5.47388 15.9077 5.49972 16 5.5H20C20.0923 5.49972 20.1828 5.47388 20.2613 5.42534C20.3399 5.3768 20.4034 5.30746 20.445 5.225L20.81 4.5H22C22.1326 4.5 22.2598 4.55268 22.3536 4.64645C22.4473 4.74021 22.5 4.86739 22.5 5V6.5H1.5V5ZM22.5 21.5H1.5V20.5H22.5V21.5ZM21.5 19.5H2.5V7.5H21.5V19.5Z" fill="#414141"/>
<path d="M5 11.5C4.86739 11.5 4.74021 11.4473 4.64645 11.3536C4.55268 11.2598 4.5 11.1326 4.5 11V9C4.5 8.86739 4.55268 8.74021 4.64645 8.64645C4.74021 8.55268 4.86739 8.5 5 8.5C5.13261 8.5 5.25979 8.55268 5.35355 8.64645C5.44732 8.74021 5.5 8.86739 5.5 9V11C5.5 11.1326 5.44732 11.2598 5.35355 11.3536C5.25979 11.4473 5.13261 11.5 5 11.5Z" fill="#BEC6C6"/>
<path d="M6 10.5H4C3.86739 10.5 3.74021 10.4473 3.64645 10.3536C3.55268 10.2598 3.5 10.1326 3.5 10C3.5 9.86739 3.55268 9.74021 3.64645 9.64645C3.74021 9.55268 3.86739 9.5 4 9.5H6C6.13261 9.5 6.25979 9.55268 6.35355 9.64645C6.44732 9.74021 6.5 9.86739 6.5 10C6.5 10.1326 6.44732 10.2598 6.35355 10.3536C6.25979 10.4473 6.13261 10.5 6 10.5Z" fill="#BEC6C6"/>
<path d="M20 10.5H18C17.8674 10.5 17.7402 10.4473 17.6464 10.3536C17.5527 10.2598 17.5 10.1326 17.5 10C17.5 9.86739 17.5527 9.74021 17.6464 9.64645C17.7402 9.55268 17.8674 9.5 18 9.5H20C20.1326 9.5 20.2598 9.55268 20.3536 9.64645C20.4473 9.74021 20.5 9.86739 20.5 10C20.5 10.1326 20.4473 10.2598 20.3536 10.3536C20.2598 10.4473 20.1326 10.5 20 10.5Z" fill="#BEC6C6"/>
<path d="M8 11.5H16C16.2652 11.5 16.5196 11.6054 16.7071 11.7929C16.8946 11.9804 17 12.2348 17 12.5V19.5H7V12.5C7 12.2348 7.10536 11.9804 7.29289 11.7929C7.48043 11.6054 7.73478 11.5 8 11.5Z" fill="#64B5F6"/>
<path d="M11.5 18.5L14 15H12.5V12.5L10 16H11.5V18.5Z" fill="#F8F9F9"/>
</g>
<defs>
<clipPath id="clip0_170_193">
<rect width="24" height="24" fill="white"/>
</clipPath>
</defs>
</svg>
