<svg width="24" height="24" viewBox="0 0 24 24" fill="none" xmlns="http://www.w3.org/2000/svg">
<g clip-path="url(#clip0_170_360)">
<g clip-path="url(#clip1_170_360)">
<path d="M17.115 23H14.72C14.5097 23.0002 14.3048 22.9341 14.1342 22.8111C13.9637 22.6882 13.8362 22.5146 13.77 22.315L12 17V14.5H17.5V16L16.5 17L18.06 21.685C18.1098 21.835 18.1233 21.9946 18.0995 22.1508C18.0757 22.307 18.0152 22.4553 17.923 22.5836C17.8308 22.7119 17.7095 22.8165 17.569 22.8889C17.4286 22.9613 17.273 22.9994 17.115 23V23Z" fill="#BEC6C6"/>
<path d="M17.835 21.5H16C15.8674 21.5 15.7402 21.4473 15.6464 21.3536C15.5527 21.2598 15.5 21.1326 15.5 21C15.5 20.8674 15.5527 20.7402 15.6464 20.6464C15.7402 20.5527 15.8674 20.5 16 20.5H17.835C17.9676 20.5 18.0948 20.5527 18.1886 20.6464C18.2823 20.7402 18.335 20.8674 18.335 21C18.335 21.1326 18.2823 21.2598 18.1886 21.3536C18.0948 21.4473 17.9676 21.5 17.835 21.5Z" fill="#F8F9F9"/>
<path d="M17.165 19.5H15.5C15.3674 19.5 15.2402 19.4473 15.1464 19.3536C15.0527 19.2598 15 19.1326 15 19C15 18.8674 15.0527 18.7402 15.1464 18.6464C15.2402 18.5527 15.3674 18.5 15.5 18.5H17.165C17.2976 18.5 17.4248 18.5527 17.5186 18.6464C17.6123 18.7402 17.665 18.8674 17.665 19C17.665 19.1326 17.6123 19.2598 17.5186 19.3536C17.4248 19.4473 17.2976 19.5 17.165 19.5Z" fill="#F8F9F9"/>
<path d="M16.5 17.5H15C14.8674 17.5 14.7402 17.4473 14.6464 17.3536C14.5527 17.2598 14.5 17.1326 14.5 17C14.5 16.8674 14.5527 16.7402 14.6464 16.6464C14.7402 16.5527 14.8674 16.5 15 16.5H16.5C16.6326 16.5 16.7598 16.5527 16.8536 16.6464C16.9473 16.7402 17 16.8674 17 17C17 17.1326 16.9473 17.2598 16.8536 17.3536C16.7598 17.4473 16.6326 17.5 16.5 17.5Z" fill="#F8F9F9"/>
<path d="M14 9.5H4.5V14.5H14V9.5Z" fill="#F8F9F9"/>
<path d="M19 10.915V12.965C18.9997 13.1293 18.9589 13.2909 18.8813 13.4357C18.8037 13.5804 18.6916 13.7038 18.555 13.795L17.5 14.5H14V9.5H17.585C18.085 9.5 18.325 9.825 18.705 10.205C18.7986 10.298 18.8728 10.4087 18.9235 10.5305C18.9741 10.6524 19.0001 10.783 19 10.915V10.915Z" fill="#F8F9F9"/>
<path d="M22 13H21V11H22C22.2652 11 22.5196 11.1054 22.7071 11.2929C22.8946 11.4804 23 11.7348 23 12C23 12.2652 22.8946 12.5196 22.7071 12.7071C22.5196 12.8946 22.2652 13 22 13Z" fill="#BEC6C6"/>
<path d="M4.5 14.5L2.5 13H2C1.73478 13 1.48043 12.8946 1.29289 12.7071C1.10536 12.5196 1 12.2652 1 12C1 11.7348 1.10536 11.4804 1.29289 11.2929C1.48043 11.1054 1.73478 11 2 11H2.5L4.5 9.5V14.5Z" fill="#BEC6C6"/>
<path d="M17.4999 3.865L16.8149 4.05L13.3549 2.05L13.1699 1.365L13.6699 0.5L17.9999 3L17.4999 3.865Z" fill="#64B5F6"/>
<path d="M14 7.72999L12.755 8.05999L11.885 7.55999L11.55 6.31499C11.4176 5.80809 11.4894 5.26949 11.75 4.81499L13.355 2.04999L16.815 4.04999L15.23 6.79499C15.0972 7.02461 14.9201 7.22554 14.7089 7.38606C14.4978 7.54658 14.2568 7.66349 14 7.72999Z" fill="#64B5F6"/>
<path d="M12.77 8.06L11.94 9.5H10.78L11.9 7.56L12.77 8.06Z" fill="#64B5F6"/>
<path d="M16.5 13C17.0523 13 17.5 12.5523 17.5 12C17.5 11.4477 17.0523 11 16.5 11C15.9477 11 15.5 11.4477 15.5 12C15.5 12.5523 15.9477 13 16.5 13Z" fill="#BEC6C6"/>
<path d="M8.795 18.74L7.5 19V18L8 17V13C8 12.7348 8.10536 12.4804 8.29289 12.2929C8.48043 12.1054 8.73478 12 9 12H10V17.27C9.99984 17.6165 9.87972 17.9523 9.66006 18.2202C9.44039 18.4882 9.13473 18.6719 8.795 18.74V18.74Z" fill="#BEC6C6"/>
<path d="M22 10.5H21C20.8674 10.5 20.7402 10.5527 20.6464 10.6464C20.5527 10.7402 20.5 10.8674 20.5 11V11.5H19.5C19.5 10.865 19.565 10.35 19.06 9.855C18.555 9.36 18.305 9 17.585 9C3.5 9 4.43 9 4.305 9.04C3.62438 9.49348 2.96689 9.98076 2.335 10.5H2C1.60218 10.5 1.22064 10.658 0.93934 10.9393C0.658035 11.2206 0.5 11.6022 0.5 12C0.5 12.3978 0.658035 12.7794 0.93934 13.0607C1.22064 13.342 1.60218 13.5 2 13.5H2.335C4.425 15.065 4.28 15 4.5 15H7.5V16.88C7 17.84 7 17.85 7 18V19C6.99848 19.075 7.01385 19.1494 7.04498 19.2176C7.0761 19.2858 7.12218 19.3462 7.17981 19.3942C7.23743 19.4423 7.30511 19.4767 7.37785 19.495C7.45059 19.5133 7.52651 19.515 7.6 19.5L8.89 19.24C9.34528 19.1495 9.75489 18.9034 10.0486 18.544C10.3424 18.1846 10.5019 17.7342 10.5 17.27V17H11.5C11.5 17.125 11.405 16.795 13.3 22.5C13.4037 22.7934 13.5961 23.0472 13.8505 23.2264C14.105 23.4056 14.4088 23.5012 14.72 23.5H17.115C17.3555 23.5009 17.5926 23.444 17.8065 23.3341C18.0204 23.2242 18.2047 23.0645 18.3439 22.8684C18.4831 22.6723 18.5731 22.4457 18.6064 22.2075C18.6396 21.9694 18.6152 21.7267 18.535 21.5L17.07 17.11L17.855 16.33C18.045 16.125 18 16.045 18 14.74L18.83 14.19C19.0326 14.0554 19.1995 13.8736 19.3162 13.6602C19.4329 13.4468 19.496 13.2082 19.5 12.965V12.5H20.5V13C20.5 13.1326 20.5527 13.2598 20.6464 13.3536C20.7402 13.4473 20.8674 13.5 21 13.5H22C22.3978 13.5 22.7794 13.342 23.0607 13.0607C23.342 12.7794 23.5 12.3978 23.5 12C23.5 11.6022 23.342 11.2206 23.0607 10.9393C22.7794 10.658 22.3978 10.5 22 10.5ZM2.5 12.5H2C1.86739 12.5 1.74021 12.4473 1.64645 12.3536C1.55268 12.2598 1.5 12.1326 1.5 12C1.5 11.8674 1.55268 11.7402 1.64645 11.6464C1.74021 11.5527 1.86739 11.5 2 11.5H2.5C2.72 11.5 2.69 11.5 4 10.5V13.5C2.69 12.5 2.72 12.5 2.5 12.5ZM5 14V10H13.5V14H10.5V12.5H11.5C11.6326 12.5 11.7598 12.4473 11.8536 12.3536C11.9473 12.2598 12 12.1326 12 12C12 11.8674 11.9473 11.7402 11.8536 11.6464C11.7598 11.5527 11.6326 11.5 11.5 11.5H9C8.60218 11.5 8.22064 11.658 7.93934 11.9393C7.65804 12.2206 7.5 12.6022 7.5 13V14H5ZM9.5 17.27C9.5045 17.5047 9.42632 17.7334 9.27915 17.9162C9.13198 18.099 8.9252 18.2243 8.695 18.27L8 18.39V18.12L8.445 17.225C8.525 17.065 8.5 17.3 8.5 13C8.5 12.8674 8.55268 12.7402 8.64645 12.6464C8.74021 12.5527 8.86739 12.5 9 12.5H9.5V17.27ZM10.5 16V15H11.5V16H10.5ZM17.585 21.84C17.6103 21.9149 17.6175 21.9948 17.6059 22.073C17.5944 22.1513 17.5645 22.2256 17.5186 22.29C17.4727 22.3545 17.4122 22.4071 17.3421 22.4436C17.2719 22.4801 17.1941 22.4994 17.115 22.5H14.72C14.611 22.5057 14.5031 22.4755 14.4128 22.4141C14.3225 22.3527 14.2548 22.2635 14.22 22.16L12.5 16.92V15H17V15.795L16.145 16.645C16.0816 16.7097 16.0369 16.7903 16.0158 16.8784C15.9947 16.9665 15.9978 17.0586 16.025 17.145L17.585 21.84ZM18.5 12.965C18.4996 13.0474 18.4788 13.1283 18.4396 13.2007C18.4003 13.2731 18.3438 13.3347 18.275 13.38L17.35 14H14.5V10H17.585C17.6508 9.99962 17.716 10.0122 17.777 10.0371C17.8379 10.062 17.8933 10.0987 17.94 10.145C18.34 10.545 18.5 10.645 18.5 10.915V12.965ZM22 12.5H21.5V11.5H22C22.1326 11.5 22.2598 11.5527 22.3536 11.6464C22.4473 11.7402 22.5 11.8674 22.5 12C22.5 12.1326 22.4473 12.2598 22.3536 12.3536C22.2598 12.4473 22.1326 12.5 22 12.5Z" fill="#414141"/>
</g>
</g>
<defs>
<clipPath id="clip0_170_360">
<rect width="24" height="24" fill="white"/>
</clipPath>
<clipPath id="clip1_170_360">
<rect width="24" height="24" fill="white"/>
</clipPath>
</defs>
</svg>
