<svg width="64" height="64" viewBox="0 0 64 64" fill="none" xmlns="http://www.w3.org/2000/svg">
<rect x="0.5" y="0.5" width="63" height="63" rx="7.5" fill="#64B5F6" fill-opacity="0.05" stroke="#414141"/>
<path d="M44.4348 42.7305V51.1305H14.8696V42.7305C14.8589 41.6767 15.2313 40.655 15.9175 39.8553C16.6037 39.0555 17.5569 38.5322 18.6 38.3826L27.0435 37.2174L28.7827 42.4348H30.5218L32.2609 37.2174L40.7044 38.4261C41.74 38.5747 42.6874 39.0917 43.3726 39.8823C44.0578 40.673 44.435 41.6842 44.4348 42.7305V42.7305Z" fill="#F8F9F9"/>
<path d="M28.3043 41.0087L26.1739 42.4348L23.0782 37.7826L27.0435 37.2174L28.3043 41.0087Z" fill="#BEC6C6"/>
<path d="M36.2261 37.7826L33.1304 42.4348L31 41.0087L32.2609 37.2174L36.2261 37.7826Z" fill="#BEC6C6"/>
<path d="M32.2608 34.8956V37.2174L30.5217 42.4348H28.7826L27.0435 37.2174V34.8348C27.8493 35.2472 28.7398 35.4673 29.645 35.4778C30.5502 35.4884 31.4456 35.2891 32.2608 34.8956V34.8956Z" fill="#F8F9F9"/>
<path d="M14.8695 43.3044H17.4782C17.7088 43.3044 17.93 43.396 18.0931 43.559C18.2562 43.7221 18.3478 43.9433 18.3478 44.1739V45.913C18.3478 46.1437 18.2562 46.3648 18.0931 46.5279C17.93 46.691 17.7088 46.7826 17.4782 46.7826H14.8695V43.3044Z" fill="#BEC6C6"/>
<path d="M31.3913 39.8261L30.5218 42.4348H28.7827L27.9131 39.8261H31.3913Z" fill="#BEC6C6"/>
<path d="M35.7391 24.9913V29.3913C35.7383 30.5425 35.4112 31.6699 34.7955 32.6426C34.1798 33.6154 33.301 34.3936 32.2608 34.887C28.1043 36.8696 23.5652 33.5739 23.5652 29.1304V24.9913C24.1078 25.0525 24.6545 25.0699 25.2 25.0435C26.9391 25.0435 27.1739 24.1739 28.8869 24.1739C30.4087 24.1739 31.2 24.0783 32.2608 24.6087C33.1416 25.0014 34.1113 25.1515 35.0695 25.0435C35.2937 25.0437 35.5176 25.0263 35.7391 24.9913V24.9913Z" fill="#F8F9F9"/>
<path d="M38.3478 17.2174V21.5652H20.9565V17.2174C20.9565 16.0643 21.4146 14.9584 22.23 14.143C23.0454 13.3276 24.1513 12.8696 25.3044 12.8696H34C35.1531 12.8696 36.259 13.3276 37.0744 14.143C37.8898 14.9584 38.3478 16.0643 38.3478 17.2174V17.2174Z" fill="#BEC6C6"/>
<path d="M38.3478 21.5652V23.5478C38.3474 23.7117 38.3006 23.8722 38.2129 24.0106C38.1252 24.1491 38.0002 24.26 37.8522 24.3304C37.3702 24.5285 36.8765 24.697 36.3739 24.8348C35.9536 24.9758 35.5129 25.0464 35.0696 25.0435C34.1113 25.152 33.1415 25.0018 32.2609 24.6087C31.2174 24.087 30.5218 24.1739 28.887 24.1739C27.2522 24.1739 26.9131 25.0435 25.2 25.0435C24.6546 25.0678 24.108 25.0504 23.5652 24.9913C22.8476 24.8158 22.1419 24.5951 21.4522 24.3304C21.3042 24.26 21.1792 24.1491 21.0915 24.0106C21.0038 23.8722 20.957 23.7117 20.9565 23.5478V21.5652H38.3478Z" fill="#BEC6C6"/>
<path d="M23.5652 24.9913V28.5217H22.2609C21.8322 28.5184 21.414 28.3889 21.0584 28.1494C20.7029 27.9099 20.4257 27.571 20.2616 27.175C20.0974 26.7789 20.0535 26.3433 20.1354 25.9225C20.2172 25.5017 20.4211 25.1143 20.7218 24.8087C20.9281 24.5987 21.1772 24.4356 21.4522 24.3304C22.1414 24.5964 22.8473 24.8171 23.5652 24.9913V24.9913Z" fill="#F8F9F9"/>
<path d="M39.2174 26.3478C39.2174 26.9244 38.9884 27.4773 38.5807 27.885C38.173 28.2927 37.62 28.5217 37.0435 28.5217H35.7391V24.9913C36.4574 24.8182 37.1633 24.5974 37.8522 24.3304C38.2559 24.4909 38.6019 24.7691 38.8454 25.1289C39.0889 25.4887 39.2185 25.9134 39.2174 26.3478V26.3478Z" fill="#F8F9F9"/>
<path d="M44.4348 52C44.2042 52 43.983 51.9084 43.8199 51.7453C43.6568 51.5822 43.5652 51.3611 43.5652 51.1304V42.7304C43.5738 41.8877 43.2762 41.0706 42.7276 40.4308C42.179 39.7911 41.4168 39.3722 40.5826 39.2522L32.8522 38.1478L31.3913 42.7131C31.3308 42.893 31.213 43.0483 31.056 43.155C30.899 43.2618 30.7114 43.3143 30.5217 43.3044H28.7826C28.6003 43.3048 28.4225 43.248 28.2742 43.1419C28.126 43.0358 28.0149 42.8858 27.9565 42.7131L26.4522 38.1826L18.7217 39.287C17.8876 39.407 17.1254 39.8258 16.5768 40.4656C16.0282 41.1053 15.7305 41.9225 15.7391 42.7652V51.1304C15.7391 51.3611 15.6475 51.5822 15.4844 51.7453C15.3214 51.9084 15.1002 52 14.8696 52C14.6389 52 14.4178 51.9084 14.2547 51.7453C14.0916 51.5822 14 51.3611 14 51.1304V42.7304C13.9999 41.4747 14.4527 40.261 15.2753 39.3122C16.0979 38.3634 17.2352 37.7431 18.4783 37.5652L26.9217 36.3478C27.1229 36.3189 27.3279 36.3613 27.501 36.4677C27.6742 36.5742 27.8046 36.7379 27.8696 36.9304L29.4087 41.5652H29.8957L31.4348 36.9391C31.4982 36.745 31.6279 36.5793 31.8012 36.4711C31.9745 36.363 32.1803 36.3194 32.3826 36.3478L40.8261 37.5565C42.0707 37.7346 43.2091 38.3562 44.0319 39.3068C44.8547 40.2574 45.3065 41.4732 45.3043 42.7304V51.1304C45.3043 51.3611 45.2127 51.5822 45.0497 51.7453C44.8866 51.9084 44.6654 52 44.4348 52Z" fill="#414141"/>
<path d="M32.2609 38.087C32.0303 38.087 31.8091 37.9953 31.646 37.8323C31.483 37.6692 31.3914 37.448 31.3914 37.2174V34.887C31.3914 34.6563 31.483 34.4352 31.646 34.2721C31.8091 34.109 32.0303 34.0174 32.2609 34.0174C32.4915 34.0174 32.7127 34.109 32.8758 34.2721C33.0389 34.4352 33.1305 34.6563 33.1305 34.887V37.2174C33.1305 37.448 33.0389 37.6692 32.8758 37.8323C32.7127 37.9953 32.4915 38.087 32.2609 38.087Z" fill="#414141"/>
<path d="M27.0435 38.087C26.8129 38.087 26.5917 37.9953 26.4286 37.8323C26.2656 37.6692 26.174 37.448 26.174 37.2174V34.887C26.174 34.6563 26.2656 34.4352 26.4286 34.2721C26.5917 34.109 26.8129 34.0174 27.0435 34.0174C27.2741 34.0174 27.4953 34.109 27.6584 34.2721C27.8215 34.4352 27.9131 34.6563 27.9131 34.887V37.2174C27.9131 37.448 27.8215 37.6692 27.6584 37.8323C27.4953 37.9953 27.2741 38.087 27.0435 38.087Z" fill="#414141"/>
<path d="M29.6522 36.3478C27.78 36.2955 26.0028 35.5114 24.7023 34.1636C23.4017 32.8159 22.6813 31.012 22.6956 29.1391V24.9913C22.6956 24.7607 22.7873 24.5395 22.9503 24.3764C23.1134 24.2133 23.3346 24.1217 23.5652 24.1217C23.7958 24.1217 24.017 24.2133 24.1801 24.3764C24.3432 24.5395 24.4348 24.7607 24.4348 24.9913V29.1391C24.4267 29.8531 24.5601 30.5615 24.8272 31.2236C25.0944 31.8857 25.4899 32.4884 25.9911 32.9969C26.4923 33.5054 27.0893 33.9096 27.7475 34.1862C28.4057 34.4629 29.1121 34.6064 29.8261 34.6087C31.1795 34.5636 32.4623 33.994 33.4034 33.0204C34.3446 32.0468 34.8703 30.7454 34.8696 29.3913V24.9913C34.8696 24.7607 34.9612 24.5395 35.1242 24.3764C35.2873 24.2133 35.5085 24.1217 35.7391 24.1217C35.9697 24.1217 36.1909 24.2133 36.354 24.3764C36.5171 24.5395 36.6087 24.7607 36.6087 24.9913V29.3913C36.6087 31.2363 35.8758 33.0057 34.5712 34.3103C33.2666 35.6149 31.4972 36.3478 29.6522 36.3478Z" fill="#414141"/>
<path d="M35.0695 25.913C33.9745 26.0289 32.8686 25.8456 31.8695 25.3826C31 24.9478 30.3391 25.0435 28.8869 25.0435C27.4347 25.0435 27.1043 25.913 25.2 25.913C23.2956 25.913 23.4608 25.913 21.2782 25.2C20.9312 25.0848 20.6293 24.8632 20.4154 24.5666C20.2015 24.27 20.0866 23.9135 20.0869 23.5478V17.2174C20.0869 15.8337 20.6366 14.5066 21.6151 13.5281C22.5935 12.5497 23.9206 12 25.3043 12H34C35.3837 12 36.7108 12.5497 37.6892 13.5281C38.6677 14.5066 39.2173 15.8337 39.2173 17.2174V23.5478C39.2177 23.9135 39.1027 24.27 38.8889 24.5666C38.675 24.8632 38.3731 25.0848 38.026 25.2C37.0906 25.6111 36.0895 25.8525 35.0695 25.913V25.913ZM28.8869 23.3043C30.4521 23.3043 31.3826 23.2 32.6521 23.8348C33.4141 24.1586 34.2479 24.2755 35.0695 24.1739C35.9033 24.1102 36.719 23.8982 37.4782 23.5478V17.2174C37.4782 16.2949 37.1118 15.4102 36.4595 14.7579C35.8072 14.1056 34.9224 13.7391 34 13.7391H25.3043C24.3818 13.7391 23.4971 14.1056 22.8448 14.7579C22.1925 15.4102 21.826 16.2949 21.826 17.2174V23.5478C23.913 24.2435 23.4782 24.1739 25.2 24.1739C26.6347 24.1739 26.9826 23.3043 28.8869 23.3043Z" fill="#414141"/>
<path d="M38.3478 22.4348H20.9565C20.7259 22.4348 20.5047 22.3432 20.3416 22.1801C20.1785 22.017 20.0869 21.7958 20.0869 21.5652C20.0869 21.3346 20.1785 21.1134 20.3416 20.9503C20.5047 20.7873 20.7259 20.6956 20.9565 20.6956H38.3478C38.5784 20.6956 38.7996 20.7873 38.9627 20.9503C39.1257 21.1134 39.2173 21.3346 39.2173 21.5652C39.2173 21.7958 39.1257 22.017 38.9627 22.1801C38.7996 22.3432 38.5784 22.4348 38.3478 22.4348Z" fill="#414141"/>
<path d="M23.5653 29.3913H22.261C21.5511 29.3926 20.8631 29.1457 20.316 28.6933C19.769 28.2409 19.3972 27.6115 19.2652 26.914C19.1331 26.2166 19.249 25.4949 19.5928 24.8738C19.9366 24.2527 20.4867 23.7714 21.1479 23.513C21.2553 23.4731 21.3694 23.4546 21.4839 23.4588C21.5984 23.4629 21.7109 23.4896 21.8151 23.5372C21.9192 23.5849 22.013 23.6526 22.091 23.7365C22.169 23.8203 22.2297 23.9187 22.2697 24.0261C22.3096 24.1334 22.3281 24.2476 22.3239 24.3621C22.3198 24.4765 22.2931 24.589 22.2455 24.6932C22.1978 24.7974 22.1301 24.8911 22.0463 24.9691C21.9624 25.0471 21.864 25.1079 21.7566 25.1478C21.518 25.2441 21.314 25.4101 21.1712 25.6242C21.0285 25.8383 20.9537 26.0905 20.9566 26.3478C20.9566 26.6938 21.0941 27.0255 21.3387 27.2701C21.5833 27.5148 21.915 27.6522 22.261 27.6522H22.6958V24.9913C22.6958 24.7607 22.7874 24.5395 22.9505 24.3764C23.1135 24.2134 23.3347 24.1217 23.5653 24.1217C23.796 24.1217 24.0171 24.2134 24.1802 24.3764C24.3433 24.5395 24.4349 24.7607 24.4349 24.9913V28.5217C24.4349 28.7524 24.3433 28.9735 24.1802 29.1366C24.0171 29.2997 23.796 29.3913 23.5653 29.3913Z" fill="#414141"/>
<path d="M37.0434 29.3913H35.7391C35.5084 29.3913 35.2873 29.2997 35.1242 29.1366C34.9611 28.9735 34.8695 28.7524 34.8695 28.5217V24.9913C34.8695 24.7607 34.9611 24.5395 35.1242 24.3764C35.2873 24.2134 35.5084 24.1217 35.7391 24.1217C35.9697 24.1217 36.1909 24.2134 36.3539 24.3764C36.517 24.5395 36.6086 24.7607 36.6086 24.9913V27.6522H37.0434C37.3435 27.6506 37.6338 27.5456 37.8655 27.3549C38.0972 27.1643 38.256 26.8995 38.3153 26.6054C38.3745 26.3112 38.3305 26.0056 38.1907 25.7401C38.0509 25.4746 37.8238 25.2654 37.5478 25.1478C37.4404 25.1079 37.342 25.0471 37.2581 24.9691C37.1743 24.8911 37.1066 24.7974 37.0589 24.6932C36.9627 24.4828 36.954 24.2429 37.0347 24.0261C37.0747 23.9187 37.1354 23.8203 37.2134 23.7365C37.2914 23.6526 37.3852 23.5849 37.4893 23.5372C37.6997 23.441 37.9397 23.4323 38.1565 23.513C38.8177 23.7714 39.3678 24.2527 39.7116 24.8738C40.0554 25.4949 40.1713 26.2166 40.0392 26.9141C39.9072 27.6115 39.5354 28.2409 38.9884 28.6933C38.4413 29.1457 37.7533 29.3926 37.0434 29.3913V29.3913Z" fill="#414141"/>
<path d="M26.1738 43.3043C26.0306 43.3036 25.8898 43.2675 25.7639 43.1992C25.638 43.131 25.5309 43.0327 25.4521 42.913L22.3565 38.2609C22.254 38.0699 22.2266 37.8476 22.2795 37.6375C22.3324 37.4274 22.4618 37.2446 22.6424 37.125C22.823 37.0053 23.0418 36.9573 23.2559 36.9905C23.47 37.0237 23.664 37.1356 23.7999 37.3043L26.4086 41.2261L27.8086 40.2869C28 40.1578 28.2349 40.11 28.4616 40.154C28.6883 40.198 28.8882 40.3303 29.0173 40.5217C29.1465 40.7131 29.1943 40.948 29.1503 41.1747C29.1062 41.4014 28.974 41.6013 28.7825 41.7304C26.5043 43.3043 26.5304 43.3043 26.1738 43.3043Z" fill="#414141"/>
<path d="M33.1305 43.3044C32.7478 43.3044 32.7218 43.2087 30.5218 41.7304C30.3303 41.6013 30.1981 41.4014 30.154 41.1747C30.11 40.948 30.1578 40.7132 30.287 40.5217C30.4161 40.3303 30.616 40.1981 30.8427 40.154C31.0694 40.11 31.3043 40.1578 31.4957 40.287L32.8957 41.2261L35.5044 37.3044C35.5616 37.1977 35.6404 37.1042 35.7358 37.0298C35.8312 36.9554 35.941 36.9017 36.0584 36.8721C36.1757 36.8426 36.2979 36.8379 36.4172 36.8583C36.5364 36.8786 36.6501 36.9237 36.751 36.9905C36.8518 37.0574 36.9376 37.1445 37.0029 37.2464C37.0682 37.3483 37.1114 37.4627 37.13 37.5822C37.1485 37.7018 37.1419 37.8239 37.1105 37.9408C37.0791 38.0576 37.0237 38.1666 36.9478 38.2609L33.8522 42.913C33.7734 43.0327 33.6663 43.131 33.5404 43.1992C33.4145 43.2675 33.2737 43.3036 33.1305 43.3044V43.3044Z" fill="#414141"/>
<path d="M29.6522 52C29.4215 52 29.2004 51.9084 29.0373 51.7453C28.8742 51.5822 28.7826 51.3611 28.7826 51.1304V42.4348C28.7826 42.2042 28.8742 41.983 29.0373 41.8199C29.2004 41.6568 29.4215 41.5652 29.6522 41.5652C29.8828 41.5652 30.104 41.6568 30.267 41.8199C30.4301 41.983 30.5217 42.2042 30.5217 42.4348V51.1304C30.5217 51.3611 30.4301 51.5822 30.267 51.7453C30.104 51.9084 29.8828 52 29.6522 52Z" fill="#414141"/>
<path d="M20.9565 52C20.7259 52 20.5047 51.9084 20.3416 51.7453C20.1785 51.5822 20.0869 51.3611 20.0869 51.1304V45.9131C20.0869 45.6824 20.1785 45.4613 20.3416 45.2982C20.5047 45.1351 20.7259 45.0435 20.9565 45.0435C21.1871 45.0435 21.4083 45.1351 21.5714 45.2982C21.7344 45.4613 21.826 45.6824 21.826 45.9131V51.1304C21.826 51.3611 21.7344 51.5822 21.5714 51.7453C21.4083 51.9084 21.1871 52 20.9565 52Z" fill="#414141"/>
<path d="M38.3478 52C38.1172 52 37.896 51.9084 37.733 51.7453C37.5699 51.5822 37.4783 51.3611 37.4783 51.1304V45.9131C37.4783 45.6824 37.5699 45.4613 37.733 45.2982C37.896 45.1351 38.1172 45.0435 38.3478 45.0435C38.5785 45.0435 38.7996 45.1351 38.9627 45.2982C39.1258 45.4613 39.2174 45.6824 39.2174 45.9131V51.1304C39.2174 51.3611 39.1258 51.5822 38.9627 51.7453C38.7996 51.9084 38.5785 52 38.3478 52Z" fill="#414141"/>
<path d="M29.6522 18.9565C30.6127 18.9565 31.3913 18.1779 31.3913 17.2174C31.3913 16.2569 30.6127 15.4783 29.6522 15.4783C28.6917 15.4783 27.9131 16.2569 27.9131 17.2174C27.9131 18.1779 28.6917 18.9565 29.6522 18.9565Z" fill="#F8F9F9"/>
<path d="M42.6956 52V47.1652C42.6949 46.7741 42.6061 46.3881 42.4361 46.0359C42.266 45.6837 42.0189 45.3742 41.713 45.1304L39.3217 43.2174C39.0175 42.9727 38.772 42.6629 38.6034 42.3107C38.4349 41.9585 38.3475 41.573 38.3478 41.1826C38.3478 37.8 38.2608 37.4261 38.6261 36.5652L40.5043 32.2174C40.6334 31.8982 40.8544 31.6245 41.1393 31.431C41.4241 31.2374 41.76 31.1329 42.1043 31.1304H42.6956V38.087L45.3043 39.2696L47.913 38.087V31.1304H48.5043C48.8447 31.13 49.1778 31.2294 49.4622 31.4165C49.7466 31.6035 49.9699 31.8699 50.1043 32.1826C52.0347 36.6957 52.2608 36.9565 52.2608 37.9304V41.1826C52.2611 41.573 52.1738 41.9585 52.0052 42.3107C51.8366 42.6629 51.5912 42.9727 51.2869 43.2174L48.8956 45.1304C48.5898 45.3742 48.3427 45.6837 48.1726 46.0359C48.0025 46.3881 47.9138 46.7741 47.913 47.1652V52" fill="#64B5F6"/>
<path d="M37.4783 46.7826H32.2609V49.3913H37.4783V46.7826Z" fill="#BEC6C6"/>
</svg>
