<svg width="64" height="64" viewBox="0 0 64 64" fill="none" xmlns="http://www.w3.org/2000/svg">
<rect x="0.5" y="0.5" width="63" height="63" rx="7.5" fill="#64B5F6" fill-opacity="0.05" stroke="#414141"/>
<path d="M49.6522 48.5218L47.9131 51.1304L46.174 48.5218V28.5218C46.174 28.0605 46.3572 27.6182 46.6833 27.292C47.0095 26.9659 47.4518 26.7826 47.9131 26.7826C48.3743 26.7826 48.8167 26.9659 49.1428 27.292C49.469 27.6182 49.6522 28.0605 49.6522 28.5218V48.5218Z" fill="#F8F9F9"/>
<path d="M49.6522 28.5218V31.1304H46.174V28.5218C46.174 28.0605 46.3572 27.6182 46.6833 27.292C47.0095 26.9659 47.4518 26.7826 47.9131 26.7826C48.3743 26.7826 48.8167 26.9659 49.1428 27.292C49.469 27.6182 49.6522 28.0605 49.6522 28.5218V28.5218Z" fill="#BEC6C6"/>
<path d="M49.6522 40.6956H46.174V46.7826H49.6522V40.6956Z" fill="#BEC6C6"/>
<path d="M40.9565 17.2174H16.6086C15.6481 17.2174 14.8695 17.996 14.8695 18.9565V49.3913C14.8695 50.3518 15.6481 51.1304 16.6086 51.1304H40.9565C41.917 51.1304 42.6956 50.3518 42.6956 49.3913V18.9565C42.6956 17.996 41.917 17.2174 40.9565 17.2174Z" fill="#BEC6C6"/>
<path d="M35.7391 17.2174V19.8261H21.826V17.2174C21.826 16.7561 22.0093 16.3138 22.3354 15.9876C22.6616 15.6615 23.1039 15.4783 23.5652 15.4783H25.3043V14.6087C25.3043 14.1475 25.4875 13.7051 25.8137 13.3789C26.1398 13.0528 26.5822 12.8696 27.0434 12.8696H30.5217C30.9829 12.8696 31.4253 13.0528 31.7515 13.3789C32.0776 13.7051 32.2608 14.1475 32.2608 14.6087V15.4783H34C34.4612 15.4783 34.9036 15.6615 35.2297 15.9876C35.5559 16.3138 35.7391 16.7561 35.7391 17.2174Z" fill="#BEC6C6"/>
<path d="M40.0869 48.5217V19.8261H17.4782V48.5217H40.0869Z" fill="#F8F9F9"/>
<path d="M28.7827 17.2174C29.2629 17.2174 29.6522 16.8281 29.6522 16.3478C29.6522 15.8676 29.2629 15.4783 28.7827 15.4783C28.3024 15.4783 27.9131 15.8676 27.9131 16.3478C27.9131 16.8281 28.3024 17.2174 28.7827 17.2174Z" fill="#F8F9F9"/>
<path d="M36.6087 26.5391V28.5217C36.6087 28.7524 36.5171 28.9735 36.354 29.1366C36.191 29.2997 35.9698 29.3913 35.7392 29.3913H21.8261C21.5955 29.3913 21.3743 29.2997 21.2112 29.1366C21.0482 28.9735 20.9565 28.7524 20.9565 28.5217V27.2696C20.9564 26.8823 21.0854 26.5061 21.3233 26.2005C21.5611 25.8949 21.8942 25.6775 22.2696 25.5826L24.4348 25.0435L25.6609 23.2087C25.8194 22.9711 26.0341 22.7762 26.2858 22.6412C26.5376 22.5062 26.8187 22.4353 27.1044 22.4348H31.3305C31.6161 22.4353 31.8972 22.5062 32.149 22.6412C32.4008 22.7762 32.6154 22.9711 32.7739 23.2087L34 25.0435L36.0174 25.713C36.1901 25.7714 36.3401 25.8825 36.4462 26.0308C36.5524 26.179 36.6092 26.3568 36.6087 26.5391Z" fill="#64B5F6"/>
<path d="M24.4348 31.1304C25.3953 31.1304 26.1739 30.3518 26.1739 29.3913C26.1739 28.4308 25.3953 27.6522 24.4348 27.6522C23.4743 27.6522 22.6957 28.4308 22.6957 29.3913C22.6957 30.3518 23.4743 31.1304 24.4348 31.1304Z" fill="#BEC6C6"/>
<path d="M33.1305 31.1304C34.091 31.1304 34.8696 30.3518 34.8696 29.3913C34.8696 28.4308 34.091 27.6522 33.1305 27.6522C32.17 27.6522 31.3914 28.4308 31.3914 29.3913C31.3914 30.3518 32.17 31.1304 33.1305 31.1304Z" fill="#BEC6C6"/>
<path d="M27.9131 27.6522H27.0435C26.8129 27.6522 26.5917 27.5606 26.4286 27.3975C26.2656 27.2344 26.174 27.0132 26.174 26.7826C26.174 26.552 26.2656 26.3308 26.4286 26.1677C26.5917 26.0047 26.8129 25.9131 27.0435 25.9131H27.9131C28.1437 25.9131 28.3649 26.0047 28.528 26.1677C28.691 26.3308 28.7826 26.552 28.7826 26.7826C28.7826 27.0132 28.691 27.2344 28.528 27.3975C28.3649 27.5606 28.1437 27.6522 27.9131 27.6522Z" fill="#F8F9F9"/>
<path d="M24.4347 40.6956H20.9565C20.4762 40.6956 20.0869 41.085 20.0869 41.5652V45.0435C20.0869 45.5237 20.4762 45.913 20.9565 45.913H24.4347C24.915 45.913 25.3043 45.5237 25.3043 45.0435V41.5652C25.3043 41.085 24.915 40.6956 24.4347 40.6956Z" fill="#BEC6C6"/>
<path d="M37.4783 35.4783H28.7827C28.552 35.4783 28.3309 35.3867 28.1678 35.2236C28.0047 35.0605 27.9131 34.8393 27.9131 34.6087C27.9131 34.3781 28.0047 34.1569 28.1678 33.9938C28.3309 33.8307 28.552 33.7391 28.7827 33.7391H37.4783C37.7089 33.7391 37.9301 33.8307 38.0932 33.9938C38.2563 34.1569 38.3479 34.3781 38.3479 34.6087C38.3479 34.8393 38.2563 35.0605 38.0932 35.2236C37.9301 35.3867 37.7089 35.4783 37.4783 35.4783Z" fill="#BEC6C6"/>
<path d="M33.1305 38.9565H28.7827C28.552 38.9565 28.3309 38.8649 28.1678 38.7018C28.0047 38.5388 27.9131 38.3176 27.9131 38.087C27.9131 37.8563 28.0047 37.6352 28.1678 37.4721C28.3309 37.309 28.552 37.2174 28.7827 37.2174H33.1305C33.3611 37.2174 33.5823 37.309 33.7454 37.4721C33.9084 37.6352 34 37.8563 34 38.087C34 38.3176 33.9084 38.5388 33.7454 38.7018C33.5823 38.8649 33.3611 38.9565 33.1305 38.9565Z" fill="#BEC6C6"/>
<path d="M37.4783 42.4348H28.7827C28.552 42.4348 28.3309 42.3432 28.1678 42.1801C28.0047 42.017 27.9131 41.7958 27.9131 41.5652C27.9131 41.3346 28.0047 41.1134 28.1678 40.9503C28.3309 40.7873 28.552 40.6956 28.7827 40.6956H37.4783C37.7089 40.6956 37.9301 40.7873 38.0932 40.9503C38.2563 41.1134 38.3479 41.3346 38.3479 41.5652C38.3479 41.7958 38.2563 42.017 38.0932 42.1801C37.9301 42.3432 37.7089 42.4348 37.4783 42.4348Z" fill="#BEC6C6"/>
<path d="M33.1305 45.9131H28.7827C28.552 45.9131 28.3309 45.8214 28.1678 45.6584C28.0047 45.4953 27.9131 45.2741 27.9131 45.0435C27.9131 44.8129 28.0047 44.5917 28.1678 44.4286C28.3309 44.2655 28.552 44.1739 28.7827 44.1739H33.1305C33.3611 44.1739 33.5823 44.2655 33.7454 44.4286C33.9084 44.5917 34 44.8129 34 45.0435C34 45.2741 33.9084 45.4953 33.7454 45.6584C33.5823 45.8214 33.3611 45.9131 33.1305 45.9131Z" fill="#BEC6C6"/>
<path d="M21.826 38.9565C21.3564 38.9565 21.3303 38.8261 19.4695 36.9652C19.3884 36.8841 19.3241 36.7879 19.2802 36.6819C19.2363 36.576 19.2137 36.4625 19.2137 36.3478C19.2137 36.2332 19.2363 36.1196 19.2802 36.0137C19.3241 35.9078 19.3884 35.8115 19.4695 35.7304C19.5506 35.6494 19.6468 35.585 19.7527 35.5412C19.8587 35.4973 19.9722 35.4747 20.0869 35.4747C20.2015 35.4747 20.3151 35.4973 20.421 35.5412C20.5269 35.585 20.6232 35.6494 20.7043 35.7304L21.826 36.8609L24.6869 33.9913C24.7679 33.9102 24.8642 33.8459 24.9701 33.802C25.0761 33.7581 25.1896 33.7356 25.3043 33.7356C25.4189 33.7356 25.5325 33.7581 25.6384 33.802C25.7443 33.8459 25.8406 33.9102 25.9217 33.9913C26.0027 34.0724 26.067 34.1686 26.1109 34.2746C26.1548 34.3805 26.1774 34.494 26.1774 34.6087C26.1774 34.7233 26.1548 34.8369 26.1109 34.9428C26.067 35.0487 26.0027 35.145 25.9217 35.2261L22.4434 38.7043C22.3621 38.7849 22.2658 38.8487 22.1598 38.892C22.0539 38.9352 21.9404 38.9572 21.826 38.9565Z" fill="#BEC6C6"/>
<path d="M40.9565 16.3478H36.4522C36.2728 15.8404 35.9408 15.4009 35.5018 15.0895C35.0628 14.7782 34.5382 14.6102 34 14.6087H33.1304C33.1304 13.9168 32.8556 13.2533 32.3664 12.7641C31.8771 12.2748 31.2136 12 30.5217 12H27.0435C26.3516 12 25.6881 12.2748 25.1989 12.7641C24.7096 13.2533 24.4348 13.9168 24.4348 14.6087H23.5652C23.027 14.6102 22.5024 14.7782 22.0634 15.0895C21.6244 15.4009 21.2924 15.8404 21.113 16.3478H16.6087C15.9168 16.3478 15.2533 16.6227 14.7641 17.1119C14.2748 17.6011 14 18.2647 14 18.9565V49.3913C14 50.0832 14.2748 50.7467 14.7641 51.2359C15.2533 51.7252 15.9168 52 16.6087 52H40.9565C41.6484 52 42.3119 51.7252 42.8011 51.2359C43.2904 50.7467 43.5652 50.0832 43.5652 49.3913V18.9565C43.5652 18.2647 43.2904 17.6011 42.8011 17.1119C42.3119 16.6227 41.6484 16.3478 40.9565 16.3478ZM23.5652 16.3478H25.3043C25.535 16.3478 25.7561 16.2562 25.9192 16.0931C26.0823 15.9301 26.1739 15.7089 26.1739 15.4783V14.6087C26.1739 14.3781 26.2655 14.1569 26.4286 13.9938C26.5917 13.8307 26.8129 13.7391 27.0435 13.7391H30.5217C30.7524 13.7391 30.9735 13.8307 31.1366 13.9938C31.2997 14.1569 31.3913 14.3781 31.3913 14.6087V15.4783C31.3913 15.7089 31.4829 15.9301 31.646 16.0931C31.8091 16.2562 32.0302 16.3478 32.2609 16.3478H34C34.2306 16.3478 34.4518 16.4394 34.6149 16.6025C34.778 16.7656 34.8696 16.9868 34.8696 17.2174V18.9565H22.6957V17.2174C22.6957 16.9868 22.7873 16.7656 22.9503 16.6025C23.1134 16.4394 23.3346 16.3478 23.5652 16.3478V16.3478ZM41.8261 49.3913C41.8261 49.6219 41.7345 49.8431 41.5714 50.0062C41.4083 50.1693 41.1871 50.2609 40.9565 50.2609H16.6087C16.3781 50.2609 16.1569 50.1693 15.9938 50.0062C15.8307 49.8431 15.7391 49.6219 15.7391 49.3913V18.9565C15.7391 18.7259 15.8307 18.5047 15.9938 18.3416C16.1569 18.1786 16.3781 18.087 16.6087 18.087H20.9565V19.8261C20.9565 20.0567 21.0481 20.2779 21.2112 20.441C21.3743 20.604 21.5955 20.6957 21.8261 20.6957H35.7391C35.9698 20.6957 36.1909 20.604 36.354 20.441C36.5171 20.2779 36.6087 20.0567 36.6087 19.8261V18.087H40.9565C41.1871 18.087 41.4083 18.1786 41.5714 18.3416C41.7345 18.5047 41.8261 18.7259 41.8261 18.9565V49.3913Z" fill="#414141"/>
<path d="M51.3913 30.2609H50.5217V28.5217C50.5202 27.9835 50.3522 27.459 50.0409 27.02C49.7295 26.5809 49.29 26.249 48.7826 26.0696V25.0435C48.7826 24.8129 48.6909 24.5917 48.5279 24.4286C48.3648 24.2655 48.1436 24.1739 47.913 24.1739C47.6824 24.1739 47.4612 24.2655 47.2981 24.4286C47.135 24.5917 47.0434 24.8129 47.0434 25.0435V26.0696C46.536 26.249 46.0965 26.5809 45.7851 27.02C45.4738 27.459 45.3058 27.9835 45.3043 28.5217C45.3043 49.913 45.2347 48.687 45.4521 49L47.1913 51.6087C47.2708 51.7271 47.3782 51.8241 47.5041 51.8911C47.63 51.9582 47.7704 51.9933 47.913 51.9933C48.0556 51.9933 48.196 51.9582 48.3219 51.8911C48.4478 51.8241 48.5552 51.7271 48.6347 51.6087L50.3739 49C50.5826 48.6957 50.5217 49.9217 50.5217 32H51.3913C51.6219 32 51.8431 32.0916 52.0061 32.2547C52.1692 32.4178 52.2608 32.6389 52.2608 32.8696V38.087C52.2608 38.3176 52.3524 38.5388 52.5155 38.7018C52.6786 38.8649 52.8998 38.9565 53.1304 38.9565C53.361 38.9565 53.5822 38.8649 53.7453 38.7018C53.9083 38.5388 53.9999 38.3176 53.9999 38.087V32.8696C53.9999 32.1777 53.7251 31.5142 53.2359 31.0249C52.7467 30.5357 52.0831 30.2609 51.3913 30.2609ZM47.913 27.6522C48.1436 27.6522 48.3648 27.7438 48.5279 27.9069C48.6909 28.0699 48.7826 28.2911 48.7826 28.5217V30.2609H47.0434V28.5217C47.0434 28.2911 47.135 28.0699 47.2981 27.9069C47.4612 27.7438 47.6824 27.6522 47.913 27.6522ZM48.7826 45.913H47.0434V41.5652H48.7826V45.913ZM47.913 49.5652L47.0434 48.2609V47.6522H48.7826V48.2609L47.913 49.5652ZM48.7826 39.8261H47.0434V32H48.7826V39.8261Z" fill="#414141"/>
</svg>
