<svg width="60" height="25" viewBox="0 0 60 25" fill="none" xmlns="http://www.w3.org/2000/svg">
  <g id="car-8" stroke="none" stroke-width="1" fill="none" fill-rule="evenodd">
    <path d="M6.31367 4.46501L7.38064 8.63904L39.7461 10.5477C39.7463 10.5367 39.7466 10.5257 39.7469 10.5147L39.747 10.513C39.7749 9.765 40.0525 9.09285 40.5636 8.55356C37.3201 6.17785 34.0568 3.94792 30.3725 3.75767L30.3724 3.75767C27.1184 3.58888 23.7236 3.62138 20.3864 3.65332C19.4921 3.66188 18.6019 3.6704 17.7197 3.67499M6.31367 4.46501L17.7193 3.675C17.7194 3.675 17.7196 3.675 17.7197 3.67499M6.31367 4.46501C10.0672 3.75606 13.857 3.70212 17.7197 3.67499M6.31367 4.46501L17.7197 3.67499" fill="#EBEBEB" stroke="#999999" />
    <path fill-rule="evenodd" clip-rule="evenodd" d="M58.5567 15.8883C56.9383 15.015 53.93 13.3633 53.4917 12.9233C53.2033 12.6367 53.0833 11.9067 53.28 11.1617C55.635 11.635 57.665 12.3533 57.9733 13.725L58.56 15.8333L58.5567 15.8883Z" fill="#999999" />
    <path fill-rule="evenodd" clip-rule="evenodd" d="M20.3467 18.81H41.4417V17.3917H20.3467V18.81Z" fill="#999999" />
    <path fill-rule="evenodd" clip-rule="evenodd" d="M30.8017 13.9333H31.7467V11.8783H30.8017V13.9333Z" fill="#999999" />
    <path fill-rule="evenodd" clip-rule="evenodd" d="M27.6967 13.9333H28.6417V11.8783H27.6967V13.9333Z" fill="#999999" />
    <path fill-rule="evenodd" clip-rule="evenodd" d="M8.95 11.6083H17.7V10.6633H8.95V11.6083Z" fill="#999999" />
    <path fill-rule="evenodd" clip-rule="evenodd" d="M2.11166 13.815C3.38833 13.5333 4.72166 12.6017 4.77166 11.5633V6.04H2.85166C2.44666 8.64 2.32666 11.6533 2.26166 12.885C2.26166 13.1967 2.19999 13.5183 2.11166 13.815Z" fill="#999999" />
    <path fill-rule="evenodd" clip-rule="evenodd" d="M41.3567 9.13667L41.3433 9.14834C40.9483 9.53334 40.7383 10.0033 40.7183 10.5483C40.7117 10.7433 40.7767 10.9133 40.9117 11.0533C41.0483 11.1933 41.215 11.265 41.4117 11.265H42.9767C43.235 11.265 43.4533 11.1367 43.58 10.9117C43.7067 10.6883 43.7 10.4317 43.5667 10.2133C43.2817 9.74334 42.8133 9.23834 42.0667 8.97667C41.8133 8.88834 41.5483 8.94834 41.3567 9.13667Z" fill="#999999" />
    <path fill-rule="evenodd" clip-rule="evenodd" d="M42.6383 11.9767C42.4933 11.9767 42.35 11.91 42.2567 11.7817L41.38 10.5817C41.2267 10.37 41.2733 10.075 41.4833 9.92167C41.695 9.77 41.99 9.81334 42.1433 10.025L43.02 11.225C43.1733 11.4367 43.1283 11.7317 42.9167 11.885C42.8333 11.9467 42.735 11.9767 42.6383 11.9767Z" fill="#999999" />
    <path fill-rule="evenodd" clip-rule="evenodd" d="M56.7117 17.66H56.4833C56.205 17.66 55.9783 17.8883 55.9783 18.165V18.7133C55.9783 18.99 56.2067 19.2167 56.4833 19.2167H56.7117C56.92 19.2167 57.0983 19.0917 57.1767 18.9117H58.56V17.9667H57.1767C57.1 17.7867 56.92 17.66 56.7117 17.66Z" fill="#999999" />
    <path fill-rule="evenodd" clip-rule="evenodd" d="M4.54333 22.0817C3.08499 22.0817 1.56666 21.0267 0.926661 19.5433L0.866661 19.2633V14.8467L0.969994 14.6767C0.979994 14.66 1.12166 14.4183 1.26666 14.075C1.45499 13.6233 1.55333 13.2117 1.55333 12.885L1.57499 12.435C1.64333 11.08 1.76833 8.555 2.10166 6.25834C2.64166 2.55167 3.49666 0.900003 4.87333 0.900003L30.4833 0.898336C34.1417 1.08667 37.0633 2.72167 39.2033 4.12667C40.2933 4.84334 41.36 5.62667 42.435 6.415C43.7983 7.41334 45.2067 8.44667 46.6667 9.33667C47.485 9.55167 48.68 9.72334 49.9433 9.90167C51.0133 10.055 52.1517 10.2183 53.2317 10.4283C55.5317 10.8783 58.23 11.64 58.665 13.5683C59.255 15.685 59.2667 15.9683 59.195 18.3667L59.1033 21.5167L58.23 21.72C57.84 21.8133 57.5033 21.8933 57.055 21.955C56.4167 22.0417 55.6083 22.0817 54.4367 22.0817H53.31V20.6633H54.4367C55.5417 20.6633 56.29 20.6283 56.8633 20.55C57.1883 20.5067 57.4467 20.45 57.7183 20.385L57.7783 18.3717C57.845 16.055 57.85 15.92 57.2917 13.915C57.0917 13.035 55.6367 12.3417 52.9583 11.82C51.9033 11.615 50.79 11.455 49.7433 11.305C48.385 11.1117 47.1033 10.9283 46.195 10.6767L46.0183 10.6C44.475 9.66667 43.0117 8.595 41.5983 7.55667C40.5417 6.78334 39.495 6.01334 38.425 5.31167C35.4283 3.345 33.0433 2.44834 30.4467 2.315L4.87666 2.31667C4.86666 2.31667 4.08166 2.495 3.50499 6.46167C3.17999 8.69334 3.05833 11.1733 2.98999 12.505L2.96999 12.9217C2.97166 13.4033 2.83833 13.9883 2.57333 14.6217C2.46833 14.8767 2.35999 15.0883 2.28499 15.2283V19.1067C2.73999 20.0267 3.71999 20.635 4.60666 20.6633H5.74666V22.0817H4.62499C4.59833 22.0817 4.57166 22.0817 4.54333 22.0817ZM14.57 22.0817H45.8767V20.6633H14.57V22.0817Z" fill="#999999" />
    <path fill-rule="evenodd" clip-rule="evenodd" d="M46.6633 24.06C45.95 23.56 45.37 22.8767 44.9883 22.08H43.5633V19.57C43.5633 17.915 44.2417 16.4083 45.3333 15.3133H45.335L45.3367 15.3117C46.43 14.2183 47.9383 13.54 49.5933 13.54C51.25 13.54 52.7567 14.2183 53.85 15.3117L53.8517 15.3133H53.8533C54.945 16.4083 55.625 17.915 55.625 19.57V22.08H54.2C53.8183 22.8767 53.2383 23.56 52.525 24.06C51.695 24.6433 50.6817 24.9867 49.5933 24.9867C48.505 24.9867 47.4933 24.6433 46.6633 24.06ZM49.5933 16.3117C47.6217 16.3117 46.025 17.91 46.025 19.88C46.025 21.8517 47.6217 23.45 49.5933 23.45C51.565 23.45 53.1633 21.8517 53.1633 19.88C53.1633 17.91 51.565 16.3117 49.5933 16.3117ZM10.1583 16.3117C8.18666 16.3117 6.58833 17.91 6.58833 19.88C6.58833 21.8517 8.18666 23.45 10.1583 23.45C12.13 23.45 13.7283 21.8517 13.7283 19.88C13.7283 17.91 12.13 16.3117 10.1583 16.3117ZM10.1583 13.54C11.815 13.54 13.3217 14.2183 14.415 15.3117L14.4167 15.3133H14.4183C15.51 16.4083 16.1883 17.915 16.1883 19.57V22.08H14.765C14.3833 22.8767 13.8033 23.56 13.09 24.06C12.2583 24.6433 11.2467 24.9867 10.1583 24.9867C9.06999 24.9867 8.05833 24.6433 7.22666 24.06C6.51333 23.56 5.93333 22.8767 5.55333 22.08H4.12833V19.57C4.12833 17.915 4.80666 16.4083 5.89833 15.3133H5.89999L5.90166 15.3117C6.99499 14.2183 8.50166 13.54 10.1583 13.54Z" fill="#999999" />
    <path fill-rule="evenodd" clip-rule="evenodd" d="M49.5933 18.5883C48.88 18.5883 48.3017 19.1667 48.3017 19.8817C48.3017 20.595 48.88 21.175 49.5933 21.175C50.3083 21.175 50.8883 20.595 50.8883 19.8817C50.8883 19.1667 50.3083 18.5883 49.5933 18.5883Z" fill="#999999" />
    <path fill-rule="evenodd" clip-rule="evenodd" d="M10.1583 18.5883C9.44333 18.5883 8.86499 19.1667 8.86499 19.8817C8.86499 20.595 9.44333 21.175 10.1583 21.175C10.8733 21.175 11.4517 20.595 11.4517 19.8817C11.4517 19.1667 10.8733 18.5883 10.1583 18.5883Z" fill="#999999" />
  </g>
</svg>