<svg width="68" height="25" viewBox="0 0 68 25" fill="none" xmlns="http://www.w3.org/2000/svg">
  <g id="car-7" stroke="none" stroke-width="1" fill="none" fill-rule="evenodd">
    <g clip-path="url(#clip0)">
    <path d="M40.4086 2.90146C42.4086 3.09511 44.0774 4.03045 45.703 5.22169L45.6781 5.24539L45.671 5.25604C45.3425 5.60048 45.1494 6.137 45.0316 6.59737C44.9503 6.91506 44.8938 7.24308 44.859 7.53756C44.1482 7.53879 43.4467 7.54003 42.7524 7.54125C37.187 7.55106 32.0784 7.56007 26.2467 7.56296L26.9332 2.90146H26.9431H26.9723H27.0015H27.0306H27.0598H27.0889H27.118H27.147H27.1761H27.2051H27.2341H27.263H27.2919H27.3209H27.3497H27.3786H27.4074H27.4362H27.465H27.4938H27.5225H27.5512H27.5799H27.6085H27.6372H27.6658H27.6943H27.7229H27.7514H27.78H27.8084H27.8369H27.8653H27.8938H27.9222H27.9505H27.9789H28.0072H28.0355H28.0638H28.092H28.1203H28.1485H28.1767H28.2048H28.233H28.2611H28.2892H28.3173H28.3454H28.3734H28.4014H28.4294H28.4574H28.4853H28.5133H28.5412H28.5691H28.5969H28.6248H28.6526H28.6804H28.7082H28.736H28.7637H28.7915H28.8192H28.8469H28.8745H28.9022H28.9298H28.9574H28.985H29.0126H29.0401H29.0677H29.0952H29.1227H29.1502H29.1776H29.2051H29.2325H29.2599H29.2873H29.3147H29.342H29.3694H29.3967H29.424H29.4513H29.4786H29.5058H29.5331H29.5603H29.5875H29.6147H29.6418H29.669H29.6961H29.7233H29.7504H29.7775H29.8045H29.8316H29.8586H29.8857H29.9127H29.9397H29.9667H29.9936H30.0206H30.0475H30.0745H30.1014H30.1283H30.1551H30.182H30.2089H30.2357H30.2625H30.2893H30.3161H30.3429H30.3697H30.3965H30.4232H30.4499H30.4767H30.5034H30.5301H30.5567H30.5834H30.6101H30.6367H30.6634H30.69H30.7166H30.7432H30.7698H30.7963H30.8229H30.8495H30.876H30.9025H30.9291H30.9556H30.9821H31.0085H31.035H31.0615H31.0879H31.1144H31.1408H31.1673H31.1937H31.2201H31.2465H31.2729H31.2992H31.3256H31.352H31.3783H31.4047H31.431H31.4573H31.4836H31.5099H31.5362H31.5625H31.5888H31.6151H31.6413H31.6676H31.6939H31.7201H31.7463H31.7726H31.7988H31.825H31.8512H31.8774H31.9036H31.9298H31.956H31.9821H32.0083H32.0345H32.0606H32.0868H32.1129H32.139H32.1652H32.1913H32.2174H32.2435H32.2696H32.2957H32.3218H32.3479H32.374H32.4001H32.4262H32.4523H32.4783H32.5044H32.5305H32.5565H32.5826H32.6086H32.6347H32.6607H32.6868H32.7128H32.7388H32.7649H32.7909H32.8169H32.8429H32.8689H32.895H32.921H32.947H32.973H32.999H33.025H33.051H33.077H33.103H33.129H33.155H33.181H33.207H33.233H33.259H33.285H33.311H33.337H33.3629H33.3889H33.4149H33.4409H33.4669H33.4929H33.5189H33.5449H33.5708H33.5968H33.6228H33.6488H33.6748H33.7008H33.7268H33.7528H33.7788H33.8048H33.8308H33.8568H33.8828H33.9088H33.9348H33.9608H33.9868H34.0128H34.0388H34.0648H34.0909H34.1169H34.1429H34.1689H34.195H34.221H34.247H34.2731H34.2991H34.3252H34.3512H34.3773H34.4033H34.4294H34.4555H34.4815H34.5076H34.5337H34.5598H34.5859H34.612H34.6381H34.6642H34.6903H34.7164H34.7425H34.7686H34.7948H34.8209H34.847H34.8732H34.8993H34.9255H34.9517H34.9778H35.004H35.0302H35.0564H35.0826H35.1088H35.135H35.1612H35.1875H35.2137H35.2399H35.2662H35.2924H35.3187H35.345H35.3713H35.3976H35.4239H35.4502H35.4765H35.5028H35.5291H35.5555H35.5818H35.6082H35.6346H35.6609H35.6873H35.7137H35.7401H35.7665H35.793H35.8194H35.8458H35.8723H35.8988H35.9252H35.9517H35.9782H36.0047H36.0313H36.0578H36.0843H36.1109H36.1374H36.164H36.1906H36.2172H36.2438H36.2704H36.2971H36.3237H36.3504H36.377H36.4037H36.4304H36.4571H36.4838H36.5106H36.5373H36.5641H36.5909H36.6176H36.6444H36.6713H36.6981H36.7249H36.7518H36.7786H36.8055H36.8324H36.8593H36.8863H36.9132H36.9402H36.9671H36.9941H37.0211H37.0481H37.0752H37.1022H37.1293H37.1563H37.1834H37.2105H37.2377H37.2648H37.2919H37.3191H37.3463H37.3735H37.4007H37.428H37.4552H37.4825H37.5098H37.5371H37.5644H37.5917H37.6191H37.6465H37.6739H37.7013H37.7287H37.7562H37.7836H37.8111H37.8386H37.8661H37.8937H37.9212H37.9488H37.9764H38.004H38.0316H38.0593H38.0869H38.1146H38.1423H38.1701H38.1978H38.2256H38.2534H38.2812H38.309H38.3369H38.3647H38.3926H38.4205H38.4485H38.4764H38.5044H38.5324H38.5604H38.5884H38.6165H38.6446H38.6727H38.7008H38.7289H38.7571H38.7853H38.8135H38.8418H38.87H38.8983H38.9266H38.9549H38.9833H39.0116H39.04H39.0684H39.0969H39.1253H39.1538H39.1823H39.2109H39.2394H39.268H39.2966H39.3253H39.3539H39.3826H39.4113H39.44H39.4688H39.4976H39.5264H39.5552H39.5841H39.6129H39.6418H39.6708H39.6997H39.7287H39.7577H39.7868H39.8158H39.8449H39.874H39.9032H39.9323H39.9615H39.9907H40.02H40.0493H40.0786H40.1079H40.1372H40.1666H40.196H40.2255H40.2549H40.2844H40.314H40.3435H40.3731H40.4027H40.4086Z" fill="#EBEBEB" stroke="#999999" />
    <path fill-rule="evenodd" clip-rule="evenodd" d="M6.89705 20.3426C4.17205 20.3426 0.902936 19.0765 0.761759 19.0206L0.3647 18.8647V13.6206L0.552936 13.4368C0.824994 13.1691 1.38529 12.4603 1.38529 11.9794L1.43823 10.9471C1.47646 10.2368 1.52205 9.4147 1.54411 8.6794C1.56176 8.17205 2.33235 7.24999 3.12941 6.9647L3.34117 6.9294H22.2412L23.1941 2.04264C23.3662 1.16323 24.1412 0.526463 25.0353 0.526463L40.4897 0.524992C44.0676 0.836757 46.2279 2.58529 48.5132 4.43676C49.5691 5.2897 50.6573 6.17058 51.9426 6.96911C52.5088 7.02205 53.3265 7.05293 54.2794 7.08823C60.0029 7.30735 65.1882 7.71323 65.7603 10.2544L66.3162 14.825C66.6559 15.0603 67.1353 15.5162 67.1353 16.2103V18.1735C67.1353 18.7162 67.0706 19.2603 66.597 19.5691C65.6912 20.1382 64.6323 20.3382 62.5353 20.3382H61.3779V19.0897H62.5353C64.3309 19.0897 65.2176 18.9441 65.8823 18.5397C65.8647 18.5265 65.8853 18.4132 65.8853 18.1735V16.2103C65.8853 16.0382 65.5882 15.8279 65.4691 15.7735L65.1529 15.6265L64.5294 10.4662C64.1323 8.71617 57.4456 8.46176 54.2323 8.3397C53.1603 8.29852 52.2559 8.26323 51.6691 8.19852L51.4118 8.11176C50.0029 7.25146 48.8456 6.3147 47.7265 5.40882C45.5 3.60587 43.5779 2.04999 40.4353 1.77352L25.0353 1.77646C24.7323 1.77646 24.4809 1.98529 24.4206 2.28235L23.2706 8.17793H3.4647C3.13382 8.34264 2.82205 8.73823 2.76764 8.86176C2.77058 9.4647 2.72646 10.2956 2.68676 11.0147L2.63676 12.0073C2.63676 12.8823 1.96176 13.7471 1.6147 14.1323V18C2.57646 18.3397 5.11176 19.1221 7.11029 19.0897H8.79558V20.3382H7.12646C7.04999 20.3412 6.97352 20.3426 6.89705 20.3426ZM17.4662 20.3397H52.5941V19.0897H17.4662V20.3397Z" fill="#999999" />
    <path fill-rule="evenodd" clip-rule="evenodd" d="M65.7323 15.6823L65.2191 10.9029H63.8706V15.6823H65.7323Z" fill="#999999" />
    <path fill-rule="evenodd" clip-rule="evenodd" d="M37.2103 9.99999H40.0956V9.16764H37.2103V9.99999Z" fill="#999999" />
    <path fill-rule="evenodd" clip-rule="evenodd" d="M2.01323 11.9279H2.5647C3.83529 11.9279 5.52058 10.9647 5.57205 9.86323V8.84999H2.1647C2.12794 9.91617 2.04999 11.1309 2.01323 11.9279Z" fill="#999999" />
    <path fill-rule="evenodd" clip-rule="evenodd" d="M46.5059 6.01176L46.4941 6.02352C46.1456 6.36029 45.9603 7.61323 45.9426 8.09264C45.9368 8.2647 45.9941 8.4147 46.1147 8.53823C46.2338 8.66176 46.3809 8.72499 46.5529 8.72499H47.9353C49.4147 8.72499 47.6838 6.0647 47.1323 5.87205C46.9088 5.79411 46.675 5.84852 46.5059 6.01176Z" fill="#999999" />
    <path fill-rule="evenodd" clip-rule="evenodd" d="M22.6367 16.2882V17.3559H48.1515L22.6367 16.2882Z" fill="#999999" />
    <path fill-rule="evenodd" clip-rule="evenodd" d="M49.9029 19.7132H49.0691V17.8809C49.0691 13.5162 52.6206 9.9647 56.9868 9.9647C61.3515 9.9647 64.9029 13.5162 64.9029 17.8809V19.6206H64.0691V17.8809C64.0691 13.9765 60.8912 10.7985 56.9868 10.7985C53.0809 10.7985 49.9029 13.9765 49.9029 17.8809V19.7132Z" fill="#999999" />
    <path fill-rule="evenodd" clip-rule="evenodd" d="M56.9868 17.597C56.2294 17.597 55.6162 18.2118 55.6162 18.9691C55.6162 19.7265 56.2294 20.3397 56.9868 20.3397C57.7426 20.3397 58.3573 19.7265 58.3573 18.9691C58.3573 18.2118 57.7426 17.597 56.9868 17.597Z" fill="#999999" />
    <path fill-rule="evenodd" clip-rule="evenodd" d="M21.0485 19.7132H20.2132V17.8809C20.2132 13.9765 17.0368 10.7985 13.1309 10.7985C9.22499 10.7985 6.04852 13.9765 6.04852 17.8809V19.575H5.21323V17.8809C5.21323 13.5162 8.76617 9.9647 13.1309 9.9647C17.4956 9.9647 21.0485 13.5162 21.0485 17.8809V19.7132Z" fill="#999999" />
    <path fill-rule="evenodd" clip-rule="evenodd" d="M56.9853 11.8412H56.9868C58.6456 11.8412 60.1559 12.5206 61.2515 13.6162L61.2529 13.6147C62.3471 14.7088 63.0265 16.2191 63.0265 17.8823V20.3397H62.0882C61.8059 21.3882 61.2088 22.3103 60.4074 22.9926C59.4838 23.7779 58.2882 24.2529 56.9868 24.2529C55.6853 24.2529 54.4912 23.7794 53.5676 22.9941L53.5662 22.9956C52.7632 22.3118 52.1647 21.3897 51.8838 20.3397H50.9456V17.8823C50.9456 16.2206 51.625 14.7088 52.7191 13.6147H52.7206C53.8162 12.5206 55.325 11.8412 56.9853 11.8412ZM56.9868 15.4426C55.0397 15.4426 53.4603 17.0221 53.4603 18.9691C53.4603 20.9162 55.0397 22.4941 56.9868 22.4941C58.9338 22.4941 60.5118 20.9162 60.5118 18.9691C60.5118 17.0221 58.9338 15.4426 56.9868 15.4426ZM13.1309 15.4426C11.1838 15.4426 9.60588 17.0221 9.60588 18.9691C9.60588 20.9162 11.1838 22.4941 13.1309 22.4941C15.0779 22.4941 16.6559 20.9162 16.6559 18.9691C16.6559 17.0221 15.0779 15.4426 13.1309 15.4426ZM13.1309 11.8412C14.7897 11.8412 16.3015 12.5206 17.3971 13.6162L17.3985 13.6147C18.4926 14.7088 19.1721 16.2191 19.1721 17.8823V20.3397H18.2324C17.9515 21.3882 17.3544 22.3103 16.5515 22.9926C15.6279 23.7779 14.4324 24.2529 13.1309 24.2529C11.8294 24.2529 10.6338 23.7779 9.71029 22.9926C8.90735 22.3088 8.31029 21.3882 8.02794 20.3397H7.08971V17.8823C7.08971 16.2206 7.76912 14.7088 8.86471 13.6147C9.95735 12.5206 11.4691 11.8412 13.1309 11.8412Z" fill="#999999" />
    <path fill-rule="evenodd" clip-rule="evenodd" d="M13.1309 17.597C12.3735 17.597 11.7603 18.2118 11.7603 18.9691C11.7603 19.7265 12.3735 20.3397 13.1309 20.3397C13.8882 20.3397 14.5015 19.7265 14.5015 18.9691C14.5015 18.2118 13.8882 17.597 13.1309 17.597Z" fill="#999999" />
    <path fill-rule="evenodd" clip-rule="evenodd" d="M25.9132 9.99999H28.7985V9.16764H25.9132V9.99999Z" fill="#999999" />
    </g>
    <defs>
    <clipPath id="clip0">
    <rect width="67.6471" height="25" fill="white" />
    </clipPath>
    </defs>
  </g>
</svg>