<svg width="64" height="25" viewBox="0 0 64 25" fill="none" xmlns="http://www.w3.org/2000/svg">
  <g id="car-1" stroke="none" stroke-width="1" fill="none" fill-rule="evenodd">
    <ellipse cx="30.5" cy="23.5" rx="28.5" ry="1.5" fill="#E5E5E5" />
    <path d="M39.4539 6.84616C39.1675 7.27001 38.9904 7.75066 38.9336 8.27003H18.0346C16.124 8.27003 14.9449 8.21285 13.9239 7.97738C14.9758 7.22761 16.1829 6.39249 17.4523 5.68977C19.077 4.79038 20.7405 4.14503 22.2518 4.14503C23.4915 4.14503 24.8709 4.14461 26.2408 4.1442L26.2731 4.14419C27.6321 4.14377 28.9805 4.14336 30.1727 4.14336C33.5947 4.14336 36.5522 5.29349 39.4539 6.84616Z" fill="#EBEBEB" stroke="#999999" />
    <path fill-rule="evenodd" clip-rule="evenodd" d="M7.01985 20.8317C3.82996 20.8317 0.483429 18.6967 0.340271 18.605L0.0135345 18.395V13.5967L0.117956 13.4267C0.281324 13.1567 0.707429 12.31 0.707429 11.635L0.894377 6.64835L7.78617 6.20335L8.03711 6.08668C11.4207 4.49835 17.7213 1.54002 21.3104 1.54002H31.5167C33.3895 1.70002 34.9811 1.98335 36.3066 2.38835C39.0047 3.21002 45.083 6.81835 46.0986 7.42835C47.0569 7.53835 52.1399 8.15168 56.3049 9.20502C61.2329 10.45 62.9053 12.405 63.1007 13.265L63.5335 20.2517L62.9323 20.3883C61.7702 20.655 60.8186 20.83 58.2771 20.83H55.7626V19.4117H58.2771C60.2258 19.4117 61.1436 19.31 62.0093 19.1383L61.6876 13.46C61.595 13.25 60.219 11.6567 55.9512 10.5784C51.4561 9.44168 45.8375 8.82335 45.782 8.81835L45.4872 8.71835C45.4182 8.67835 38.6005 4.57002 35.8855 3.74335C34.6561 3.36835 33.1639 3.10335 31.4544 2.95502L21.3104 2.95668C18.043 2.95668 11.9327 5.82668 8.65017 7.36668L8.0169 7.60835L2.27711 7.98002L2.13901 11.6617C2.14069 12.6083 1.66743 13.5783 1.4468 13.98V17.6117C2.33775 18.1267 4.93311 19.4433 7.19164 19.4133L9.20427 19.4117V20.83H7.21017C7.14785 20.8317 7.08385 20.8317 7.01985 20.8317ZM17.0274 20.83H47.9377V19.4117H17.0274V20.83Z" fill="#999999" />
    <path fill-rule="evenodd" clip-rule="evenodd" d="M1.47549 10.9583C1.45023 11.6533 1.42665 12.39 1.42328 12.8283H2.32602C3.49149 12.8283 5.03423 11.955 5.08138 10.9583V10.0383H1.44349V10.9583H1.47549Z" fill="#999999" />
    <path fill-rule="evenodd" clip-rule="evenodd" d="M57.6422 12.6451L59.0098 15.0734C59.4578 14.8201 60.118 14.6551 60.6266 14.6551H60.6603C61.3727 14.6634 62.0835 14.6551 62.7942 14.6551L62.7673 14.5417C62.71 14.3051 62.0313 13.1567 61.3306 12.6451C60.1012 12.6451 58.8717 12.6451 57.6422 12.6451Z" fill="#999999" />
    <path fill-rule="evenodd" clip-rule="evenodd" d="M30.3176 11.6183H33.6203V10.6733H30.3176V11.6183Z" fill="#999999" />
    <path fill-rule="evenodd" clip-rule="evenodd" d="M15.6379 11.6183H18.9407V10.6733H15.6379V11.6183Z" fill="#999999" />
    <path fill-rule="evenodd" clip-rule="evenodd" d="M21.7634 16.56V17.77H44.2139L21.7634 16.56Z" fill="#999999" />
    <path fill-rule="evenodd" clip-rule="evenodd" d="M61.179 18.0184H62.7908V17.0734H61.179V18.0184Z" fill="#999999" />
    <path fill-rule="evenodd" clip-rule="evenodd" d="M60.923 16.7667H60.2157C59.9344 16.7667 59.7054 16.9933 59.7054 17.27V17.82C59.7054 18.0967 59.9344 18.3233 60.2157 18.3233H60.923C61.2043 18.3233 61.4334 18.0967 61.4334 17.82V17.27C61.4334 16.9933 61.2043 16.7667 60.923 16.7667Z" fill="#999999" />
    <path fill-rule="evenodd" clip-rule="evenodd" d="M40.7579 7.1467L40.7461 7.15836C40.347 7.54503 40.1348 8.01503 40.1146 8.56003C40.1078 8.75503 40.1735 8.92503 40.3099 9.06503C40.4464 9.20503 40.6165 9.2767 40.8135 9.2767H42.3967C42.656 9.2767 42.8784 9.1467 43.0047 8.9217C43.1327 8.69836 43.1276 8.44336 42.9929 8.22336C42.7032 7.75336 42.2316 7.24836 41.4771 6.98836C41.2194 6.90003 40.9533 6.96003 40.7579 7.1467Z" fill="#999999" />
    <path fill-rule="evenodd" clip-rule="evenodd" d="M42.0547 9.98669C41.9065 9.98669 41.7617 9.92003 41.669 9.79336L40.7815 8.59169C40.6265 8.38003 40.6737 8.08503 40.8859 7.93169C41.0998 7.77836 41.3979 7.82336 41.5528 8.03503L42.4404 9.23669C42.5954 9.44669 42.5482 9.74169 42.336 9.89669C42.2501 9.95669 42.1524 9.98669 42.0547 9.98669Z" fill="#999999" />
    <path fill-rule="evenodd" clip-rule="evenodd" d="M1.13358 18.2534V20.2484H6.38663V20.0917C4.19715 19.8917 2.01105 18.7567 1.13358 18.2534Z" fill="#999999" />
    <path fill-rule="evenodd" clip-rule="evenodd" d="M13.1151 12.29H13.1167C14.7892 12.29 16.3117 12.9683 17.4165 14.0617L17.4199 14.0633C18.5247 15.1567 19.2102 16.665 19.2102 18.32V20.83H16.9365C17.3172 20.1834 17.5361 19.4317 17.5361 18.63C17.5361 16.215 15.5572 14.2567 13.1151 14.2567C10.6746 14.2567 8.6957 16.215 8.6957 18.63C8.6957 19.4317 8.91296 20.1834 9.29527 20.83H7.02159V18.32C7.02159 16.665 7.70706 15.1567 8.81191 14.0633L8.81359 14.0617C9.91843 12.9683 11.4426 12.29 13.1151 12.29Z" fill="#999999" />
    <path fill-rule="evenodd" clip-rule="evenodd" d="M9.46694 15.02C10.4 14.0967 11.6918 13.525 13.1166 13.525C14.5381 13.525 15.8282 14.0967 16.7613 15.02L16.7646 15.0217C17.6977 15.9467 18.2754 17.2217 18.2754 18.63C18.2754 20.04 17.6977 21.3167 16.7646 22.24H16.7613C15.8282 23.1633 14.5381 23.7367 13.1166 23.7367C11.6918 23.7367 10.4 23.165 9.46694 22.24C8.53389 21.3167 7.95621 20.04 7.95621 18.63C7.95621 17.2217 8.53389 15.9467 9.46694 15.0217V15.02ZM13.1166 15.06C11.1242 15.06 9.50905 16.6583 9.50905 18.63C9.50905 20.6017 11.1242 22.2 13.1166 22.2C15.1074 22.2 16.7225 20.6017 16.7225 18.63C16.7225 16.6583 15.1074 15.06 13.1166 15.06Z" fill="#999999" />
    <path fill-rule="evenodd" clip-rule="evenodd" d="M13.1167 19.925C13.8359 19.925 14.4237 19.3434 14.4237 18.63C14.4237 17.9184 13.8359 17.3367 13.1167 17.3367C12.3959 17.3367 11.8098 17.9184 11.8098 18.63C11.8098 19.3434 12.3959 19.925 13.1167 19.925Z" fill="#999999" />
    <path fill-rule="evenodd" clip-rule="evenodd" d="M51.8502 12.29C53.5243 12.29 55.0468 12.9684 56.1517 14.0617L56.155 14.0634C57.2582 15.1567 57.9454 16.665 57.9454 18.32V20.83H55.6717C56.0523 20.1834 56.2696 19.4317 56.2696 18.63C56.2696 16.215 54.2923 14.2567 51.8502 14.2567C49.4098 14.2567 47.4308 16.215 47.4308 18.63C47.4308 19.4317 47.6481 20.1834 48.0287 20.83H45.7567V18.32C45.7567 16.665 46.4422 15.1567 47.5454 14.0634L47.5487 14.0617C48.6536 12.9684 50.1778 12.29 51.8502 12.29Z" fill="#999999" />
    <path fill-rule="evenodd" clip-rule="evenodd" d="M48.2021 15.02C49.1352 14.0967 50.4253 13.525 51.8501 13.525C53.2733 13.525 54.5634 14.0967 55.4964 15.02L55.4998 15.0217C56.4328 15.9467 57.0105 17.2217 57.0105 18.63C57.0105 20.04 56.4328 21.3167 55.4998 22.24H55.4964C54.5634 23.1633 53.2733 23.7367 51.8501 23.7367C50.4253 23.7367 49.1352 23.165 48.2021 22.24C47.2691 21.3167 46.6914 20.04 46.6914 18.63C46.6914 17.2217 47.2691 15.9467 48.2021 15.0217V15.02ZM51.8501 15.06C49.8577 15.06 48.2442 16.6583 48.2442 18.63C48.2442 20.6017 49.8577 22.2 51.8501 22.2C53.8425 22.2 55.4577 20.6017 55.4577 18.63C55.4577 16.6583 53.8425 15.06 51.8501 15.06Z" fill="#999999" />
    <path fill-rule="evenodd" clip-rule="evenodd" d="M51.8519 19.925C52.5711 19.925 53.1589 19.3434 53.1589 18.63C53.1589 17.9184 52.5711 17.3367 51.8519 17.3367C51.1311 17.3367 50.545 17.9184 50.545 18.63C50.545 19.3434 51.1311 19.925 51.8519 19.925Z" fill="#999999" />
  </g>
</svg>