<svg width="56" height="25" viewBox="0 0 56 25" fill="none" xmlns="http://www.w3.org/2000/svg">
  <g id="car-9" stroke="none" stroke-width="1" fill="none" fill-rule="evenodd">
    <g clip-path="url(#clip0)">
    <path d="M41.4889 7.50023C40.9739 7.04734 40.4727 6.58561 40.0071 6.15678C39.8145 5.97934 39.6279 5.80753 39.4491 5.64432L39.7861 5.27499L39.4494 5.64457C39.175 5.39461 38.8899 5.12855 38.5968 4.85503C38.0355 4.33121 37.4449 3.78 36.8443 3.26195L41.4889 7.50023ZM41.4889 7.50023C41.4348 7.54138 41.3826 7.586 41.3327 7.63397L41.3326 7.6339L41.3259 7.64058C40.9818 7.97425 40.7868 8.52297 40.6715 8.98245C40.549 9.47037 40.4875 9.9816 40.4753 10.3398L40.4753 10.3411C40.4739 10.3854 40.4741 10.4296 40.4761 10.4736H40.0681C38.9191 10.4736 37.1976 10.0213 35.7133 9.54285C34.982 9.30711 34.3263 9.07113 33.8534 8.89403C33.6771 8.82802 33.5264 8.77027 33.407 8.72387V3.09721M41.4889 7.50023L33.407 3.09721M33.407 3.09721H36.4C36.5748 3.09721 36.713 3.14874 36.8443 3.26194L33.407 3.09721Z" fill="#EBEBEB" stroke="#999999" />
    <path d="M9.68347 8.47261L9.68331 8.47252L7.04165 6.94752L7.04111 6.94721C6.82049 6.82021 6.70139 6.61367 6.70139 6.35832V3.09721H29.6194C29.9939 3.09721 30.3002 3.40316 30.3014 3.77812C30.3014 3.77836 30.3014 3.7786 30.3014 3.77884L30.3014 7.88332C30.3014 8.25718 29.9947 8.56388 29.6208 8.56388H10.0236C9.89491 8.56388 9.79505 8.53708 9.68347 8.47261Z" fill="#EBEBEB" stroke="#999999" />
    <path fill-rule="evenodd" clip-rule="evenodd" d="M4.38611 20.8444C2.98889 20.8444 2.06667 20.3055 1.53611 19.8444C0.937501 19.3236 0.694445 18.7861 0.669445 18.7278L0.620834 18.493V14.8139L0.705557 14.6722C0.715279 14.6569 0.834723 14.4569 0.952779 14.1736C1.10972 13.7958 1.19167 13.4514 1.19167 13.1778C1.20556 12.9 1.22083 12.1861 1.24306 11.225C1.30695 8.26666 1.41667 3.31666 1.65 1.70971L1.81667 0.67499H37.5625L37.7264 0.809712C38.6181 1.54305 39.6667 2.49999 40.7764 3.51388C42.5208 5.10693 44.3222 6.75138 45.45 7.44999C46.3528 7.73888 53.7222 10.1653 54.0889 11.7958C54.5528 13.4611 54.5875 13.7639 54.5403 15.475C55.0292 15.818 55.3097 16.3583 55.3 16.95L55.2694 18.9778C55.2569 19.8403 54.6542 20.5472 53.8028 20.6958L53.5375 20.7375C52.9958 20.8097 51.4736 20.8417 50.5653 20.8417H48.5708V19.6611H50.5653C51.7097 19.6611 52.9972 19.618 53.3778 19.5667L53.5986 19.5333C53.8833 19.4819 54.0847 19.2458 54.0889 18.9583L54.1194 16.9305C54.1236 16.6805 53.9861 16.4722 53.7542 16.3764L53.3778 16.2208L53.35 15.7972C53.4056 13.868 53.4097 13.7555 52.9444 12.0847C52.5125 11.3014 46.9069 9.07777 45.0444 8.5611L44.8972 8.49721C43.675 7.75971 41.7958 6.04443 39.9806 4.3861C38.95 3.44582 37.9722 2.55277 37.1375 1.85555L2.81806 1.88055C2.59583 3.41388 2.48333 8.51249 2.42361 11.2514C2.40278 12.2305 2.38611 12.9569 2.37222 13.2097C2.37361 13.6111 2.2625 14.0972 2.04306 14.6264C1.95417 14.8403 1.86528 15.0167 1.80139 15.1333V18.3486C1.87639 18.475 2.0375 18.7153 2.31111 18.9528C2.88056 19.4472 3.62083 19.6819 4.52361 19.6611H7.83611V20.8417H4.54028C4.4875 20.843 4.43611 20.8444 4.38611 20.8444ZM14.5361 20.8417H41.8722V19.6611H14.5361V20.8417Z" fill="#999999" />
    <path fill-rule="evenodd" clip-rule="evenodd" d="M42.0958 8.4111L42.0861 8.42221C41.7556 8.74027 41.5806 9.9236 41.5653 10.3764C41.5597 10.5389 41.6139 10.6819 41.7264 10.7972C41.8389 10.9153 41.9792 10.9736 42.1417 10.9736H43.4472C44.8431 10.9736 43.2097 8.4611 42.6889 8.28054C42.4778 8.20693 42.2569 8.25693 42.0958 8.4111Z" fill="#999999" />
    <path fill-rule="evenodd" clip-rule="evenodd" d="M32.2181 11.7375H34.9417V10.9514H32.2181V11.7375Z" fill="#999999" />
    <path fill-rule="evenodd" clip-rule="evenodd" d="M27.8778 11.0319H30.6028V10.2458H27.8778V11.0319Z" fill="#999999" />
    <path fill-rule="evenodd" clip-rule="evenodd" d="M5.80139 11.575H15.0153V10.7889H5.80139V11.575Z" fill="#999999" />
    <path fill-rule="evenodd" clip-rule="evenodd" d="M53.9639 14.3236C52.6153 13.5944 50.1083 12.2194 49.7417 11.8528C49.5931 11.7042 49.5556 10.5819 49.5889 9.60555C51.5347 10.4222 53.3833 11.3528 53.5125 11.9264C53.8403 13.1028 53.9472 13.5653 53.9639 14.3208V14.3236Z" fill="#999999" />
    <path fill-rule="evenodd" clip-rule="evenodd" d="M1.79167 13.1792C2.85556 12.9444 3.96806 12.168 4.00833 11.3028V4.23193H2.05556C1.93333 6.69443 1.86806 10.1069 1.82639 11.9555C1.89028 12.143 1.92361 12.2958 1.91806 12.4042C1.91806 12.6639 1.86528 12.9319 1.79167 13.1792Z" fill="#999999" />
    <path fill-rule="evenodd" clip-rule="evenodd" d="M49.3194 20.8417C49.1194 21.5555 48.7389 22.193 48.2306 22.7014H48.2278C47.4583 23.4708 46.3944 23.9486 45.2208 23.9486C44.0458 23.9486 42.9819 23.4722 42.2125 22.7014C41.7028 22.193 41.3222 21.5555 41.1236 20.8417H40.1958V19.5389C40.1958 18.1569 40.7611 16.8986 41.6708 15.9889C42.5819 15.0792 43.8389 14.5139 45.2208 14.5139C46.6 14.5139 47.8569 15.0792 48.7681 15.9889L48.7694 15.9903L48.7708 15.9917C49.6806 16.9028 50.2458 18.1597 50.2458 19.5389V20.8417H49.3194ZM45.2208 17.0944C43.7861 17.0944 42.6222 18.2583 42.6222 19.693C42.6222 21.1292 43.7861 22.293 45.2208 22.293C46.6569 22.293 47.8208 21.1292 47.8208 19.693C47.8208 18.2583 46.6569 17.0944 45.2208 17.0944Z" fill="#999999" />
    <path fill-rule="evenodd" clip-rule="evenodd" d="M11.1861 14.5139C12.5653 14.5139 13.8222 15.0792 14.7333 15.9889L14.7347 15.9903L14.7361 15.9917C15.6458 16.9028 16.2111 18.1597 16.2111 19.5389V20.8417H15.2847C15.0847 21.5555 14.7042 22.193 14.1944 22.7014H14.1931C13.4236 23.4708 12.3597 23.9486 11.1861 23.9486C10.0111 23.9486 8.94723 23.4722 8.17778 22.7014C7.66806 22.193 7.2875 21.5555 7.08889 20.8417H6.16111V19.5389C6.16111 18.1569 6.725 16.8986 7.63611 15.9889C8.54584 15.0792 9.80417 14.5139 11.1861 14.5139ZM11.1861 17.0944C9.75 17.0944 8.58611 18.2583 8.58611 19.693C8.58611 21.1292 9.75 22.293 11.1861 22.293C12.6208 22.293 13.7847 21.1292 13.7847 19.693C13.7847 18.2583 12.6208 17.0944 11.1861 17.0944Z" fill="#999999" />
    <path fill-rule="evenodd" clip-rule="evenodd" d="M45.2208 18.6153C44.6264 18.6153 44.1431 19.0986 44.1431 19.693C44.1431 20.2889 44.6264 20.7708 45.2208 20.7708C45.8167 20.7708 46.2986 20.2889 46.2986 19.693C46.2986 19.0986 45.8167 18.6153 45.2208 18.6153Z" fill="#999999" />
    <path fill-rule="evenodd" clip-rule="evenodd" d="M11.1861 18.6153C10.5903 18.6153 10.1083 19.0986 10.1083 19.693C10.1083 20.2889 10.5903 20.7708 11.1861 20.7708C11.7819 20.7708 12.2639 20.2889 12.2639 19.693C12.2639 19.0986 11.7819 18.6153 11.1861 18.6153Z" fill="#999999" />
    </g>
    <defs>
    <clipPath id="clip0">
    <rect width="55.5556" height="25" fill="white" />
    </clipPath>
    </defs>
  </g>
</svg>